G04 #@! TF.GenerationSoftware,KiCad,Pcbnew,5.1.2-f72e74a~84~ubuntu18.04.1*
G04 #@! TF.CreationDate,2019-07-06T11:59:09+02:00*
G04 #@! TF.ProjectId,loponode,6c6f706f-6e6f-4646-952e-6b696361645f,rev?*
G04 #@! TF.SameCoordinates,Original*
G04 #@! TF.FileFunction,Paste,Bot*
G04 #@! TF.FilePolarity,Positive*
%FSLAX46Y46*%
G04 Gerber Fmt 4.6, Leading zero omitted, Abs format (unit mm)*
G04 Created by KiCad (PCBNEW 5.1.2-f72e74a~84~ubuntu18.04.1) date 2019-07-06 11:59:09*
%MOMM*%
%LPD*%
G04 APERTURE LIST*
%ADD10R,3.300000X1.540000*%
%ADD11C,0.100000*%
%ADD12C,1.150000*%
G04 APERTURE END LIST*
D10*
X130979400Y-139165800D03*
X123579400Y-139165800D03*
X123579400Y-136525800D03*
X130979400Y-136525800D03*
D11*
G36*
X135958105Y-129109604D02*
G01*
X135982373Y-129113204D01*
X136006172Y-129119165D01*
X136029271Y-129127430D01*
X136051450Y-129137920D01*
X136072493Y-129150532D01*
X136092199Y-129165147D01*
X136110377Y-129181623D01*
X136126853Y-129199801D01*
X136141468Y-129219507D01*
X136154080Y-129240550D01*
X136164570Y-129262729D01*
X136172835Y-129285828D01*
X136178796Y-129309627D01*
X136182396Y-129333895D01*
X136183600Y-129358399D01*
X136183600Y-130008401D01*
X136182396Y-130032905D01*
X136178796Y-130057173D01*
X136172835Y-130080972D01*
X136164570Y-130104071D01*
X136154080Y-130126250D01*
X136141468Y-130147293D01*
X136126853Y-130166999D01*
X136110377Y-130185177D01*
X136092199Y-130201653D01*
X136072493Y-130216268D01*
X136051450Y-130228880D01*
X136029271Y-130239370D01*
X136006172Y-130247635D01*
X135982373Y-130253596D01*
X135958105Y-130257196D01*
X135933601Y-130258400D01*
X135033599Y-130258400D01*
X135009095Y-130257196D01*
X134984827Y-130253596D01*
X134961028Y-130247635D01*
X134937929Y-130239370D01*
X134915750Y-130228880D01*
X134894707Y-130216268D01*
X134875001Y-130201653D01*
X134856823Y-130185177D01*
X134840347Y-130166999D01*
X134825732Y-130147293D01*
X134813120Y-130126250D01*
X134802630Y-130104071D01*
X134794365Y-130080972D01*
X134788404Y-130057173D01*
X134784804Y-130032905D01*
X134783600Y-130008401D01*
X134783600Y-129358399D01*
X134784804Y-129333895D01*
X134788404Y-129309627D01*
X134794365Y-129285828D01*
X134802630Y-129262729D01*
X134813120Y-129240550D01*
X134825732Y-129219507D01*
X134840347Y-129199801D01*
X134856823Y-129181623D01*
X134875001Y-129165147D01*
X134894707Y-129150532D01*
X134915750Y-129137920D01*
X134937929Y-129127430D01*
X134961028Y-129119165D01*
X134984827Y-129113204D01*
X135009095Y-129109604D01*
X135033599Y-129108400D01*
X135933601Y-129108400D01*
X135958105Y-129109604D01*
X135958105Y-129109604D01*
G37*
D12*
X135483600Y-129683400D03*
D11*
G36*
X135958105Y-131159604D02*
G01*
X135982373Y-131163204D01*
X136006172Y-131169165D01*
X136029271Y-131177430D01*
X136051450Y-131187920D01*
X136072493Y-131200532D01*
X136092199Y-131215147D01*
X136110377Y-131231623D01*
X136126853Y-131249801D01*
X136141468Y-131269507D01*
X136154080Y-131290550D01*
X136164570Y-131312729D01*
X136172835Y-131335828D01*
X136178796Y-131359627D01*
X136182396Y-131383895D01*
X136183600Y-131408399D01*
X136183600Y-132058401D01*
X136182396Y-132082905D01*
X136178796Y-132107173D01*
X136172835Y-132130972D01*
X136164570Y-132154071D01*
X136154080Y-132176250D01*
X136141468Y-132197293D01*
X136126853Y-132216999D01*
X136110377Y-132235177D01*
X136092199Y-132251653D01*
X136072493Y-132266268D01*
X136051450Y-132278880D01*
X136029271Y-132289370D01*
X136006172Y-132297635D01*
X135982373Y-132303596D01*
X135958105Y-132307196D01*
X135933601Y-132308400D01*
X135033599Y-132308400D01*
X135009095Y-132307196D01*
X134984827Y-132303596D01*
X134961028Y-132297635D01*
X134937929Y-132289370D01*
X134915750Y-132278880D01*
X134894707Y-132266268D01*
X134875001Y-132251653D01*
X134856823Y-132235177D01*
X134840347Y-132216999D01*
X134825732Y-132197293D01*
X134813120Y-132176250D01*
X134802630Y-132154071D01*
X134794365Y-132130972D01*
X134788404Y-132107173D01*
X134784804Y-132082905D01*
X134783600Y-132058401D01*
X134783600Y-131408399D01*
X134784804Y-131383895D01*
X134788404Y-131359627D01*
X134794365Y-131335828D01*
X134802630Y-131312729D01*
X134813120Y-131290550D01*
X134825732Y-131269507D01*
X134840347Y-131249801D01*
X134856823Y-131231623D01*
X134875001Y-131215147D01*
X134894707Y-131200532D01*
X134915750Y-131187920D01*
X134937929Y-131177430D01*
X134961028Y-131169165D01*
X134984827Y-131163204D01*
X135009095Y-131159604D01*
X135033599Y-131158400D01*
X135933601Y-131158400D01*
X135958105Y-131159604D01*
X135958105Y-131159604D01*
G37*
D12*
X135483600Y-131733400D03*
D11*
G36*
X141546105Y-129118604D02*
G01*
X141570373Y-129122204D01*
X141594172Y-129128165D01*
X141617271Y-129136430D01*
X141639450Y-129146920D01*
X141660493Y-129159532D01*
X141680199Y-129174147D01*
X141698377Y-129190623D01*
X141714853Y-129208801D01*
X141729468Y-129228507D01*
X141742080Y-129249550D01*
X141752570Y-129271729D01*
X141760835Y-129294828D01*
X141766796Y-129318627D01*
X141770396Y-129342895D01*
X141771600Y-129367399D01*
X141771600Y-130017401D01*
X141770396Y-130041905D01*
X141766796Y-130066173D01*
X141760835Y-130089972D01*
X141752570Y-130113071D01*
X141742080Y-130135250D01*
X141729468Y-130156293D01*
X141714853Y-130175999D01*
X141698377Y-130194177D01*
X141680199Y-130210653D01*
X141660493Y-130225268D01*
X141639450Y-130237880D01*
X141617271Y-130248370D01*
X141594172Y-130256635D01*
X141570373Y-130262596D01*
X141546105Y-130266196D01*
X141521601Y-130267400D01*
X140621599Y-130267400D01*
X140597095Y-130266196D01*
X140572827Y-130262596D01*
X140549028Y-130256635D01*
X140525929Y-130248370D01*
X140503750Y-130237880D01*
X140482707Y-130225268D01*
X140463001Y-130210653D01*
X140444823Y-130194177D01*
X140428347Y-130175999D01*
X140413732Y-130156293D01*
X140401120Y-130135250D01*
X140390630Y-130113071D01*
X140382365Y-130089972D01*
X140376404Y-130066173D01*
X140372804Y-130041905D01*
X140371600Y-130017401D01*
X140371600Y-129367399D01*
X140372804Y-129342895D01*
X140376404Y-129318627D01*
X140382365Y-129294828D01*
X140390630Y-129271729D01*
X140401120Y-129249550D01*
X140413732Y-129228507D01*
X140428347Y-129208801D01*
X140444823Y-129190623D01*
X140463001Y-129174147D01*
X140482707Y-129159532D01*
X140503750Y-129146920D01*
X140525929Y-129136430D01*
X140549028Y-129128165D01*
X140572827Y-129122204D01*
X140597095Y-129118604D01*
X140621599Y-129117400D01*
X141521601Y-129117400D01*
X141546105Y-129118604D01*
X141546105Y-129118604D01*
G37*
D12*
X141071600Y-129692400D03*
D11*
G36*
X141546105Y-131168604D02*
G01*
X141570373Y-131172204D01*
X141594172Y-131178165D01*
X141617271Y-131186430D01*
X141639450Y-131196920D01*
X141660493Y-131209532D01*
X141680199Y-131224147D01*
X141698377Y-131240623D01*
X141714853Y-131258801D01*
X141729468Y-131278507D01*
X141742080Y-131299550D01*
X141752570Y-131321729D01*
X141760835Y-131344828D01*
X141766796Y-131368627D01*
X141770396Y-131392895D01*
X141771600Y-131417399D01*
X141771600Y-132067401D01*
X141770396Y-132091905D01*
X141766796Y-132116173D01*
X141760835Y-132139972D01*
X141752570Y-132163071D01*
X141742080Y-132185250D01*
X141729468Y-132206293D01*
X141714853Y-132225999D01*
X141698377Y-132244177D01*
X141680199Y-132260653D01*
X141660493Y-132275268D01*
X141639450Y-132287880D01*
X141617271Y-132298370D01*
X141594172Y-132306635D01*
X141570373Y-132312596D01*
X141546105Y-132316196D01*
X141521601Y-132317400D01*
X140621599Y-132317400D01*
X140597095Y-132316196D01*
X140572827Y-132312596D01*
X140549028Y-132306635D01*
X140525929Y-132298370D01*
X140503750Y-132287880D01*
X140482707Y-132275268D01*
X140463001Y-132260653D01*
X140444823Y-132244177D01*
X140428347Y-132225999D01*
X140413732Y-132206293D01*
X140401120Y-132185250D01*
X140390630Y-132163071D01*
X140382365Y-132139972D01*
X140376404Y-132116173D01*
X140372804Y-132091905D01*
X140371600Y-132067401D01*
X140371600Y-131417399D01*
X140372804Y-131392895D01*
X140376404Y-131368627D01*
X140382365Y-131344828D01*
X140390630Y-131321729D01*
X140401120Y-131299550D01*
X140413732Y-131278507D01*
X140428347Y-131258801D01*
X140444823Y-131240623D01*
X140463001Y-131224147D01*
X140482707Y-131209532D01*
X140503750Y-131196920D01*
X140525929Y-131186430D01*
X140549028Y-131178165D01*
X140572827Y-131172204D01*
X140597095Y-131168604D01*
X140621599Y-131167400D01*
X141521601Y-131167400D01*
X141546105Y-131168604D01*
X141546105Y-131168604D01*
G37*
D12*
X141071600Y-131742400D03*
D11*
G36*
X147286505Y-139888204D02*
G01*
X147310773Y-139891804D01*
X147334572Y-139897765D01*
X147357671Y-139906030D01*
X147379850Y-139916520D01*
X147400893Y-139929132D01*
X147420599Y-139943747D01*
X147438777Y-139960223D01*
X147455253Y-139978401D01*
X147469868Y-139998107D01*
X147482480Y-140019150D01*
X147492970Y-140041329D01*
X147501235Y-140064428D01*
X147507196Y-140088227D01*
X147510796Y-140112495D01*
X147512000Y-140136999D01*
X147512000Y-140787001D01*
X147510796Y-140811505D01*
X147507196Y-140835773D01*
X147501235Y-140859572D01*
X147492970Y-140882671D01*
X147482480Y-140904850D01*
X147469868Y-140925893D01*
X147455253Y-140945599D01*
X147438777Y-140963777D01*
X147420599Y-140980253D01*
X147400893Y-140994868D01*
X147379850Y-141007480D01*
X147357671Y-141017970D01*
X147334572Y-141026235D01*
X147310773Y-141032196D01*
X147286505Y-141035796D01*
X147262001Y-141037000D01*
X146361999Y-141037000D01*
X146337495Y-141035796D01*
X146313227Y-141032196D01*
X146289428Y-141026235D01*
X146266329Y-141017970D01*
X146244150Y-141007480D01*
X146223107Y-140994868D01*
X146203401Y-140980253D01*
X146185223Y-140963777D01*
X146168747Y-140945599D01*
X146154132Y-140925893D01*
X146141520Y-140904850D01*
X146131030Y-140882671D01*
X146122765Y-140859572D01*
X146116804Y-140835773D01*
X146113204Y-140811505D01*
X146112000Y-140787001D01*
X146112000Y-140136999D01*
X146113204Y-140112495D01*
X146116804Y-140088227D01*
X146122765Y-140064428D01*
X146131030Y-140041329D01*
X146141520Y-140019150D01*
X146154132Y-139998107D01*
X146168747Y-139978401D01*
X146185223Y-139960223D01*
X146203401Y-139943747D01*
X146223107Y-139929132D01*
X146244150Y-139916520D01*
X146266329Y-139906030D01*
X146289428Y-139897765D01*
X146313227Y-139891804D01*
X146337495Y-139888204D01*
X146361999Y-139887000D01*
X147262001Y-139887000D01*
X147286505Y-139888204D01*
X147286505Y-139888204D01*
G37*
D12*
X146812000Y-140462000D03*
D11*
G36*
X147286505Y-141938204D02*
G01*
X147310773Y-141941804D01*
X147334572Y-141947765D01*
X147357671Y-141956030D01*
X147379850Y-141966520D01*
X147400893Y-141979132D01*
X147420599Y-141993747D01*
X147438777Y-142010223D01*
X147455253Y-142028401D01*
X147469868Y-142048107D01*
X147482480Y-142069150D01*
X147492970Y-142091329D01*
X147501235Y-142114428D01*
X147507196Y-142138227D01*
X147510796Y-142162495D01*
X147512000Y-142186999D01*
X147512000Y-142837001D01*
X147510796Y-142861505D01*
X147507196Y-142885773D01*
X147501235Y-142909572D01*
X147492970Y-142932671D01*
X147482480Y-142954850D01*
X147469868Y-142975893D01*
X147455253Y-142995599D01*
X147438777Y-143013777D01*
X147420599Y-143030253D01*
X147400893Y-143044868D01*
X147379850Y-143057480D01*
X147357671Y-143067970D01*
X147334572Y-143076235D01*
X147310773Y-143082196D01*
X147286505Y-143085796D01*
X147262001Y-143087000D01*
X146361999Y-143087000D01*
X146337495Y-143085796D01*
X146313227Y-143082196D01*
X146289428Y-143076235D01*
X146266329Y-143067970D01*
X146244150Y-143057480D01*
X146223107Y-143044868D01*
X146203401Y-143030253D01*
X146185223Y-143013777D01*
X146168747Y-142995599D01*
X146154132Y-142975893D01*
X146141520Y-142954850D01*
X146131030Y-142932671D01*
X146122765Y-142909572D01*
X146116804Y-142885773D01*
X146113204Y-142861505D01*
X146112000Y-142837001D01*
X146112000Y-142186999D01*
X146113204Y-142162495D01*
X146116804Y-142138227D01*
X146122765Y-142114428D01*
X146131030Y-142091329D01*
X146141520Y-142069150D01*
X146154132Y-142048107D01*
X146168747Y-142028401D01*
X146185223Y-142010223D01*
X146203401Y-141993747D01*
X146223107Y-141979132D01*
X146244150Y-141966520D01*
X146266329Y-141956030D01*
X146289428Y-141947765D01*
X146313227Y-141941804D01*
X146337495Y-141938204D01*
X146361999Y-141937000D01*
X147262001Y-141937000D01*
X147286505Y-141938204D01*
X147286505Y-141938204D01*
G37*
D12*
X146812000Y-142512000D03*
D11*
G36*
X147134105Y-129118604D02*
G01*
X147158373Y-129122204D01*
X147182172Y-129128165D01*
X147205271Y-129136430D01*
X147227450Y-129146920D01*
X147248493Y-129159532D01*
X147268199Y-129174147D01*
X147286377Y-129190623D01*
X147302853Y-129208801D01*
X147317468Y-129228507D01*
X147330080Y-129249550D01*
X147340570Y-129271729D01*
X147348835Y-129294828D01*
X147354796Y-129318627D01*
X147358396Y-129342895D01*
X147359600Y-129367399D01*
X147359600Y-130017401D01*
X147358396Y-130041905D01*
X147354796Y-130066173D01*
X147348835Y-130089972D01*
X147340570Y-130113071D01*
X147330080Y-130135250D01*
X147317468Y-130156293D01*
X147302853Y-130175999D01*
X147286377Y-130194177D01*
X147268199Y-130210653D01*
X147248493Y-130225268D01*
X147227450Y-130237880D01*
X147205271Y-130248370D01*
X147182172Y-130256635D01*
X147158373Y-130262596D01*
X147134105Y-130266196D01*
X147109601Y-130267400D01*
X146209599Y-130267400D01*
X146185095Y-130266196D01*
X146160827Y-130262596D01*
X146137028Y-130256635D01*
X146113929Y-130248370D01*
X146091750Y-130237880D01*
X146070707Y-130225268D01*
X146051001Y-130210653D01*
X146032823Y-130194177D01*
X146016347Y-130175999D01*
X146001732Y-130156293D01*
X145989120Y-130135250D01*
X145978630Y-130113071D01*
X145970365Y-130089972D01*
X145964404Y-130066173D01*
X145960804Y-130041905D01*
X145959600Y-130017401D01*
X145959600Y-129367399D01*
X145960804Y-129342895D01*
X145964404Y-129318627D01*
X145970365Y-129294828D01*
X145978630Y-129271729D01*
X145989120Y-129249550D01*
X146001732Y-129228507D01*
X146016347Y-129208801D01*
X146032823Y-129190623D01*
X146051001Y-129174147D01*
X146070707Y-129159532D01*
X146091750Y-129146920D01*
X146113929Y-129136430D01*
X146137028Y-129128165D01*
X146160827Y-129122204D01*
X146185095Y-129118604D01*
X146209599Y-129117400D01*
X147109601Y-129117400D01*
X147134105Y-129118604D01*
X147134105Y-129118604D01*
G37*
D12*
X146659600Y-129692400D03*
D11*
G36*
X147134105Y-131168604D02*
G01*
X147158373Y-131172204D01*
X147182172Y-131178165D01*
X147205271Y-131186430D01*
X147227450Y-131196920D01*
X147248493Y-131209532D01*
X147268199Y-131224147D01*
X147286377Y-131240623D01*
X147302853Y-131258801D01*
X147317468Y-131278507D01*
X147330080Y-131299550D01*
X147340570Y-131321729D01*
X147348835Y-131344828D01*
X147354796Y-131368627D01*
X147358396Y-131392895D01*
X147359600Y-131417399D01*
X147359600Y-132067401D01*
X147358396Y-132091905D01*
X147354796Y-132116173D01*
X147348835Y-132139972D01*
X147340570Y-132163071D01*
X147330080Y-132185250D01*
X147317468Y-132206293D01*
X147302853Y-132225999D01*
X147286377Y-132244177D01*
X147268199Y-132260653D01*
X147248493Y-132275268D01*
X147227450Y-132287880D01*
X147205271Y-132298370D01*
X147182172Y-132306635D01*
X147158373Y-132312596D01*
X147134105Y-132316196D01*
X147109601Y-132317400D01*
X146209599Y-132317400D01*
X146185095Y-132316196D01*
X146160827Y-132312596D01*
X146137028Y-132306635D01*
X146113929Y-132298370D01*
X146091750Y-132287880D01*
X146070707Y-132275268D01*
X146051001Y-132260653D01*
X146032823Y-132244177D01*
X146016347Y-132225999D01*
X146001732Y-132206293D01*
X145989120Y-132185250D01*
X145978630Y-132163071D01*
X145970365Y-132139972D01*
X145964404Y-132116173D01*
X145960804Y-132091905D01*
X145959600Y-132067401D01*
X145959600Y-131417399D01*
X145960804Y-131392895D01*
X145964404Y-131368627D01*
X145970365Y-131344828D01*
X145978630Y-131321729D01*
X145989120Y-131299550D01*
X146001732Y-131278507D01*
X146016347Y-131258801D01*
X146032823Y-131240623D01*
X146051001Y-131224147D01*
X146070707Y-131209532D01*
X146091750Y-131196920D01*
X146113929Y-131186430D01*
X146137028Y-131178165D01*
X146160827Y-131172204D01*
X146185095Y-131168604D01*
X146209599Y-131167400D01*
X147109601Y-131167400D01*
X147134105Y-131168604D01*
X147134105Y-131168604D01*
G37*
D12*
X146659600Y-131742400D03*
D11*
G36*
X144848105Y-141945604D02*
G01*
X144872373Y-141949204D01*
X144896172Y-141955165D01*
X144919271Y-141963430D01*
X144941450Y-141973920D01*
X144962493Y-141986532D01*
X144982199Y-142001147D01*
X145000377Y-142017623D01*
X145016853Y-142035801D01*
X145031468Y-142055507D01*
X145044080Y-142076550D01*
X145054570Y-142098729D01*
X145062835Y-142121828D01*
X145068796Y-142145627D01*
X145072396Y-142169895D01*
X145073600Y-142194399D01*
X145073600Y-142844401D01*
X145072396Y-142868905D01*
X145068796Y-142893173D01*
X145062835Y-142916972D01*
X145054570Y-142940071D01*
X145044080Y-142962250D01*
X145031468Y-142983293D01*
X145016853Y-143002999D01*
X145000377Y-143021177D01*
X144982199Y-143037653D01*
X144962493Y-143052268D01*
X144941450Y-143064880D01*
X144919271Y-143075370D01*
X144896172Y-143083635D01*
X144872373Y-143089596D01*
X144848105Y-143093196D01*
X144823601Y-143094400D01*
X143923599Y-143094400D01*
X143899095Y-143093196D01*
X143874827Y-143089596D01*
X143851028Y-143083635D01*
X143827929Y-143075370D01*
X143805750Y-143064880D01*
X143784707Y-143052268D01*
X143765001Y-143037653D01*
X143746823Y-143021177D01*
X143730347Y-143002999D01*
X143715732Y-142983293D01*
X143703120Y-142962250D01*
X143692630Y-142940071D01*
X143684365Y-142916972D01*
X143678404Y-142893173D01*
X143674804Y-142868905D01*
X143673600Y-142844401D01*
X143673600Y-142194399D01*
X143674804Y-142169895D01*
X143678404Y-142145627D01*
X143684365Y-142121828D01*
X143692630Y-142098729D01*
X143703120Y-142076550D01*
X143715732Y-142055507D01*
X143730347Y-142035801D01*
X143746823Y-142017623D01*
X143765001Y-142001147D01*
X143784707Y-141986532D01*
X143805750Y-141973920D01*
X143827929Y-141963430D01*
X143851028Y-141955165D01*
X143874827Y-141949204D01*
X143899095Y-141945604D01*
X143923599Y-141944400D01*
X144823601Y-141944400D01*
X144848105Y-141945604D01*
X144848105Y-141945604D01*
G37*
D12*
X144373600Y-142519400D03*
D11*
G36*
X144848105Y-139895604D02*
G01*
X144872373Y-139899204D01*
X144896172Y-139905165D01*
X144919271Y-139913430D01*
X144941450Y-139923920D01*
X144962493Y-139936532D01*
X144982199Y-139951147D01*
X145000377Y-139967623D01*
X145016853Y-139985801D01*
X145031468Y-140005507D01*
X145044080Y-140026550D01*
X145054570Y-140048729D01*
X145062835Y-140071828D01*
X145068796Y-140095627D01*
X145072396Y-140119895D01*
X145073600Y-140144399D01*
X145073600Y-140794401D01*
X145072396Y-140818905D01*
X145068796Y-140843173D01*
X145062835Y-140866972D01*
X145054570Y-140890071D01*
X145044080Y-140912250D01*
X145031468Y-140933293D01*
X145016853Y-140952999D01*
X145000377Y-140971177D01*
X144982199Y-140987653D01*
X144962493Y-141002268D01*
X144941450Y-141014880D01*
X144919271Y-141025370D01*
X144896172Y-141033635D01*
X144872373Y-141039596D01*
X144848105Y-141043196D01*
X144823601Y-141044400D01*
X143923599Y-141044400D01*
X143899095Y-141043196D01*
X143874827Y-141039596D01*
X143851028Y-141033635D01*
X143827929Y-141025370D01*
X143805750Y-141014880D01*
X143784707Y-141002268D01*
X143765001Y-140987653D01*
X143746823Y-140971177D01*
X143730347Y-140952999D01*
X143715732Y-140933293D01*
X143703120Y-140912250D01*
X143692630Y-140890071D01*
X143684365Y-140866972D01*
X143678404Y-140843173D01*
X143674804Y-140818905D01*
X143673600Y-140794401D01*
X143673600Y-140144399D01*
X143674804Y-140119895D01*
X143678404Y-140095627D01*
X143684365Y-140071828D01*
X143692630Y-140048729D01*
X143703120Y-140026550D01*
X143715732Y-140005507D01*
X143730347Y-139985801D01*
X143746823Y-139967623D01*
X143765001Y-139951147D01*
X143784707Y-139936532D01*
X143805750Y-139923920D01*
X143827929Y-139913430D01*
X143851028Y-139905165D01*
X143874827Y-139899204D01*
X143899095Y-139895604D01*
X143923599Y-139894400D01*
X144823601Y-139894400D01*
X144848105Y-139895604D01*
X144848105Y-139895604D01*
G37*
D12*
X144373600Y-140469400D03*
D11*
G36*
X144340105Y-131168604D02*
G01*
X144364373Y-131172204D01*
X144388172Y-131178165D01*
X144411271Y-131186430D01*
X144433450Y-131196920D01*
X144454493Y-131209532D01*
X144474199Y-131224147D01*
X144492377Y-131240623D01*
X144508853Y-131258801D01*
X144523468Y-131278507D01*
X144536080Y-131299550D01*
X144546570Y-131321729D01*
X144554835Y-131344828D01*
X144560796Y-131368627D01*
X144564396Y-131392895D01*
X144565600Y-131417399D01*
X144565600Y-132067401D01*
X144564396Y-132091905D01*
X144560796Y-132116173D01*
X144554835Y-132139972D01*
X144546570Y-132163071D01*
X144536080Y-132185250D01*
X144523468Y-132206293D01*
X144508853Y-132225999D01*
X144492377Y-132244177D01*
X144474199Y-132260653D01*
X144454493Y-132275268D01*
X144433450Y-132287880D01*
X144411271Y-132298370D01*
X144388172Y-132306635D01*
X144364373Y-132312596D01*
X144340105Y-132316196D01*
X144315601Y-132317400D01*
X143415599Y-132317400D01*
X143391095Y-132316196D01*
X143366827Y-132312596D01*
X143343028Y-132306635D01*
X143319929Y-132298370D01*
X143297750Y-132287880D01*
X143276707Y-132275268D01*
X143257001Y-132260653D01*
X143238823Y-132244177D01*
X143222347Y-132225999D01*
X143207732Y-132206293D01*
X143195120Y-132185250D01*
X143184630Y-132163071D01*
X143176365Y-132139972D01*
X143170404Y-132116173D01*
X143166804Y-132091905D01*
X143165600Y-132067401D01*
X143165600Y-131417399D01*
X143166804Y-131392895D01*
X143170404Y-131368627D01*
X143176365Y-131344828D01*
X143184630Y-131321729D01*
X143195120Y-131299550D01*
X143207732Y-131278507D01*
X143222347Y-131258801D01*
X143238823Y-131240623D01*
X143257001Y-131224147D01*
X143276707Y-131209532D01*
X143297750Y-131196920D01*
X143319929Y-131186430D01*
X143343028Y-131178165D01*
X143366827Y-131172204D01*
X143391095Y-131168604D01*
X143415599Y-131167400D01*
X144315601Y-131167400D01*
X144340105Y-131168604D01*
X144340105Y-131168604D01*
G37*
D12*
X143865600Y-131742400D03*
D11*
G36*
X144340105Y-129118604D02*
G01*
X144364373Y-129122204D01*
X144388172Y-129128165D01*
X144411271Y-129136430D01*
X144433450Y-129146920D01*
X144454493Y-129159532D01*
X144474199Y-129174147D01*
X144492377Y-129190623D01*
X144508853Y-129208801D01*
X144523468Y-129228507D01*
X144536080Y-129249550D01*
X144546570Y-129271729D01*
X144554835Y-129294828D01*
X144560796Y-129318627D01*
X144564396Y-129342895D01*
X144565600Y-129367399D01*
X144565600Y-130017401D01*
X144564396Y-130041905D01*
X144560796Y-130066173D01*
X144554835Y-130089972D01*
X144546570Y-130113071D01*
X144536080Y-130135250D01*
X144523468Y-130156293D01*
X144508853Y-130175999D01*
X144492377Y-130194177D01*
X144474199Y-130210653D01*
X144454493Y-130225268D01*
X144433450Y-130237880D01*
X144411271Y-130248370D01*
X144388172Y-130256635D01*
X144364373Y-130262596D01*
X144340105Y-130266196D01*
X144315601Y-130267400D01*
X143415599Y-130267400D01*
X143391095Y-130266196D01*
X143366827Y-130262596D01*
X143343028Y-130256635D01*
X143319929Y-130248370D01*
X143297750Y-130237880D01*
X143276707Y-130225268D01*
X143257001Y-130210653D01*
X143238823Y-130194177D01*
X143222347Y-130175999D01*
X143207732Y-130156293D01*
X143195120Y-130135250D01*
X143184630Y-130113071D01*
X143176365Y-130089972D01*
X143170404Y-130066173D01*
X143166804Y-130041905D01*
X143165600Y-130017401D01*
X143165600Y-129367399D01*
X143166804Y-129342895D01*
X143170404Y-129318627D01*
X143176365Y-129294828D01*
X143184630Y-129271729D01*
X143195120Y-129249550D01*
X143207732Y-129228507D01*
X143222347Y-129208801D01*
X143238823Y-129190623D01*
X143257001Y-129174147D01*
X143276707Y-129159532D01*
X143297750Y-129146920D01*
X143319929Y-129136430D01*
X143343028Y-129128165D01*
X143366827Y-129122204D01*
X143391095Y-129118604D01*
X143415599Y-129117400D01*
X144315601Y-129117400D01*
X144340105Y-129118604D01*
X144340105Y-129118604D01*
G37*
D12*
X143865600Y-129692400D03*
D11*
G36*
X130404905Y-132448004D02*
G01*
X130429173Y-132451604D01*
X130452972Y-132457565D01*
X130476071Y-132465830D01*
X130498250Y-132476320D01*
X130519293Y-132488932D01*
X130538999Y-132503547D01*
X130557177Y-132520023D01*
X130573653Y-132538201D01*
X130588268Y-132557907D01*
X130600880Y-132578950D01*
X130611370Y-132601129D01*
X130619635Y-132624228D01*
X130625596Y-132648027D01*
X130629196Y-132672295D01*
X130630400Y-132696799D01*
X130630400Y-133596801D01*
X130629196Y-133621305D01*
X130625596Y-133645573D01*
X130619635Y-133669372D01*
X130611370Y-133692471D01*
X130600880Y-133714650D01*
X130588268Y-133735693D01*
X130573653Y-133755399D01*
X130557177Y-133773577D01*
X130538999Y-133790053D01*
X130519293Y-133804668D01*
X130498250Y-133817280D01*
X130476071Y-133827770D01*
X130452972Y-133836035D01*
X130429173Y-133841996D01*
X130404905Y-133845596D01*
X130380401Y-133846800D01*
X129730399Y-133846800D01*
X129705895Y-133845596D01*
X129681627Y-133841996D01*
X129657828Y-133836035D01*
X129634729Y-133827770D01*
X129612550Y-133817280D01*
X129591507Y-133804668D01*
X129571801Y-133790053D01*
X129553623Y-133773577D01*
X129537147Y-133755399D01*
X129522532Y-133735693D01*
X129509920Y-133714650D01*
X129499430Y-133692471D01*
X129491165Y-133669372D01*
X129485204Y-133645573D01*
X129481604Y-133621305D01*
X129480400Y-133596801D01*
X129480400Y-132696799D01*
X129481604Y-132672295D01*
X129485204Y-132648027D01*
X129491165Y-132624228D01*
X129499430Y-132601129D01*
X129509920Y-132578950D01*
X129522532Y-132557907D01*
X129537147Y-132538201D01*
X129553623Y-132520023D01*
X129571801Y-132503547D01*
X129591507Y-132488932D01*
X129612550Y-132476320D01*
X129634729Y-132465830D01*
X129657828Y-132457565D01*
X129681627Y-132451604D01*
X129705895Y-132448004D01*
X129730399Y-132446800D01*
X130380401Y-132446800D01*
X130404905Y-132448004D01*
X130404905Y-132448004D01*
G37*
D12*
X130055400Y-133146800D03*
D11*
G36*
X132454905Y-132448004D02*
G01*
X132479173Y-132451604D01*
X132502972Y-132457565D01*
X132526071Y-132465830D01*
X132548250Y-132476320D01*
X132569293Y-132488932D01*
X132588999Y-132503547D01*
X132607177Y-132520023D01*
X132623653Y-132538201D01*
X132638268Y-132557907D01*
X132650880Y-132578950D01*
X132661370Y-132601129D01*
X132669635Y-132624228D01*
X132675596Y-132648027D01*
X132679196Y-132672295D01*
X132680400Y-132696799D01*
X132680400Y-133596801D01*
X132679196Y-133621305D01*
X132675596Y-133645573D01*
X132669635Y-133669372D01*
X132661370Y-133692471D01*
X132650880Y-133714650D01*
X132638268Y-133735693D01*
X132623653Y-133755399D01*
X132607177Y-133773577D01*
X132588999Y-133790053D01*
X132569293Y-133804668D01*
X132548250Y-133817280D01*
X132526071Y-133827770D01*
X132502972Y-133836035D01*
X132479173Y-133841996D01*
X132454905Y-133845596D01*
X132430401Y-133846800D01*
X131780399Y-133846800D01*
X131755895Y-133845596D01*
X131731627Y-133841996D01*
X131707828Y-133836035D01*
X131684729Y-133827770D01*
X131662550Y-133817280D01*
X131641507Y-133804668D01*
X131621801Y-133790053D01*
X131603623Y-133773577D01*
X131587147Y-133755399D01*
X131572532Y-133735693D01*
X131559920Y-133714650D01*
X131549430Y-133692471D01*
X131541165Y-133669372D01*
X131535204Y-133645573D01*
X131531604Y-133621305D01*
X131530400Y-133596801D01*
X131530400Y-132696799D01*
X131531604Y-132672295D01*
X131535204Y-132648027D01*
X131541165Y-132624228D01*
X131549430Y-132601129D01*
X131559920Y-132578950D01*
X131572532Y-132557907D01*
X131587147Y-132538201D01*
X131603623Y-132520023D01*
X131621801Y-132503547D01*
X131641507Y-132488932D01*
X131662550Y-132476320D01*
X131684729Y-132465830D01*
X131707828Y-132457565D01*
X131731627Y-132451604D01*
X131755895Y-132448004D01*
X131780399Y-132446800D01*
X132430401Y-132446800D01*
X132454905Y-132448004D01*
X132454905Y-132448004D01*
G37*
D12*
X132105400Y-133146800D03*
D11*
G36*
X125241305Y-132422604D02*
G01*
X125265573Y-132426204D01*
X125289372Y-132432165D01*
X125312471Y-132440430D01*
X125334650Y-132450920D01*
X125355693Y-132463532D01*
X125375399Y-132478147D01*
X125393577Y-132494623D01*
X125410053Y-132512801D01*
X125424668Y-132532507D01*
X125437280Y-132553550D01*
X125447770Y-132575729D01*
X125456035Y-132598828D01*
X125461996Y-132622627D01*
X125465596Y-132646895D01*
X125466800Y-132671399D01*
X125466800Y-133571401D01*
X125465596Y-133595905D01*
X125461996Y-133620173D01*
X125456035Y-133643972D01*
X125447770Y-133667071D01*
X125437280Y-133689250D01*
X125424668Y-133710293D01*
X125410053Y-133729999D01*
X125393577Y-133748177D01*
X125375399Y-133764653D01*
X125355693Y-133779268D01*
X125334650Y-133791880D01*
X125312471Y-133802370D01*
X125289372Y-133810635D01*
X125265573Y-133816596D01*
X125241305Y-133820196D01*
X125216801Y-133821400D01*
X124566799Y-133821400D01*
X124542295Y-133820196D01*
X124518027Y-133816596D01*
X124494228Y-133810635D01*
X124471129Y-133802370D01*
X124448950Y-133791880D01*
X124427907Y-133779268D01*
X124408201Y-133764653D01*
X124390023Y-133748177D01*
X124373547Y-133729999D01*
X124358932Y-133710293D01*
X124346320Y-133689250D01*
X124335830Y-133667071D01*
X124327565Y-133643972D01*
X124321604Y-133620173D01*
X124318004Y-133595905D01*
X124316800Y-133571401D01*
X124316800Y-132671399D01*
X124318004Y-132646895D01*
X124321604Y-132622627D01*
X124327565Y-132598828D01*
X124335830Y-132575729D01*
X124346320Y-132553550D01*
X124358932Y-132532507D01*
X124373547Y-132512801D01*
X124390023Y-132494623D01*
X124408201Y-132478147D01*
X124427907Y-132463532D01*
X124448950Y-132450920D01*
X124471129Y-132440430D01*
X124494228Y-132432165D01*
X124518027Y-132426204D01*
X124542295Y-132422604D01*
X124566799Y-132421400D01*
X125216801Y-132421400D01*
X125241305Y-132422604D01*
X125241305Y-132422604D01*
G37*
D12*
X124891800Y-133121400D03*
D11*
G36*
X123191305Y-132422604D02*
G01*
X123215573Y-132426204D01*
X123239372Y-132432165D01*
X123262471Y-132440430D01*
X123284650Y-132450920D01*
X123305693Y-132463532D01*
X123325399Y-132478147D01*
X123343577Y-132494623D01*
X123360053Y-132512801D01*
X123374668Y-132532507D01*
X123387280Y-132553550D01*
X123397770Y-132575729D01*
X123406035Y-132598828D01*
X123411996Y-132622627D01*
X123415596Y-132646895D01*
X123416800Y-132671399D01*
X123416800Y-133571401D01*
X123415596Y-133595905D01*
X123411996Y-133620173D01*
X123406035Y-133643972D01*
X123397770Y-133667071D01*
X123387280Y-133689250D01*
X123374668Y-133710293D01*
X123360053Y-133729999D01*
X123343577Y-133748177D01*
X123325399Y-133764653D01*
X123305693Y-133779268D01*
X123284650Y-133791880D01*
X123262471Y-133802370D01*
X123239372Y-133810635D01*
X123215573Y-133816596D01*
X123191305Y-133820196D01*
X123166801Y-133821400D01*
X122516799Y-133821400D01*
X122492295Y-133820196D01*
X122468027Y-133816596D01*
X122444228Y-133810635D01*
X122421129Y-133802370D01*
X122398950Y-133791880D01*
X122377907Y-133779268D01*
X122358201Y-133764653D01*
X122340023Y-133748177D01*
X122323547Y-133729999D01*
X122308932Y-133710293D01*
X122296320Y-133689250D01*
X122285830Y-133667071D01*
X122277565Y-133643972D01*
X122271604Y-133620173D01*
X122268004Y-133595905D01*
X122266800Y-133571401D01*
X122266800Y-132671399D01*
X122268004Y-132646895D01*
X122271604Y-132622627D01*
X122277565Y-132598828D01*
X122285830Y-132575729D01*
X122296320Y-132553550D01*
X122308932Y-132532507D01*
X122323547Y-132512801D01*
X122340023Y-132494623D01*
X122358201Y-132478147D01*
X122377907Y-132463532D01*
X122398950Y-132450920D01*
X122421129Y-132440430D01*
X122444228Y-132432165D01*
X122468027Y-132426204D01*
X122492295Y-132422604D01*
X122516799Y-132421400D01*
X123166801Y-132421400D01*
X123191305Y-132422604D01*
X123191305Y-132422604D01*
G37*
D12*
X122841800Y-133121400D03*
D11*
G36*
X137405905Y-123064404D02*
G01*
X137430173Y-123068004D01*
X137453972Y-123073965D01*
X137477071Y-123082230D01*
X137499250Y-123092720D01*
X137520293Y-123105332D01*
X137539999Y-123119947D01*
X137558177Y-123136423D01*
X137574653Y-123154601D01*
X137589268Y-123174307D01*
X137601880Y-123195350D01*
X137612370Y-123217529D01*
X137620635Y-123240628D01*
X137626596Y-123264427D01*
X137630196Y-123288695D01*
X137631400Y-123313199D01*
X137631400Y-123963201D01*
X137630196Y-123987705D01*
X137626596Y-124011973D01*
X137620635Y-124035772D01*
X137612370Y-124058871D01*
X137601880Y-124081050D01*
X137589268Y-124102093D01*
X137574653Y-124121799D01*
X137558177Y-124139977D01*
X137539999Y-124156453D01*
X137520293Y-124171068D01*
X137499250Y-124183680D01*
X137477071Y-124194170D01*
X137453972Y-124202435D01*
X137430173Y-124208396D01*
X137405905Y-124211996D01*
X137381401Y-124213200D01*
X136481399Y-124213200D01*
X136456895Y-124211996D01*
X136432627Y-124208396D01*
X136408828Y-124202435D01*
X136385729Y-124194170D01*
X136363550Y-124183680D01*
X136342507Y-124171068D01*
X136322801Y-124156453D01*
X136304623Y-124139977D01*
X136288147Y-124121799D01*
X136273532Y-124102093D01*
X136260920Y-124081050D01*
X136250430Y-124058871D01*
X136242165Y-124035772D01*
X136236204Y-124011973D01*
X136232604Y-123987705D01*
X136231400Y-123963201D01*
X136231400Y-123313199D01*
X136232604Y-123288695D01*
X136236204Y-123264427D01*
X136242165Y-123240628D01*
X136250430Y-123217529D01*
X136260920Y-123195350D01*
X136273532Y-123174307D01*
X136288147Y-123154601D01*
X136304623Y-123136423D01*
X136322801Y-123119947D01*
X136342507Y-123105332D01*
X136363550Y-123092720D01*
X136385729Y-123082230D01*
X136408828Y-123073965D01*
X136432627Y-123068004D01*
X136456895Y-123064404D01*
X136481399Y-123063200D01*
X137381401Y-123063200D01*
X137405905Y-123064404D01*
X137405905Y-123064404D01*
G37*
D12*
X136931400Y-123638200D03*
D11*
G36*
X137405905Y-125114404D02*
G01*
X137430173Y-125118004D01*
X137453972Y-125123965D01*
X137477071Y-125132230D01*
X137499250Y-125142720D01*
X137520293Y-125155332D01*
X137539999Y-125169947D01*
X137558177Y-125186423D01*
X137574653Y-125204601D01*
X137589268Y-125224307D01*
X137601880Y-125245350D01*
X137612370Y-125267529D01*
X137620635Y-125290628D01*
X137626596Y-125314427D01*
X137630196Y-125338695D01*
X137631400Y-125363199D01*
X137631400Y-126013201D01*
X137630196Y-126037705D01*
X137626596Y-126061973D01*
X137620635Y-126085772D01*
X137612370Y-126108871D01*
X137601880Y-126131050D01*
X137589268Y-126152093D01*
X137574653Y-126171799D01*
X137558177Y-126189977D01*
X137539999Y-126206453D01*
X137520293Y-126221068D01*
X137499250Y-126233680D01*
X137477071Y-126244170D01*
X137453972Y-126252435D01*
X137430173Y-126258396D01*
X137405905Y-126261996D01*
X137381401Y-126263200D01*
X136481399Y-126263200D01*
X136456895Y-126261996D01*
X136432627Y-126258396D01*
X136408828Y-126252435D01*
X136385729Y-126244170D01*
X136363550Y-126233680D01*
X136342507Y-126221068D01*
X136322801Y-126206453D01*
X136304623Y-126189977D01*
X136288147Y-126171799D01*
X136273532Y-126152093D01*
X136260920Y-126131050D01*
X136250430Y-126108871D01*
X136242165Y-126085772D01*
X136236204Y-126061973D01*
X136232604Y-126037705D01*
X136231400Y-126013201D01*
X136231400Y-125363199D01*
X136232604Y-125338695D01*
X136236204Y-125314427D01*
X136242165Y-125290628D01*
X136250430Y-125267529D01*
X136260920Y-125245350D01*
X136273532Y-125224307D01*
X136288147Y-125204601D01*
X136304623Y-125186423D01*
X136322801Y-125169947D01*
X136342507Y-125155332D01*
X136363550Y-125142720D01*
X136385729Y-125132230D01*
X136408828Y-125123965D01*
X136432627Y-125118004D01*
X136456895Y-125114404D01*
X136481399Y-125113200D01*
X137381401Y-125113200D01*
X137405905Y-125114404D01*
X137405905Y-125114404D01*
G37*
D12*
X136931400Y-125688200D03*
D11*
G36*
X135170705Y-141989004D02*
G01*
X135194973Y-141992604D01*
X135218772Y-141998565D01*
X135241871Y-142006830D01*
X135264050Y-142017320D01*
X135285093Y-142029932D01*
X135304799Y-142044547D01*
X135322977Y-142061023D01*
X135339453Y-142079201D01*
X135354068Y-142098907D01*
X135366680Y-142119950D01*
X135377170Y-142142129D01*
X135385435Y-142165228D01*
X135391396Y-142189027D01*
X135394996Y-142213295D01*
X135396200Y-142237799D01*
X135396200Y-142887801D01*
X135394996Y-142912305D01*
X135391396Y-142936573D01*
X135385435Y-142960372D01*
X135377170Y-142983471D01*
X135366680Y-143005650D01*
X135354068Y-143026693D01*
X135339453Y-143046399D01*
X135322977Y-143064577D01*
X135304799Y-143081053D01*
X135285093Y-143095668D01*
X135264050Y-143108280D01*
X135241871Y-143118770D01*
X135218772Y-143127035D01*
X135194973Y-143132996D01*
X135170705Y-143136596D01*
X135146201Y-143137800D01*
X134246199Y-143137800D01*
X134221695Y-143136596D01*
X134197427Y-143132996D01*
X134173628Y-143127035D01*
X134150529Y-143118770D01*
X134128350Y-143108280D01*
X134107307Y-143095668D01*
X134087601Y-143081053D01*
X134069423Y-143064577D01*
X134052947Y-143046399D01*
X134038332Y-143026693D01*
X134025720Y-143005650D01*
X134015230Y-142983471D01*
X134006965Y-142960372D01*
X134001004Y-142936573D01*
X133997404Y-142912305D01*
X133996200Y-142887801D01*
X133996200Y-142237799D01*
X133997404Y-142213295D01*
X134001004Y-142189027D01*
X134006965Y-142165228D01*
X134015230Y-142142129D01*
X134025720Y-142119950D01*
X134038332Y-142098907D01*
X134052947Y-142079201D01*
X134069423Y-142061023D01*
X134087601Y-142044547D01*
X134107307Y-142029932D01*
X134128350Y-142017320D01*
X134150529Y-142006830D01*
X134173628Y-141998565D01*
X134197427Y-141992604D01*
X134221695Y-141989004D01*
X134246199Y-141987800D01*
X135146201Y-141987800D01*
X135170705Y-141989004D01*
X135170705Y-141989004D01*
G37*
D12*
X134696200Y-142562800D03*
D11*
G36*
X135170705Y-139939004D02*
G01*
X135194973Y-139942604D01*
X135218772Y-139948565D01*
X135241871Y-139956830D01*
X135264050Y-139967320D01*
X135285093Y-139979932D01*
X135304799Y-139994547D01*
X135322977Y-140011023D01*
X135339453Y-140029201D01*
X135354068Y-140048907D01*
X135366680Y-140069950D01*
X135377170Y-140092129D01*
X135385435Y-140115228D01*
X135391396Y-140139027D01*
X135394996Y-140163295D01*
X135396200Y-140187799D01*
X135396200Y-140837801D01*
X135394996Y-140862305D01*
X135391396Y-140886573D01*
X135385435Y-140910372D01*
X135377170Y-140933471D01*
X135366680Y-140955650D01*
X135354068Y-140976693D01*
X135339453Y-140996399D01*
X135322977Y-141014577D01*
X135304799Y-141031053D01*
X135285093Y-141045668D01*
X135264050Y-141058280D01*
X135241871Y-141068770D01*
X135218772Y-141077035D01*
X135194973Y-141082996D01*
X135170705Y-141086596D01*
X135146201Y-141087800D01*
X134246199Y-141087800D01*
X134221695Y-141086596D01*
X134197427Y-141082996D01*
X134173628Y-141077035D01*
X134150529Y-141068770D01*
X134128350Y-141058280D01*
X134107307Y-141045668D01*
X134087601Y-141031053D01*
X134069423Y-141014577D01*
X134052947Y-140996399D01*
X134038332Y-140976693D01*
X134025720Y-140955650D01*
X134015230Y-140933471D01*
X134006965Y-140910372D01*
X134001004Y-140886573D01*
X133997404Y-140862305D01*
X133996200Y-140837801D01*
X133996200Y-140187799D01*
X133997404Y-140163295D01*
X134001004Y-140139027D01*
X134006965Y-140115228D01*
X134015230Y-140092129D01*
X134025720Y-140069950D01*
X134038332Y-140048907D01*
X134052947Y-140029201D01*
X134069423Y-140011023D01*
X134087601Y-139994547D01*
X134107307Y-139979932D01*
X134128350Y-139967320D01*
X134150529Y-139956830D01*
X134173628Y-139948565D01*
X134197427Y-139942604D01*
X134221695Y-139939004D01*
X134246199Y-139937800D01*
X135146201Y-139937800D01*
X135170705Y-139939004D01*
X135170705Y-139939004D01*
G37*
D12*
X134696200Y-140512800D03*
D11*
G36*
X137634505Y-139955404D02*
G01*
X137658773Y-139959004D01*
X137682572Y-139964965D01*
X137705671Y-139973230D01*
X137727850Y-139983720D01*
X137748893Y-139996332D01*
X137768599Y-140010947D01*
X137786777Y-140027423D01*
X137803253Y-140045601D01*
X137817868Y-140065307D01*
X137830480Y-140086350D01*
X137840970Y-140108529D01*
X137849235Y-140131628D01*
X137855196Y-140155427D01*
X137858796Y-140179695D01*
X137860000Y-140204199D01*
X137860000Y-140854201D01*
X137858796Y-140878705D01*
X137855196Y-140902973D01*
X137849235Y-140926772D01*
X137840970Y-140949871D01*
X137830480Y-140972050D01*
X137817868Y-140993093D01*
X137803253Y-141012799D01*
X137786777Y-141030977D01*
X137768599Y-141047453D01*
X137748893Y-141062068D01*
X137727850Y-141074680D01*
X137705671Y-141085170D01*
X137682572Y-141093435D01*
X137658773Y-141099396D01*
X137634505Y-141102996D01*
X137610001Y-141104200D01*
X136709999Y-141104200D01*
X136685495Y-141102996D01*
X136661227Y-141099396D01*
X136637428Y-141093435D01*
X136614329Y-141085170D01*
X136592150Y-141074680D01*
X136571107Y-141062068D01*
X136551401Y-141047453D01*
X136533223Y-141030977D01*
X136516747Y-141012799D01*
X136502132Y-140993093D01*
X136489520Y-140972050D01*
X136479030Y-140949871D01*
X136470765Y-140926772D01*
X136464804Y-140902973D01*
X136461204Y-140878705D01*
X136460000Y-140854201D01*
X136460000Y-140204199D01*
X136461204Y-140179695D01*
X136464804Y-140155427D01*
X136470765Y-140131628D01*
X136479030Y-140108529D01*
X136489520Y-140086350D01*
X136502132Y-140065307D01*
X136516747Y-140045601D01*
X136533223Y-140027423D01*
X136551401Y-140010947D01*
X136571107Y-139996332D01*
X136592150Y-139983720D01*
X136614329Y-139973230D01*
X136637428Y-139964965D01*
X136661227Y-139959004D01*
X136685495Y-139955404D01*
X136709999Y-139954200D01*
X137610001Y-139954200D01*
X137634505Y-139955404D01*
X137634505Y-139955404D01*
G37*
D12*
X137160000Y-140529200D03*
D11*
G36*
X137634505Y-142005404D02*
G01*
X137658773Y-142009004D01*
X137682572Y-142014965D01*
X137705671Y-142023230D01*
X137727850Y-142033720D01*
X137748893Y-142046332D01*
X137768599Y-142060947D01*
X137786777Y-142077423D01*
X137803253Y-142095601D01*
X137817868Y-142115307D01*
X137830480Y-142136350D01*
X137840970Y-142158529D01*
X137849235Y-142181628D01*
X137855196Y-142205427D01*
X137858796Y-142229695D01*
X137860000Y-142254199D01*
X137860000Y-142904201D01*
X137858796Y-142928705D01*
X137855196Y-142952973D01*
X137849235Y-142976772D01*
X137840970Y-142999871D01*
X137830480Y-143022050D01*
X137817868Y-143043093D01*
X137803253Y-143062799D01*
X137786777Y-143080977D01*
X137768599Y-143097453D01*
X137748893Y-143112068D01*
X137727850Y-143124680D01*
X137705671Y-143135170D01*
X137682572Y-143143435D01*
X137658773Y-143149396D01*
X137634505Y-143152996D01*
X137610001Y-143154200D01*
X136709999Y-143154200D01*
X136685495Y-143152996D01*
X136661227Y-143149396D01*
X136637428Y-143143435D01*
X136614329Y-143135170D01*
X136592150Y-143124680D01*
X136571107Y-143112068D01*
X136551401Y-143097453D01*
X136533223Y-143080977D01*
X136516747Y-143062799D01*
X136502132Y-143043093D01*
X136489520Y-143022050D01*
X136479030Y-142999871D01*
X136470765Y-142976772D01*
X136464804Y-142952973D01*
X136461204Y-142928705D01*
X136460000Y-142904201D01*
X136460000Y-142254199D01*
X136461204Y-142229695D01*
X136464804Y-142205427D01*
X136470765Y-142181628D01*
X136479030Y-142158529D01*
X136489520Y-142136350D01*
X136502132Y-142115307D01*
X136516747Y-142095601D01*
X136533223Y-142077423D01*
X136551401Y-142060947D01*
X136571107Y-142046332D01*
X136592150Y-142033720D01*
X136614329Y-142023230D01*
X136637428Y-142014965D01*
X136661227Y-142009004D01*
X136685495Y-142005404D01*
X136709999Y-142004200D01*
X137610001Y-142004200D01*
X137634505Y-142005404D01*
X137634505Y-142005404D01*
G37*
D12*
X137160000Y-142579200D03*
M02*
