G04 #@! TF.GenerationSoftware,KiCad,Pcbnew,5.1.2-f72e74a~84~ubuntu18.04.1*
G04 #@! TF.CreationDate,2019-07-06T11:59:09+02:00*
G04 #@! TF.ProjectId,loponode,6c6f706f-6e6f-4646-952e-6b696361645f,rev?*
G04 #@! TF.SameCoordinates,Original*
G04 #@! TF.FileFunction,Soldermask,Bot*
G04 #@! TF.FilePolarity,Negative*
%FSLAX46Y46*%
G04 Gerber Fmt 4.6, Leading zero omitted, Abs format (unit mm)*
G04 Created by KiCad (PCBNEW 5.1.2-f72e74a~84~ubuntu18.04.1) date 2019-07-06 11:59:09*
%MOMM*%
%LPD*%
G04 APERTURE LIST*
%ADD10C,0.100000*%
G04 APERTURE END LIST*
D10*
G36*
X122821000Y-145681000D02*
G01*
X121019000Y-145681000D01*
X121019000Y-143879000D01*
X122821000Y-143879000D01*
X122821000Y-145681000D01*
X122821000Y-145681000D01*
G37*
G36*
X152510443Y-143885519D02*
G01*
X152576627Y-143892037D01*
X152746466Y-143943557D01*
X152902991Y-144027222D01*
X152938729Y-144056552D01*
X153040186Y-144139814D01*
X153123448Y-144241271D01*
X153152778Y-144277009D01*
X153236443Y-144433534D01*
X153287963Y-144603373D01*
X153305359Y-144780000D01*
X153287963Y-144956627D01*
X153236443Y-145126466D01*
X153152778Y-145282991D01*
X153140251Y-145298255D01*
X153040186Y-145420186D01*
X152942357Y-145500471D01*
X152902991Y-145532778D01*
X152746466Y-145616443D01*
X152576627Y-145667963D01*
X152510443Y-145674481D01*
X152444260Y-145681000D01*
X152355740Y-145681000D01*
X152289557Y-145674481D01*
X152223373Y-145667963D01*
X152053534Y-145616443D01*
X151897009Y-145532778D01*
X151857643Y-145500471D01*
X151759814Y-145420186D01*
X151659749Y-145298255D01*
X151647222Y-145282991D01*
X151563557Y-145126466D01*
X151512037Y-144956627D01*
X151494641Y-144780000D01*
X151512037Y-144603373D01*
X151563557Y-144433534D01*
X151647222Y-144277009D01*
X151676552Y-144241271D01*
X151759814Y-144139814D01*
X151861271Y-144056552D01*
X151897009Y-144027222D01*
X152053534Y-143943557D01*
X152223373Y-143892037D01*
X152289557Y-143885519D01*
X152355740Y-143879000D01*
X152444260Y-143879000D01*
X152510443Y-143885519D01*
X152510443Y-143885519D01*
G37*
G36*
X155050443Y-143885519D02*
G01*
X155116627Y-143892037D01*
X155286466Y-143943557D01*
X155442991Y-144027222D01*
X155478729Y-144056552D01*
X155580186Y-144139814D01*
X155663448Y-144241271D01*
X155692778Y-144277009D01*
X155776443Y-144433534D01*
X155827963Y-144603373D01*
X155845359Y-144780000D01*
X155827963Y-144956627D01*
X155776443Y-145126466D01*
X155692778Y-145282991D01*
X155680251Y-145298255D01*
X155580186Y-145420186D01*
X155482357Y-145500471D01*
X155442991Y-145532778D01*
X155286466Y-145616443D01*
X155116627Y-145667963D01*
X155050443Y-145674481D01*
X154984260Y-145681000D01*
X154895740Y-145681000D01*
X154829557Y-145674481D01*
X154763373Y-145667963D01*
X154593534Y-145616443D01*
X154437009Y-145532778D01*
X154397643Y-145500471D01*
X154299814Y-145420186D01*
X154199749Y-145298255D01*
X154187222Y-145282991D01*
X154103557Y-145126466D01*
X154052037Y-144956627D01*
X154034641Y-144780000D01*
X154052037Y-144603373D01*
X154103557Y-144433534D01*
X154187222Y-144277009D01*
X154216552Y-144241271D01*
X154299814Y-144139814D01*
X154401271Y-144056552D01*
X154437009Y-144027222D01*
X154593534Y-143943557D01*
X154763373Y-143892037D01*
X154829557Y-143885519D01*
X154895740Y-143879000D01*
X154984260Y-143879000D01*
X155050443Y-143885519D01*
X155050443Y-143885519D01*
G37*
G36*
X149970443Y-143885519D02*
G01*
X150036627Y-143892037D01*
X150206466Y-143943557D01*
X150362991Y-144027222D01*
X150398729Y-144056552D01*
X150500186Y-144139814D01*
X150583448Y-144241271D01*
X150612778Y-144277009D01*
X150696443Y-144433534D01*
X150747963Y-144603373D01*
X150765359Y-144780000D01*
X150747963Y-144956627D01*
X150696443Y-145126466D01*
X150612778Y-145282991D01*
X150600251Y-145298255D01*
X150500186Y-145420186D01*
X150402357Y-145500471D01*
X150362991Y-145532778D01*
X150206466Y-145616443D01*
X150036627Y-145667963D01*
X149970443Y-145674481D01*
X149904260Y-145681000D01*
X149815740Y-145681000D01*
X149749557Y-145674481D01*
X149683373Y-145667963D01*
X149513534Y-145616443D01*
X149357009Y-145532778D01*
X149317643Y-145500471D01*
X149219814Y-145420186D01*
X149119749Y-145298255D01*
X149107222Y-145282991D01*
X149023557Y-145126466D01*
X148972037Y-144956627D01*
X148954641Y-144780000D01*
X148972037Y-144603373D01*
X149023557Y-144433534D01*
X149107222Y-144277009D01*
X149136552Y-144241271D01*
X149219814Y-144139814D01*
X149321271Y-144056552D01*
X149357009Y-144027222D01*
X149513534Y-143943557D01*
X149683373Y-143892037D01*
X149749557Y-143885519D01*
X149815740Y-143879000D01*
X149904260Y-143879000D01*
X149970443Y-143885519D01*
X149970443Y-143885519D01*
G37*
G36*
X147430443Y-143885519D02*
G01*
X147496627Y-143892037D01*
X147666466Y-143943557D01*
X147822991Y-144027222D01*
X147858729Y-144056552D01*
X147960186Y-144139814D01*
X148043448Y-144241271D01*
X148072778Y-144277009D01*
X148156443Y-144433534D01*
X148207963Y-144603373D01*
X148225359Y-144780000D01*
X148207963Y-144956627D01*
X148156443Y-145126466D01*
X148072778Y-145282991D01*
X148060251Y-145298255D01*
X147960186Y-145420186D01*
X147862357Y-145500471D01*
X147822991Y-145532778D01*
X147666466Y-145616443D01*
X147496627Y-145667963D01*
X147430443Y-145674481D01*
X147364260Y-145681000D01*
X147275740Y-145681000D01*
X147209557Y-145674481D01*
X147143373Y-145667963D01*
X146973534Y-145616443D01*
X146817009Y-145532778D01*
X146777643Y-145500471D01*
X146679814Y-145420186D01*
X146579749Y-145298255D01*
X146567222Y-145282991D01*
X146483557Y-145126466D01*
X146432037Y-144956627D01*
X146414641Y-144780000D01*
X146432037Y-144603373D01*
X146483557Y-144433534D01*
X146567222Y-144277009D01*
X146596552Y-144241271D01*
X146679814Y-144139814D01*
X146781271Y-144056552D01*
X146817009Y-144027222D01*
X146973534Y-143943557D01*
X147143373Y-143892037D01*
X147209557Y-143885519D01*
X147275740Y-143879000D01*
X147364260Y-143879000D01*
X147430443Y-143885519D01*
X147430443Y-143885519D01*
G37*
G36*
X144890443Y-143885519D02*
G01*
X144956627Y-143892037D01*
X145126466Y-143943557D01*
X145282991Y-144027222D01*
X145318729Y-144056552D01*
X145420186Y-144139814D01*
X145503448Y-144241271D01*
X145532778Y-144277009D01*
X145616443Y-144433534D01*
X145667963Y-144603373D01*
X145685359Y-144780000D01*
X145667963Y-144956627D01*
X145616443Y-145126466D01*
X145532778Y-145282991D01*
X145520251Y-145298255D01*
X145420186Y-145420186D01*
X145322357Y-145500471D01*
X145282991Y-145532778D01*
X145126466Y-145616443D01*
X144956627Y-145667963D01*
X144890443Y-145674481D01*
X144824260Y-145681000D01*
X144735740Y-145681000D01*
X144669557Y-145674481D01*
X144603373Y-145667963D01*
X144433534Y-145616443D01*
X144277009Y-145532778D01*
X144237643Y-145500471D01*
X144139814Y-145420186D01*
X144039749Y-145298255D01*
X144027222Y-145282991D01*
X143943557Y-145126466D01*
X143892037Y-144956627D01*
X143874641Y-144780000D01*
X143892037Y-144603373D01*
X143943557Y-144433534D01*
X144027222Y-144277009D01*
X144056552Y-144241271D01*
X144139814Y-144139814D01*
X144241271Y-144056552D01*
X144277009Y-144027222D01*
X144433534Y-143943557D01*
X144603373Y-143892037D01*
X144669557Y-143885519D01*
X144735740Y-143879000D01*
X144824260Y-143879000D01*
X144890443Y-143885519D01*
X144890443Y-143885519D01*
G37*
G36*
X142350443Y-143885519D02*
G01*
X142416627Y-143892037D01*
X142586466Y-143943557D01*
X142742991Y-144027222D01*
X142778729Y-144056552D01*
X142880186Y-144139814D01*
X142963448Y-144241271D01*
X142992778Y-144277009D01*
X143076443Y-144433534D01*
X143127963Y-144603373D01*
X143145359Y-144780000D01*
X143127963Y-144956627D01*
X143076443Y-145126466D01*
X142992778Y-145282991D01*
X142980251Y-145298255D01*
X142880186Y-145420186D01*
X142782357Y-145500471D01*
X142742991Y-145532778D01*
X142586466Y-145616443D01*
X142416627Y-145667963D01*
X142350443Y-145674481D01*
X142284260Y-145681000D01*
X142195740Y-145681000D01*
X142129557Y-145674481D01*
X142063373Y-145667963D01*
X141893534Y-145616443D01*
X141737009Y-145532778D01*
X141697643Y-145500471D01*
X141599814Y-145420186D01*
X141499749Y-145298255D01*
X141487222Y-145282991D01*
X141403557Y-145126466D01*
X141352037Y-144956627D01*
X141334641Y-144780000D01*
X141352037Y-144603373D01*
X141403557Y-144433534D01*
X141487222Y-144277009D01*
X141516552Y-144241271D01*
X141599814Y-144139814D01*
X141701271Y-144056552D01*
X141737009Y-144027222D01*
X141893534Y-143943557D01*
X142063373Y-143892037D01*
X142129557Y-143885519D01*
X142195740Y-143879000D01*
X142284260Y-143879000D01*
X142350443Y-143885519D01*
X142350443Y-143885519D01*
G37*
G36*
X139810443Y-143885519D02*
G01*
X139876627Y-143892037D01*
X140046466Y-143943557D01*
X140202991Y-144027222D01*
X140238729Y-144056552D01*
X140340186Y-144139814D01*
X140423448Y-144241271D01*
X140452778Y-144277009D01*
X140536443Y-144433534D01*
X140587963Y-144603373D01*
X140605359Y-144780000D01*
X140587963Y-144956627D01*
X140536443Y-145126466D01*
X140452778Y-145282991D01*
X140440251Y-145298255D01*
X140340186Y-145420186D01*
X140242357Y-145500471D01*
X140202991Y-145532778D01*
X140046466Y-145616443D01*
X139876627Y-145667963D01*
X139810443Y-145674481D01*
X139744260Y-145681000D01*
X139655740Y-145681000D01*
X139589557Y-145674481D01*
X139523373Y-145667963D01*
X139353534Y-145616443D01*
X139197009Y-145532778D01*
X139157643Y-145500471D01*
X139059814Y-145420186D01*
X138959749Y-145298255D01*
X138947222Y-145282991D01*
X138863557Y-145126466D01*
X138812037Y-144956627D01*
X138794641Y-144780000D01*
X138812037Y-144603373D01*
X138863557Y-144433534D01*
X138947222Y-144277009D01*
X138976552Y-144241271D01*
X139059814Y-144139814D01*
X139161271Y-144056552D01*
X139197009Y-144027222D01*
X139353534Y-143943557D01*
X139523373Y-143892037D01*
X139589557Y-143885519D01*
X139655740Y-143879000D01*
X139744260Y-143879000D01*
X139810443Y-143885519D01*
X139810443Y-143885519D01*
G37*
G36*
X134730443Y-143885519D02*
G01*
X134796627Y-143892037D01*
X134966466Y-143943557D01*
X135122991Y-144027222D01*
X135158729Y-144056552D01*
X135260186Y-144139814D01*
X135343448Y-144241271D01*
X135372778Y-144277009D01*
X135456443Y-144433534D01*
X135507963Y-144603373D01*
X135525359Y-144780000D01*
X135507963Y-144956627D01*
X135456443Y-145126466D01*
X135372778Y-145282991D01*
X135360251Y-145298255D01*
X135260186Y-145420186D01*
X135162357Y-145500471D01*
X135122991Y-145532778D01*
X134966466Y-145616443D01*
X134796627Y-145667963D01*
X134730443Y-145674481D01*
X134664260Y-145681000D01*
X134575740Y-145681000D01*
X134509557Y-145674481D01*
X134443373Y-145667963D01*
X134273534Y-145616443D01*
X134117009Y-145532778D01*
X134077643Y-145500471D01*
X133979814Y-145420186D01*
X133879749Y-145298255D01*
X133867222Y-145282991D01*
X133783557Y-145126466D01*
X133732037Y-144956627D01*
X133714641Y-144780000D01*
X133732037Y-144603373D01*
X133783557Y-144433534D01*
X133867222Y-144277009D01*
X133896552Y-144241271D01*
X133979814Y-144139814D01*
X134081271Y-144056552D01*
X134117009Y-144027222D01*
X134273534Y-143943557D01*
X134443373Y-143892037D01*
X134509557Y-143885519D01*
X134575740Y-143879000D01*
X134664260Y-143879000D01*
X134730443Y-143885519D01*
X134730443Y-143885519D01*
G37*
G36*
X132190443Y-143885519D02*
G01*
X132256627Y-143892037D01*
X132426466Y-143943557D01*
X132582991Y-144027222D01*
X132618729Y-144056552D01*
X132720186Y-144139814D01*
X132803448Y-144241271D01*
X132832778Y-144277009D01*
X132916443Y-144433534D01*
X132967963Y-144603373D01*
X132985359Y-144780000D01*
X132967963Y-144956627D01*
X132916443Y-145126466D01*
X132832778Y-145282991D01*
X132820251Y-145298255D01*
X132720186Y-145420186D01*
X132622357Y-145500471D01*
X132582991Y-145532778D01*
X132426466Y-145616443D01*
X132256627Y-145667963D01*
X132190443Y-145674481D01*
X132124260Y-145681000D01*
X132035740Y-145681000D01*
X131969557Y-145674481D01*
X131903373Y-145667963D01*
X131733534Y-145616443D01*
X131577009Y-145532778D01*
X131537643Y-145500471D01*
X131439814Y-145420186D01*
X131339749Y-145298255D01*
X131327222Y-145282991D01*
X131243557Y-145126466D01*
X131192037Y-144956627D01*
X131174641Y-144780000D01*
X131192037Y-144603373D01*
X131243557Y-144433534D01*
X131327222Y-144277009D01*
X131356552Y-144241271D01*
X131439814Y-144139814D01*
X131541271Y-144056552D01*
X131577009Y-144027222D01*
X131733534Y-143943557D01*
X131903373Y-143892037D01*
X131969557Y-143885519D01*
X132035740Y-143879000D01*
X132124260Y-143879000D01*
X132190443Y-143885519D01*
X132190443Y-143885519D01*
G37*
G36*
X129650443Y-143885519D02*
G01*
X129716627Y-143892037D01*
X129886466Y-143943557D01*
X130042991Y-144027222D01*
X130078729Y-144056552D01*
X130180186Y-144139814D01*
X130263448Y-144241271D01*
X130292778Y-144277009D01*
X130376443Y-144433534D01*
X130427963Y-144603373D01*
X130445359Y-144780000D01*
X130427963Y-144956627D01*
X130376443Y-145126466D01*
X130292778Y-145282991D01*
X130280251Y-145298255D01*
X130180186Y-145420186D01*
X130082357Y-145500471D01*
X130042991Y-145532778D01*
X129886466Y-145616443D01*
X129716627Y-145667963D01*
X129650443Y-145674481D01*
X129584260Y-145681000D01*
X129495740Y-145681000D01*
X129429557Y-145674481D01*
X129363373Y-145667963D01*
X129193534Y-145616443D01*
X129037009Y-145532778D01*
X128997643Y-145500471D01*
X128899814Y-145420186D01*
X128799749Y-145298255D01*
X128787222Y-145282991D01*
X128703557Y-145126466D01*
X128652037Y-144956627D01*
X128634641Y-144780000D01*
X128652037Y-144603373D01*
X128703557Y-144433534D01*
X128787222Y-144277009D01*
X128816552Y-144241271D01*
X128899814Y-144139814D01*
X129001271Y-144056552D01*
X129037009Y-144027222D01*
X129193534Y-143943557D01*
X129363373Y-143892037D01*
X129429557Y-143885519D01*
X129495740Y-143879000D01*
X129584260Y-143879000D01*
X129650443Y-143885519D01*
X129650443Y-143885519D01*
G37*
G36*
X127110443Y-143885519D02*
G01*
X127176627Y-143892037D01*
X127346466Y-143943557D01*
X127502991Y-144027222D01*
X127538729Y-144056552D01*
X127640186Y-144139814D01*
X127723448Y-144241271D01*
X127752778Y-144277009D01*
X127836443Y-144433534D01*
X127887963Y-144603373D01*
X127905359Y-144780000D01*
X127887963Y-144956627D01*
X127836443Y-145126466D01*
X127752778Y-145282991D01*
X127740251Y-145298255D01*
X127640186Y-145420186D01*
X127542357Y-145500471D01*
X127502991Y-145532778D01*
X127346466Y-145616443D01*
X127176627Y-145667963D01*
X127110443Y-145674481D01*
X127044260Y-145681000D01*
X126955740Y-145681000D01*
X126889557Y-145674481D01*
X126823373Y-145667963D01*
X126653534Y-145616443D01*
X126497009Y-145532778D01*
X126457643Y-145500471D01*
X126359814Y-145420186D01*
X126259749Y-145298255D01*
X126247222Y-145282991D01*
X126163557Y-145126466D01*
X126112037Y-144956627D01*
X126094641Y-144780000D01*
X126112037Y-144603373D01*
X126163557Y-144433534D01*
X126247222Y-144277009D01*
X126276552Y-144241271D01*
X126359814Y-144139814D01*
X126461271Y-144056552D01*
X126497009Y-144027222D01*
X126653534Y-143943557D01*
X126823373Y-143892037D01*
X126889557Y-143885519D01*
X126955740Y-143879000D01*
X127044260Y-143879000D01*
X127110443Y-143885519D01*
X127110443Y-143885519D01*
G37*
G36*
X124570443Y-143885519D02*
G01*
X124636627Y-143892037D01*
X124806466Y-143943557D01*
X124962991Y-144027222D01*
X124998729Y-144056552D01*
X125100186Y-144139814D01*
X125183448Y-144241271D01*
X125212778Y-144277009D01*
X125296443Y-144433534D01*
X125347963Y-144603373D01*
X125365359Y-144780000D01*
X125347963Y-144956627D01*
X125296443Y-145126466D01*
X125212778Y-145282991D01*
X125200251Y-145298255D01*
X125100186Y-145420186D01*
X125002357Y-145500471D01*
X124962991Y-145532778D01*
X124806466Y-145616443D01*
X124636627Y-145667963D01*
X124570443Y-145674481D01*
X124504260Y-145681000D01*
X124415740Y-145681000D01*
X124349557Y-145674481D01*
X124283373Y-145667963D01*
X124113534Y-145616443D01*
X123957009Y-145532778D01*
X123917643Y-145500471D01*
X123819814Y-145420186D01*
X123719749Y-145298255D01*
X123707222Y-145282991D01*
X123623557Y-145126466D01*
X123572037Y-144956627D01*
X123554641Y-144780000D01*
X123572037Y-144603373D01*
X123623557Y-144433534D01*
X123707222Y-144277009D01*
X123736552Y-144241271D01*
X123819814Y-144139814D01*
X123921271Y-144056552D01*
X123957009Y-144027222D01*
X124113534Y-143943557D01*
X124283373Y-143892037D01*
X124349557Y-143885519D01*
X124415740Y-143879000D01*
X124504260Y-143879000D01*
X124570443Y-143885519D01*
X124570443Y-143885519D01*
G37*
G36*
X137270443Y-143885519D02*
G01*
X137336627Y-143892037D01*
X137506466Y-143943557D01*
X137662991Y-144027222D01*
X137698729Y-144056552D01*
X137800186Y-144139814D01*
X137883448Y-144241271D01*
X137912778Y-144277009D01*
X137996443Y-144433534D01*
X138047963Y-144603373D01*
X138065359Y-144780000D01*
X138047963Y-144956627D01*
X137996443Y-145126466D01*
X137912778Y-145282991D01*
X137900251Y-145298255D01*
X137800186Y-145420186D01*
X137702357Y-145500471D01*
X137662991Y-145532778D01*
X137506466Y-145616443D01*
X137336627Y-145667963D01*
X137270443Y-145674481D01*
X137204260Y-145681000D01*
X137115740Y-145681000D01*
X137049557Y-145674481D01*
X136983373Y-145667963D01*
X136813534Y-145616443D01*
X136657009Y-145532778D01*
X136617643Y-145500471D01*
X136519814Y-145420186D01*
X136419749Y-145298255D01*
X136407222Y-145282991D01*
X136323557Y-145126466D01*
X136272037Y-144956627D01*
X136254641Y-144780000D01*
X136272037Y-144603373D01*
X136323557Y-144433534D01*
X136407222Y-144277009D01*
X136436552Y-144241271D01*
X136519814Y-144139814D01*
X136621271Y-144056552D01*
X136657009Y-144027222D01*
X136813534Y-143943557D01*
X136983373Y-143892037D01*
X137049557Y-143885519D01*
X137115740Y-143879000D01*
X137204260Y-143879000D01*
X137270443Y-143885519D01*
X137270443Y-143885519D01*
G37*
G36*
X114537142Y-143998242D02*
G01*
X114685101Y-144059529D01*
X114818255Y-144148499D01*
X114931501Y-144261745D01*
X115020471Y-144394899D01*
X115081758Y-144542858D01*
X115113000Y-144699925D01*
X115113000Y-144860075D01*
X115081758Y-145017142D01*
X115020471Y-145165101D01*
X114931501Y-145298255D01*
X114818255Y-145411501D01*
X114685101Y-145500471D01*
X114537142Y-145561758D01*
X114380075Y-145593000D01*
X114219925Y-145593000D01*
X114062858Y-145561758D01*
X113914899Y-145500471D01*
X113781745Y-145411501D01*
X113668499Y-145298255D01*
X113579529Y-145165101D01*
X113518242Y-145017142D01*
X113487000Y-144860075D01*
X113487000Y-144699925D01*
X113518242Y-144542858D01*
X113579529Y-144394899D01*
X113668499Y-144261745D01*
X113781745Y-144148499D01*
X113914899Y-144059529D01*
X114062858Y-143998242D01*
X114219925Y-143967000D01*
X114380075Y-143967000D01*
X114537142Y-143998242D01*
X114537142Y-143998242D01*
G37*
G36*
X117653000Y-145593000D02*
G01*
X116027000Y-145593000D01*
X116027000Y-143967000D01*
X117653000Y-143967000D01*
X117653000Y-145593000D01*
X117653000Y-145593000D01*
G37*
G36*
X137748674Y-141957665D02*
G01*
X137786367Y-141969099D01*
X137821103Y-141987666D01*
X137851548Y-142012652D01*
X137876534Y-142043097D01*
X137895101Y-142077833D01*
X137906535Y-142115526D01*
X137911000Y-142160861D01*
X137911000Y-142997539D01*
X137906535Y-143042874D01*
X137895101Y-143080567D01*
X137876534Y-143115303D01*
X137851548Y-143145748D01*
X137821103Y-143170734D01*
X137786367Y-143189301D01*
X137748674Y-143200735D01*
X137703339Y-143205200D01*
X136616661Y-143205200D01*
X136571326Y-143200735D01*
X136533633Y-143189301D01*
X136498897Y-143170734D01*
X136468452Y-143145748D01*
X136443466Y-143115303D01*
X136424899Y-143080567D01*
X136413465Y-143042874D01*
X136409000Y-142997539D01*
X136409000Y-142160861D01*
X136413465Y-142115526D01*
X136424899Y-142077833D01*
X136443466Y-142043097D01*
X136468452Y-142012652D01*
X136498897Y-141987666D01*
X136533633Y-141969099D01*
X136571326Y-141957665D01*
X136616661Y-141953200D01*
X137703339Y-141953200D01*
X137748674Y-141957665D01*
X137748674Y-141957665D01*
G37*
G36*
X135284874Y-141941265D02*
G01*
X135322567Y-141952699D01*
X135357303Y-141971266D01*
X135387748Y-141996252D01*
X135412734Y-142026697D01*
X135431301Y-142061433D01*
X135442735Y-142099126D01*
X135447200Y-142144461D01*
X135447200Y-142981139D01*
X135442735Y-143026474D01*
X135431301Y-143064167D01*
X135412734Y-143098903D01*
X135387748Y-143129348D01*
X135357303Y-143154334D01*
X135322567Y-143172901D01*
X135284874Y-143184335D01*
X135239539Y-143188800D01*
X134152861Y-143188800D01*
X134107526Y-143184335D01*
X134069833Y-143172901D01*
X134035097Y-143154334D01*
X134004652Y-143129348D01*
X133979666Y-143098903D01*
X133961099Y-143064167D01*
X133949665Y-143026474D01*
X133945200Y-142981139D01*
X133945200Y-142144461D01*
X133949665Y-142099126D01*
X133961099Y-142061433D01*
X133979666Y-142026697D01*
X134004652Y-141996252D01*
X134035097Y-141971266D01*
X134069833Y-141952699D01*
X134107526Y-141941265D01*
X134152861Y-141936800D01*
X135239539Y-141936800D01*
X135284874Y-141941265D01*
X135284874Y-141941265D01*
G37*
G36*
X144962274Y-141897865D02*
G01*
X144999967Y-141909299D01*
X145034703Y-141927866D01*
X145065148Y-141952852D01*
X145090134Y-141983297D01*
X145108701Y-142018033D01*
X145120135Y-142055726D01*
X145124600Y-142101061D01*
X145124600Y-142937739D01*
X145120135Y-142983074D01*
X145108701Y-143020767D01*
X145090134Y-143055503D01*
X145065148Y-143085948D01*
X145034703Y-143110934D01*
X144999967Y-143129501D01*
X144962274Y-143140935D01*
X144916939Y-143145400D01*
X143830261Y-143145400D01*
X143784926Y-143140935D01*
X143747233Y-143129501D01*
X143712497Y-143110934D01*
X143682052Y-143085948D01*
X143657066Y-143055503D01*
X143638499Y-143020767D01*
X143627065Y-142983074D01*
X143622600Y-142937739D01*
X143622600Y-142101061D01*
X143627065Y-142055726D01*
X143638499Y-142018033D01*
X143657066Y-141983297D01*
X143682052Y-141952852D01*
X143712497Y-141927866D01*
X143747233Y-141909299D01*
X143784926Y-141897865D01*
X143830261Y-141893400D01*
X144916939Y-141893400D01*
X144962274Y-141897865D01*
X144962274Y-141897865D01*
G37*
G36*
X147400674Y-141890465D02*
G01*
X147438367Y-141901899D01*
X147473103Y-141920466D01*
X147503548Y-141945452D01*
X147528534Y-141975897D01*
X147547101Y-142010633D01*
X147558535Y-142048326D01*
X147563000Y-142093661D01*
X147563000Y-142930339D01*
X147558535Y-142975674D01*
X147547101Y-143013367D01*
X147528534Y-143048103D01*
X147503548Y-143078548D01*
X147473103Y-143103534D01*
X147438367Y-143122101D01*
X147400674Y-143133535D01*
X147355339Y-143138000D01*
X146268661Y-143138000D01*
X146223326Y-143133535D01*
X146185633Y-143122101D01*
X146150897Y-143103534D01*
X146120452Y-143078548D01*
X146095466Y-143048103D01*
X146076899Y-143013367D01*
X146065465Y-142975674D01*
X146061000Y-142930339D01*
X146061000Y-142093661D01*
X146065465Y-142048326D01*
X146076899Y-142010633D01*
X146095466Y-141975897D01*
X146120452Y-141945452D01*
X146150897Y-141920466D01*
X146185633Y-141901899D01*
X146223326Y-141890465D01*
X146268661Y-141886000D01*
X147355339Y-141886000D01*
X147400674Y-141890465D01*
X147400674Y-141890465D01*
G37*
G36*
X117077142Y-141458242D02*
G01*
X117225101Y-141519529D01*
X117358255Y-141608499D01*
X117471501Y-141721745D01*
X117560471Y-141854899D01*
X117621758Y-142002858D01*
X117653000Y-142159925D01*
X117653000Y-142320075D01*
X117621758Y-142477142D01*
X117560471Y-142625101D01*
X117471501Y-142758255D01*
X117358255Y-142871501D01*
X117225101Y-142960471D01*
X117077142Y-143021758D01*
X116920075Y-143053000D01*
X116759925Y-143053000D01*
X116602858Y-143021758D01*
X116454899Y-142960471D01*
X116321745Y-142871501D01*
X116208499Y-142758255D01*
X116119529Y-142625101D01*
X116058242Y-142477142D01*
X116027000Y-142320075D01*
X116027000Y-142159925D01*
X116058242Y-142002858D01*
X116119529Y-141854899D01*
X116208499Y-141721745D01*
X116321745Y-141608499D01*
X116454899Y-141519529D01*
X116602858Y-141458242D01*
X116759925Y-141427000D01*
X116920075Y-141427000D01*
X117077142Y-141458242D01*
X117077142Y-141458242D01*
G37*
G36*
X114537142Y-141458242D02*
G01*
X114685101Y-141519529D01*
X114818255Y-141608499D01*
X114931501Y-141721745D01*
X115020471Y-141854899D01*
X115081758Y-142002858D01*
X115113000Y-142159925D01*
X115113000Y-142320075D01*
X115081758Y-142477142D01*
X115020471Y-142625101D01*
X114931501Y-142758255D01*
X114818255Y-142871501D01*
X114685101Y-142960471D01*
X114537142Y-143021758D01*
X114380075Y-143053000D01*
X114219925Y-143053000D01*
X114062858Y-143021758D01*
X113914899Y-142960471D01*
X113781745Y-142871501D01*
X113668499Y-142758255D01*
X113579529Y-142625101D01*
X113518242Y-142477142D01*
X113487000Y-142320075D01*
X113487000Y-142159925D01*
X113518242Y-142002858D01*
X113579529Y-141854899D01*
X113668499Y-141721745D01*
X113781745Y-141608499D01*
X113914899Y-141519529D01*
X114062858Y-141458242D01*
X114219925Y-141427000D01*
X114380075Y-141427000D01*
X114537142Y-141458242D01*
X114537142Y-141458242D01*
G37*
G36*
X137748674Y-139907665D02*
G01*
X137786367Y-139919099D01*
X137821103Y-139937666D01*
X137851548Y-139962652D01*
X137876534Y-139993097D01*
X137895101Y-140027833D01*
X137906535Y-140065526D01*
X137911000Y-140110861D01*
X137911000Y-140947539D01*
X137906535Y-140992874D01*
X137895101Y-141030567D01*
X137876534Y-141065303D01*
X137851548Y-141095748D01*
X137821103Y-141120734D01*
X137786367Y-141139301D01*
X137748674Y-141150735D01*
X137703339Y-141155200D01*
X136616661Y-141155200D01*
X136571326Y-141150735D01*
X136533633Y-141139301D01*
X136498897Y-141120734D01*
X136468452Y-141095748D01*
X136443466Y-141065303D01*
X136424899Y-141030567D01*
X136413465Y-140992874D01*
X136409000Y-140947539D01*
X136409000Y-140110861D01*
X136413465Y-140065526D01*
X136424899Y-140027833D01*
X136443466Y-139993097D01*
X136468452Y-139962652D01*
X136498897Y-139937666D01*
X136533633Y-139919099D01*
X136571326Y-139907665D01*
X136616661Y-139903200D01*
X137703339Y-139903200D01*
X137748674Y-139907665D01*
X137748674Y-139907665D01*
G37*
G36*
X135284874Y-139891265D02*
G01*
X135322567Y-139902699D01*
X135357303Y-139921266D01*
X135387748Y-139946252D01*
X135412734Y-139976697D01*
X135431301Y-140011433D01*
X135442735Y-140049126D01*
X135447200Y-140094461D01*
X135447200Y-140931139D01*
X135442735Y-140976474D01*
X135431301Y-141014167D01*
X135412734Y-141048903D01*
X135387748Y-141079348D01*
X135357303Y-141104334D01*
X135322567Y-141122901D01*
X135284874Y-141134335D01*
X135239539Y-141138800D01*
X134152861Y-141138800D01*
X134107526Y-141134335D01*
X134069833Y-141122901D01*
X134035097Y-141104334D01*
X134004652Y-141079348D01*
X133979666Y-141048903D01*
X133961099Y-141014167D01*
X133949665Y-140976474D01*
X133945200Y-140931139D01*
X133945200Y-140094461D01*
X133949665Y-140049126D01*
X133961099Y-140011433D01*
X133979666Y-139976697D01*
X134004652Y-139946252D01*
X134035097Y-139921266D01*
X134069833Y-139902699D01*
X134107526Y-139891265D01*
X134152861Y-139886800D01*
X135239539Y-139886800D01*
X135284874Y-139891265D01*
X135284874Y-139891265D01*
G37*
G36*
X144962274Y-139847865D02*
G01*
X144999967Y-139859299D01*
X145034703Y-139877866D01*
X145065148Y-139902852D01*
X145090134Y-139933297D01*
X145108701Y-139968033D01*
X145120135Y-140005726D01*
X145124600Y-140051061D01*
X145124600Y-140887739D01*
X145120135Y-140933074D01*
X145108701Y-140970767D01*
X145090134Y-141005503D01*
X145065148Y-141035948D01*
X145034703Y-141060934D01*
X144999967Y-141079501D01*
X144962274Y-141090935D01*
X144916939Y-141095400D01*
X143830261Y-141095400D01*
X143784926Y-141090935D01*
X143747233Y-141079501D01*
X143712497Y-141060934D01*
X143682052Y-141035948D01*
X143657066Y-141005503D01*
X143638499Y-140970767D01*
X143627065Y-140933074D01*
X143622600Y-140887739D01*
X143622600Y-140051061D01*
X143627065Y-140005726D01*
X143638499Y-139968033D01*
X143657066Y-139933297D01*
X143682052Y-139902852D01*
X143712497Y-139877866D01*
X143747233Y-139859299D01*
X143784926Y-139847865D01*
X143830261Y-139843400D01*
X144916939Y-139843400D01*
X144962274Y-139847865D01*
X144962274Y-139847865D01*
G37*
G36*
X147400674Y-139840465D02*
G01*
X147438367Y-139851899D01*
X147473103Y-139870466D01*
X147503548Y-139895452D01*
X147528534Y-139925897D01*
X147547101Y-139960633D01*
X147558535Y-139998326D01*
X147563000Y-140043661D01*
X147563000Y-140880339D01*
X147558535Y-140925674D01*
X147547101Y-140963367D01*
X147528534Y-140998103D01*
X147503548Y-141028548D01*
X147473103Y-141053534D01*
X147438367Y-141072101D01*
X147400674Y-141083535D01*
X147355339Y-141088000D01*
X146268661Y-141088000D01*
X146223326Y-141083535D01*
X146185633Y-141072101D01*
X146150897Y-141053534D01*
X146120452Y-141028548D01*
X146095466Y-140998103D01*
X146076899Y-140963367D01*
X146065465Y-140925674D01*
X146061000Y-140880339D01*
X146061000Y-140043661D01*
X146065465Y-139998326D01*
X146076899Y-139960633D01*
X146095466Y-139925897D01*
X146120452Y-139895452D01*
X146150897Y-139870466D01*
X146185633Y-139851899D01*
X146223326Y-139840465D01*
X146268661Y-139836000D01*
X147355339Y-139836000D01*
X147400674Y-139840465D01*
X147400674Y-139840465D01*
G37*
G36*
X117077142Y-138918242D02*
G01*
X117225101Y-138979529D01*
X117358255Y-139068499D01*
X117471501Y-139181745D01*
X117560471Y-139314899D01*
X117621758Y-139462858D01*
X117653000Y-139619925D01*
X117653000Y-139780075D01*
X117621758Y-139937142D01*
X117560471Y-140085101D01*
X117471501Y-140218255D01*
X117358255Y-140331501D01*
X117225101Y-140420471D01*
X117077142Y-140481758D01*
X116920075Y-140513000D01*
X116759925Y-140513000D01*
X116602858Y-140481758D01*
X116454899Y-140420471D01*
X116321745Y-140331501D01*
X116208499Y-140218255D01*
X116119529Y-140085101D01*
X116058242Y-139937142D01*
X116027000Y-139780075D01*
X116027000Y-139619925D01*
X116058242Y-139462858D01*
X116119529Y-139314899D01*
X116208499Y-139181745D01*
X116321745Y-139068499D01*
X116454899Y-138979529D01*
X116602858Y-138918242D01*
X116759925Y-138887000D01*
X116920075Y-138887000D01*
X117077142Y-138918242D01*
X117077142Y-138918242D01*
G37*
G36*
X114537142Y-138918242D02*
G01*
X114685101Y-138979529D01*
X114818255Y-139068499D01*
X114931501Y-139181745D01*
X115020471Y-139314899D01*
X115081758Y-139462858D01*
X115113000Y-139619925D01*
X115113000Y-139780075D01*
X115081758Y-139937142D01*
X115020471Y-140085101D01*
X114931501Y-140218255D01*
X114818255Y-140331501D01*
X114685101Y-140420471D01*
X114537142Y-140481758D01*
X114380075Y-140513000D01*
X114219925Y-140513000D01*
X114062858Y-140481758D01*
X113914899Y-140420471D01*
X113781745Y-140331501D01*
X113668499Y-140218255D01*
X113579529Y-140085101D01*
X113518242Y-139937142D01*
X113487000Y-139780075D01*
X113487000Y-139619925D01*
X113518242Y-139462858D01*
X113579529Y-139314899D01*
X113668499Y-139181745D01*
X113781745Y-139068499D01*
X113914899Y-138979529D01*
X114062858Y-138918242D01*
X114219925Y-138887000D01*
X114380075Y-138887000D01*
X114537142Y-138918242D01*
X114537142Y-138918242D01*
G37*
G36*
X152539000Y-140270800D02*
G01*
X150737000Y-140270800D01*
X150737000Y-138468800D01*
X152539000Y-138468800D01*
X152539000Y-140270800D01*
X152539000Y-140270800D01*
G37*
G36*
X132680400Y-139986800D02*
G01*
X129278400Y-139986800D01*
X129278400Y-138344800D01*
X132680400Y-138344800D01*
X132680400Y-139986800D01*
X132680400Y-139986800D01*
G37*
G36*
X125280400Y-139986800D02*
G01*
X121878400Y-139986800D01*
X121878400Y-138344800D01*
X125280400Y-138344800D01*
X125280400Y-139986800D01*
X125280400Y-139986800D01*
G37*
G36*
X117077142Y-136378242D02*
G01*
X117225101Y-136439529D01*
X117358255Y-136528499D01*
X117471501Y-136641745D01*
X117560471Y-136774899D01*
X117621758Y-136922858D01*
X117653000Y-137079925D01*
X117653000Y-137240075D01*
X117621758Y-137397142D01*
X117560471Y-137545101D01*
X117471501Y-137678255D01*
X117358255Y-137791501D01*
X117225101Y-137880471D01*
X117077142Y-137941758D01*
X116920075Y-137973000D01*
X116759925Y-137973000D01*
X116602858Y-137941758D01*
X116454899Y-137880471D01*
X116321745Y-137791501D01*
X116208499Y-137678255D01*
X116119529Y-137545101D01*
X116058242Y-137397142D01*
X116027000Y-137240075D01*
X116027000Y-137079925D01*
X116058242Y-136922858D01*
X116119529Y-136774899D01*
X116208499Y-136641745D01*
X116321745Y-136528499D01*
X116454899Y-136439529D01*
X116602858Y-136378242D01*
X116759925Y-136347000D01*
X116920075Y-136347000D01*
X117077142Y-136378242D01*
X117077142Y-136378242D01*
G37*
G36*
X114537142Y-136378242D02*
G01*
X114685101Y-136439529D01*
X114818255Y-136528499D01*
X114931501Y-136641745D01*
X115020471Y-136774899D01*
X115081758Y-136922858D01*
X115113000Y-137079925D01*
X115113000Y-137240075D01*
X115081758Y-137397142D01*
X115020471Y-137545101D01*
X114931501Y-137678255D01*
X114818255Y-137791501D01*
X114685101Y-137880471D01*
X114537142Y-137941758D01*
X114380075Y-137973000D01*
X114219925Y-137973000D01*
X114062858Y-137941758D01*
X113914899Y-137880471D01*
X113781745Y-137791501D01*
X113668499Y-137678255D01*
X113579529Y-137545101D01*
X113518242Y-137397142D01*
X113487000Y-137240075D01*
X113487000Y-137079925D01*
X113518242Y-136922858D01*
X113579529Y-136774899D01*
X113668499Y-136641745D01*
X113781745Y-136528499D01*
X113914899Y-136439529D01*
X114062858Y-136378242D01*
X114219925Y-136347000D01*
X114380075Y-136347000D01*
X114537142Y-136378242D01*
X114537142Y-136378242D01*
G37*
G36*
X151748443Y-135935319D02*
G01*
X151814627Y-135941837D01*
X151984466Y-135993357D01*
X152140991Y-136077022D01*
X152176729Y-136106352D01*
X152278186Y-136189614D01*
X152361448Y-136291071D01*
X152390778Y-136326809D01*
X152474443Y-136483334D01*
X152525963Y-136653173D01*
X152543359Y-136829800D01*
X152525963Y-137006427D01*
X152474443Y-137176266D01*
X152390778Y-137332791D01*
X152379281Y-137346800D01*
X152278186Y-137469986D01*
X152186658Y-137545100D01*
X152140991Y-137582578D01*
X151984466Y-137666243D01*
X151814627Y-137717763D01*
X151748442Y-137724282D01*
X151682260Y-137730800D01*
X151593740Y-137730800D01*
X151527558Y-137724282D01*
X151461373Y-137717763D01*
X151291534Y-137666243D01*
X151135009Y-137582578D01*
X151089342Y-137545100D01*
X150997814Y-137469986D01*
X150896719Y-137346800D01*
X150885222Y-137332791D01*
X150801557Y-137176266D01*
X150750037Y-137006427D01*
X150732641Y-136829800D01*
X150750037Y-136653173D01*
X150801557Y-136483334D01*
X150885222Y-136326809D01*
X150914552Y-136291071D01*
X150997814Y-136189614D01*
X151099271Y-136106352D01*
X151135009Y-136077022D01*
X151291534Y-135993357D01*
X151461373Y-135941837D01*
X151527557Y-135935319D01*
X151593740Y-135928800D01*
X151682260Y-135928800D01*
X151748443Y-135935319D01*
X151748443Y-135935319D01*
G37*
G36*
X132680400Y-137346800D02*
G01*
X129278400Y-137346800D01*
X129278400Y-135704800D01*
X132680400Y-135704800D01*
X132680400Y-137346800D01*
X132680400Y-137346800D01*
G37*
G36*
X125280400Y-137346800D02*
G01*
X121878400Y-137346800D01*
X121878400Y-135704800D01*
X125280400Y-135704800D01*
X125280400Y-137346800D01*
X125280400Y-137346800D01*
G37*
G36*
X151748443Y-133395319D02*
G01*
X151814627Y-133401837D01*
X151984466Y-133453357D01*
X152140991Y-133537022D01*
X152176729Y-133566352D01*
X152278186Y-133649614D01*
X152343978Y-133729783D01*
X152390778Y-133786809D01*
X152474443Y-133943334D01*
X152525963Y-134113173D01*
X152543359Y-134289800D01*
X152525963Y-134466427D01*
X152474443Y-134636266D01*
X152390778Y-134792791D01*
X152361448Y-134828529D01*
X152278186Y-134929986D01*
X152176729Y-135013248D01*
X152140991Y-135042578D01*
X151984466Y-135126243D01*
X151814627Y-135177763D01*
X151748442Y-135184282D01*
X151682260Y-135190800D01*
X151593740Y-135190800D01*
X151527558Y-135184282D01*
X151461373Y-135177763D01*
X151291534Y-135126243D01*
X151135009Y-135042578D01*
X151099271Y-135013248D01*
X150997814Y-134929986D01*
X150914552Y-134828529D01*
X150885222Y-134792791D01*
X150801557Y-134636266D01*
X150750037Y-134466427D01*
X150732641Y-134289800D01*
X150750037Y-134113173D01*
X150801557Y-133943334D01*
X150885222Y-133786809D01*
X150932022Y-133729783D01*
X150997814Y-133649614D01*
X151099271Y-133566352D01*
X151135009Y-133537022D01*
X151291534Y-133453357D01*
X151461373Y-133401837D01*
X151527557Y-133395319D01*
X151593740Y-133388800D01*
X151682260Y-133388800D01*
X151748443Y-133395319D01*
X151748443Y-133395319D01*
G37*
G36*
X132569074Y-132400265D02*
G01*
X132606767Y-132411699D01*
X132641503Y-132430266D01*
X132671948Y-132455252D01*
X132696934Y-132485697D01*
X132715501Y-132520433D01*
X132726935Y-132558126D01*
X132731400Y-132603461D01*
X132731400Y-133690139D01*
X132726935Y-133735474D01*
X132715501Y-133773167D01*
X132696934Y-133807903D01*
X132671948Y-133838348D01*
X132641503Y-133863334D01*
X132606767Y-133881901D01*
X132569074Y-133893335D01*
X132523739Y-133897800D01*
X131687061Y-133897800D01*
X131641726Y-133893335D01*
X131604033Y-133881901D01*
X131569297Y-133863334D01*
X131538852Y-133838348D01*
X131513866Y-133807903D01*
X131495299Y-133773167D01*
X131483865Y-133735474D01*
X131479400Y-133690139D01*
X131479400Y-132603461D01*
X131483865Y-132558126D01*
X131495299Y-132520433D01*
X131513866Y-132485697D01*
X131538852Y-132455252D01*
X131569297Y-132430266D01*
X131604033Y-132411699D01*
X131641726Y-132400265D01*
X131687061Y-132395800D01*
X132523739Y-132395800D01*
X132569074Y-132400265D01*
X132569074Y-132400265D01*
G37*
G36*
X130519074Y-132400265D02*
G01*
X130556767Y-132411699D01*
X130591503Y-132430266D01*
X130621948Y-132455252D01*
X130646934Y-132485697D01*
X130665501Y-132520433D01*
X130676935Y-132558126D01*
X130681400Y-132603461D01*
X130681400Y-133690139D01*
X130676935Y-133735474D01*
X130665501Y-133773167D01*
X130646934Y-133807903D01*
X130621948Y-133838348D01*
X130591503Y-133863334D01*
X130556767Y-133881901D01*
X130519074Y-133893335D01*
X130473739Y-133897800D01*
X129637061Y-133897800D01*
X129591726Y-133893335D01*
X129554033Y-133881901D01*
X129519297Y-133863334D01*
X129488852Y-133838348D01*
X129463866Y-133807903D01*
X129445299Y-133773167D01*
X129433865Y-133735474D01*
X129429400Y-133690139D01*
X129429400Y-132603461D01*
X129433865Y-132558126D01*
X129445299Y-132520433D01*
X129463866Y-132485697D01*
X129488852Y-132455252D01*
X129519297Y-132430266D01*
X129554033Y-132411699D01*
X129591726Y-132400265D01*
X129637061Y-132395800D01*
X130473739Y-132395800D01*
X130519074Y-132400265D01*
X130519074Y-132400265D01*
G37*
G36*
X125355474Y-132374865D02*
G01*
X125393167Y-132386299D01*
X125427903Y-132404866D01*
X125458348Y-132429852D01*
X125483334Y-132460297D01*
X125501901Y-132495033D01*
X125513335Y-132532726D01*
X125517800Y-132578061D01*
X125517800Y-133664739D01*
X125513335Y-133710074D01*
X125501901Y-133747767D01*
X125483334Y-133782503D01*
X125458348Y-133812948D01*
X125427903Y-133837934D01*
X125393167Y-133856501D01*
X125355474Y-133867935D01*
X125310139Y-133872400D01*
X124473461Y-133872400D01*
X124428126Y-133867935D01*
X124390433Y-133856501D01*
X124355697Y-133837934D01*
X124325252Y-133812948D01*
X124300266Y-133782503D01*
X124281699Y-133747767D01*
X124270265Y-133710074D01*
X124265800Y-133664739D01*
X124265800Y-132578061D01*
X124270265Y-132532726D01*
X124281699Y-132495033D01*
X124300266Y-132460297D01*
X124325252Y-132429852D01*
X124355697Y-132404866D01*
X124390433Y-132386299D01*
X124428126Y-132374865D01*
X124473461Y-132370400D01*
X125310139Y-132370400D01*
X125355474Y-132374865D01*
X125355474Y-132374865D01*
G37*
G36*
X123305474Y-132374865D02*
G01*
X123343167Y-132386299D01*
X123377903Y-132404866D01*
X123408348Y-132429852D01*
X123433334Y-132460297D01*
X123451901Y-132495033D01*
X123463335Y-132532726D01*
X123467800Y-132578061D01*
X123467800Y-133664739D01*
X123463335Y-133710074D01*
X123451901Y-133747767D01*
X123433334Y-133782503D01*
X123408348Y-133812948D01*
X123377903Y-133837934D01*
X123343167Y-133856501D01*
X123305474Y-133867935D01*
X123260139Y-133872400D01*
X122423461Y-133872400D01*
X122378126Y-133867935D01*
X122340433Y-133856501D01*
X122305697Y-133837934D01*
X122275252Y-133812948D01*
X122250266Y-133782503D01*
X122231699Y-133747767D01*
X122220265Y-133710074D01*
X122215800Y-133664739D01*
X122215800Y-132578061D01*
X122220265Y-132532726D01*
X122231699Y-132495033D01*
X122250266Y-132460297D01*
X122275252Y-132429852D01*
X122305697Y-132404866D01*
X122340433Y-132386299D01*
X122378126Y-132374865D01*
X122423461Y-132370400D01*
X123260139Y-132370400D01*
X123305474Y-132374865D01*
X123305474Y-132374865D01*
G37*
G36*
X141660274Y-131120865D02*
G01*
X141697967Y-131132299D01*
X141732703Y-131150866D01*
X141763148Y-131175852D01*
X141788134Y-131206297D01*
X141806701Y-131241033D01*
X141818135Y-131278726D01*
X141822600Y-131324061D01*
X141822600Y-132160739D01*
X141818135Y-132206074D01*
X141806701Y-132243767D01*
X141788134Y-132278503D01*
X141763148Y-132308948D01*
X141732703Y-132333934D01*
X141697967Y-132352501D01*
X141660274Y-132363935D01*
X141614939Y-132368400D01*
X140528261Y-132368400D01*
X140482926Y-132363935D01*
X140445233Y-132352501D01*
X140410497Y-132333934D01*
X140380052Y-132308948D01*
X140355066Y-132278503D01*
X140336499Y-132243767D01*
X140325065Y-132206074D01*
X140320600Y-132160739D01*
X140320600Y-131324061D01*
X140325065Y-131278726D01*
X140336499Y-131241033D01*
X140355066Y-131206297D01*
X140380052Y-131175852D01*
X140410497Y-131150866D01*
X140445233Y-131132299D01*
X140482926Y-131120865D01*
X140528261Y-131116400D01*
X141614939Y-131116400D01*
X141660274Y-131120865D01*
X141660274Y-131120865D01*
G37*
G36*
X144454274Y-131120865D02*
G01*
X144491967Y-131132299D01*
X144526703Y-131150866D01*
X144557148Y-131175852D01*
X144582134Y-131206297D01*
X144600701Y-131241033D01*
X144612135Y-131278726D01*
X144616600Y-131324061D01*
X144616600Y-132160739D01*
X144612135Y-132206074D01*
X144600701Y-132243767D01*
X144582134Y-132278503D01*
X144557148Y-132308948D01*
X144526703Y-132333934D01*
X144491967Y-132352501D01*
X144454274Y-132363935D01*
X144408939Y-132368400D01*
X143322261Y-132368400D01*
X143276926Y-132363935D01*
X143239233Y-132352501D01*
X143204497Y-132333934D01*
X143174052Y-132308948D01*
X143149066Y-132278503D01*
X143130499Y-132243767D01*
X143119065Y-132206074D01*
X143114600Y-132160739D01*
X143114600Y-131324061D01*
X143119065Y-131278726D01*
X143130499Y-131241033D01*
X143149066Y-131206297D01*
X143174052Y-131175852D01*
X143204497Y-131150866D01*
X143239233Y-131132299D01*
X143276926Y-131120865D01*
X143322261Y-131116400D01*
X144408939Y-131116400D01*
X144454274Y-131120865D01*
X144454274Y-131120865D01*
G37*
G36*
X147248274Y-131120865D02*
G01*
X147285967Y-131132299D01*
X147320703Y-131150866D01*
X147351148Y-131175852D01*
X147376134Y-131206297D01*
X147394701Y-131241033D01*
X147406135Y-131278726D01*
X147410600Y-131324061D01*
X147410600Y-132160739D01*
X147406135Y-132206074D01*
X147394701Y-132243767D01*
X147376134Y-132278503D01*
X147351148Y-132308948D01*
X147320703Y-132333934D01*
X147285967Y-132352501D01*
X147248274Y-132363935D01*
X147202939Y-132368400D01*
X146116261Y-132368400D01*
X146070926Y-132363935D01*
X146033233Y-132352501D01*
X145998497Y-132333934D01*
X145968052Y-132308948D01*
X145943066Y-132278503D01*
X145924499Y-132243767D01*
X145913065Y-132206074D01*
X145908600Y-132160739D01*
X145908600Y-131324061D01*
X145913065Y-131278726D01*
X145924499Y-131241033D01*
X145943066Y-131206297D01*
X145968052Y-131175852D01*
X145998497Y-131150866D01*
X146033233Y-131132299D01*
X146070926Y-131120865D01*
X146116261Y-131116400D01*
X147202939Y-131116400D01*
X147248274Y-131120865D01*
X147248274Y-131120865D01*
G37*
G36*
X136072274Y-131111865D02*
G01*
X136109967Y-131123299D01*
X136144703Y-131141866D01*
X136175148Y-131166852D01*
X136200134Y-131197297D01*
X136218701Y-131232033D01*
X136230135Y-131269726D01*
X136234600Y-131315061D01*
X136234600Y-132151739D01*
X136230135Y-132197074D01*
X136218701Y-132234767D01*
X136200134Y-132269503D01*
X136175148Y-132299948D01*
X136144703Y-132324934D01*
X136109967Y-132343501D01*
X136072274Y-132354935D01*
X136026939Y-132359400D01*
X134940261Y-132359400D01*
X134894926Y-132354935D01*
X134857233Y-132343501D01*
X134822497Y-132324934D01*
X134792052Y-132299948D01*
X134767066Y-132269503D01*
X134748499Y-132234767D01*
X134737065Y-132197074D01*
X134732600Y-132151739D01*
X134732600Y-131315061D01*
X134737065Y-131269726D01*
X134748499Y-131232033D01*
X134767066Y-131197297D01*
X134792052Y-131166852D01*
X134822497Y-131141866D01*
X134857233Y-131123299D01*
X134894926Y-131111865D01*
X134940261Y-131107400D01*
X136026939Y-131107400D01*
X136072274Y-131111865D01*
X136072274Y-131111865D01*
G37*
G36*
X141660274Y-129070865D02*
G01*
X141697967Y-129082299D01*
X141732703Y-129100866D01*
X141763148Y-129125852D01*
X141788134Y-129156297D01*
X141806701Y-129191033D01*
X141818135Y-129228726D01*
X141822600Y-129274061D01*
X141822600Y-130110739D01*
X141818135Y-130156074D01*
X141806701Y-130193767D01*
X141788134Y-130228503D01*
X141763148Y-130258948D01*
X141732703Y-130283934D01*
X141697967Y-130302501D01*
X141660274Y-130313935D01*
X141614939Y-130318400D01*
X140528261Y-130318400D01*
X140482926Y-130313935D01*
X140445233Y-130302501D01*
X140410497Y-130283934D01*
X140380052Y-130258948D01*
X140355066Y-130228503D01*
X140336499Y-130193767D01*
X140325065Y-130156074D01*
X140320600Y-130110739D01*
X140320600Y-129274061D01*
X140325065Y-129228726D01*
X140336499Y-129191033D01*
X140355066Y-129156297D01*
X140380052Y-129125852D01*
X140410497Y-129100866D01*
X140445233Y-129082299D01*
X140482926Y-129070865D01*
X140528261Y-129066400D01*
X141614939Y-129066400D01*
X141660274Y-129070865D01*
X141660274Y-129070865D01*
G37*
G36*
X144454274Y-129070865D02*
G01*
X144491967Y-129082299D01*
X144526703Y-129100866D01*
X144557148Y-129125852D01*
X144582134Y-129156297D01*
X144600701Y-129191033D01*
X144612135Y-129228726D01*
X144616600Y-129274061D01*
X144616600Y-130110739D01*
X144612135Y-130156074D01*
X144600701Y-130193767D01*
X144582134Y-130228503D01*
X144557148Y-130258948D01*
X144526703Y-130283934D01*
X144491967Y-130302501D01*
X144454274Y-130313935D01*
X144408939Y-130318400D01*
X143322261Y-130318400D01*
X143276926Y-130313935D01*
X143239233Y-130302501D01*
X143204497Y-130283934D01*
X143174052Y-130258948D01*
X143149066Y-130228503D01*
X143130499Y-130193767D01*
X143119065Y-130156074D01*
X143114600Y-130110739D01*
X143114600Y-129274061D01*
X143119065Y-129228726D01*
X143130499Y-129191033D01*
X143149066Y-129156297D01*
X143174052Y-129125852D01*
X143204497Y-129100866D01*
X143239233Y-129082299D01*
X143276926Y-129070865D01*
X143322261Y-129066400D01*
X144408939Y-129066400D01*
X144454274Y-129070865D01*
X144454274Y-129070865D01*
G37*
G36*
X147248274Y-129070865D02*
G01*
X147285967Y-129082299D01*
X147320703Y-129100866D01*
X147351148Y-129125852D01*
X147376134Y-129156297D01*
X147394701Y-129191033D01*
X147406135Y-129228726D01*
X147410600Y-129274061D01*
X147410600Y-130110739D01*
X147406135Y-130156074D01*
X147394701Y-130193767D01*
X147376134Y-130228503D01*
X147351148Y-130258948D01*
X147320703Y-130283934D01*
X147285967Y-130302501D01*
X147248274Y-130313935D01*
X147202939Y-130318400D01*
X146116261Y-130318400D01*
X146070926Y-130313935D01*
X146033233Y-130302501D01*
X145998497Y-130283934D01*
X145968052Y-130258948D01*
X145943066Y-130228503D01*
X145924499Y-130193767D01*
X145913065Y-130156074D01*
X145908600Y-130110739D01*
X145908600Y-129274061D01*
X145913065Y-129228726D01*
X145924499Y-129191033D01*
X145943066Y-129156297D01*
X145968052Y-129125852D01*
X145998497Y-129100866D01*
X146033233Y-129082299D01*
X146070926Y-129070865D01*
X146116261Y-129066400D01*
X147202939Y-129066400D01*
X147248274Y-129070865D01*
X147248274Y-129070865D01*
G37*
G36*
X136072274Y-129061865D02*
G01*
X136109967Y-129073299D01*
X136144703Y-129091866D01*
X136175148Y-129116852D01*
X136200134Y-129147297D01*
X136218701Y-129182033D01*
X136230135Y-129219726D01*
X136234600Y-129265061D01*
X136234600Y-130101739D01*
X136230135Y-130147074D01*
X136218701Y-130184767D01*
X136200134Y-130219503D01*
X136175148Y-130249948D01*
X136144703Y-130274934D01*
X136109967Y-130293501D01*
X136072274Y-130304935D01*
X136026939Y-130309400D01*
X134940261Y-130309400D01*
X134894926Y-130304935D01*
X134857233Y-130293501D01*
X134822497Y-130274934D01*
X134792052Y-130249948D01*
X134767066Y-130219503D01*
X134748499Y-130184767D01*
X134737065Y-130147074D01*
X134732600Y-130101739D01*
X134732600Y-129265061D01*
X134737065Y-129219726D01*
X134748499Y-129182033D01*
X134767066Y-129147297D01*
X134792052Y-129116852D01*
X134822497Y-129091866D01*
X134857233Y-129073299D01*
X134894926Y-129061865D01*
X134940261Y-129057400D01*
X136026939Y-129057400D01*
X136072274Y-129061865D01*
X136072274Y-129061865D01*
G37*
G36*
X117458442Y-127883518D02*
G01*
X117524627Y-127890037D01*
X117694466Y-127941557D01*
X117850991Y-128025222D01*
X117886729Y-128054552D01*
X117988186Y-128137814D01*
X118071448Y-128239271D01*
X118100778Y-128275009D01*
X118184443Y-128431534D01*
X118235963Y-128601373D01*
X118253359Y-128778000D01*
X118235963Y-128954627D01*
X118184443Y-129124466D01*
X118184442Y-129124468D01*
X118167429Y-129156297D01*
X118100778Y-129280991D01*
X118071448Y-129316729D01*
X117988186Y-129418186D01*
X117886729Y-129501448D01*
X117850991Y-129530778D01*
X117694466Y-129614443D01*
X117524627Y-129665963D01*
X117458443Y-129672481D01*
X117392260Y-129679000D01*
X117303740Y-129679000D01*
X117237557Y-129672481D01*
X117171373Y-129665963D01*
X117001534Y-129614443D01*
X116845009Y-129530778D01*
X116809271Y-129501448D01*
X116707814Y-129418186D01*
X116624552Y-129316729D01*
X116595222Y-129280991D01*
X116528571Y-129156297D01*
X116511558Y-129124468D01*
X116511557Y-129124466D01*
X116460037Y-128954627D01*
X116442641Y-128778000D01*
X116460037Y-128601373D01*
X116511557Y-128431534D01*
X116595222Y-128275009D01*
X116624552Y-128239271D01*
X116707814Y-128137814D01*
X116809271Y-128054552D01*
X116845009Y-128025222D01*
X117001534Y-127941557D01*
X117171373Y-127890037D01*
X117237558Y-127883518D01*
X117303740Y-127877000D01*
X117392260Y-127877000D01*
X117458442Y-127883518D01*
X117458442Y-127883518D01*
G37*
G36*
X145144443Y-126105519D02*
G01*
X145210627Y-126112037D01*
X145380466Y-126163557D01*
X145536991Y-126247222D01*
X145546161Y-126254748D01*
X145674186Y-126359814D01*
X145757448Y-126461271D01*
X145786778Y-126497009D01*
X145870443Y-126653534D01*
X145921963Y-126823373D01*
X145939359Y-127000000D01*
X145921963Y-127176627D01*
X145870443Y-127346466D01*
X145786778Y-127502991D01*
X145757448Y-127538729D01*
X145674186Y-127640186D01*
X145572729Y-127723448D01*
X145536991Y-127752778D01*
X145380466Y-127836443D01*
X145210627Y-127887963D01*
X145144442Y-127894482D01*
X145078260Y-127901000D01*
X144989740Y-127901000D01*
X144923558Y-127894482D01*
X144857373Y-127887963D01*
X144687534Y-127836443D01*
X144531009Y-127752778D01*
X144495271Y-127723448D01*
X144393814Y-127640186D01*
X144310552Y-127538729D01*
X144281222Y-127502991D01*
X144197557Y-127346466D01*
X144146037Y-127176627D01*
X144128641Y-127000000D01*
X144146037Y-126823373D01*
X144197557Y-126653534D01*
X144281222Y-126497009D01*
X144310552Y-126461271D01*
X144393814Y-126359814D01*
X144521839Y-126254748D01*
X144531009Y-126247222D01*
X144687534Y-126163557D01*
X144857373Y-126112037D01*
X144923557Y-126105519D01*
X144989740Y-126099000D01*
X145078260Y-126099000D01*
X145144443Y-126105519D01*
X145144443Y-126105519D01*
G37*
G36*
X140855000Y-127901000D02*
G01*
X139053000Y-127901000D01*
X139053000Y-126099000D01*
X140855000Y-126099000D01*
X140855000Y-127901000D01*
X140855000Y-127901000D01*
G37*
G36*
X150224443Y-126105519D02*
G01*
X150290627Y-126112037D01*
X150460466Y-126163557D01*
X150616991Y-126247222D01*
X150626161Y-126254748D01*
X150754186Y-126359814D01*
X150837448Y-126461271D01*
X150866778Y-126497009D01*
X150950443Y-126653534D01*
X151001963Y-126823373D01*
X151019359Y-127000000D01*
X151001963Y-127176627D01*
X150950443Y-127346466D01*
X150866778Y-127502991D01*
X150837448Y-127538729D01*
X150754186Y-127640186D01*
X150652729Y-127723448D01*
X150616991Y-127752778D01*
X150460466Y-127836443D01*
X150290627Y-127887963D01*
X150224442Y-127894482D01*
X150158260Y-127901000D01*
X150069740Y-127901000D01*
X150003558Y-127894482D01*
X149937373Y-127887963D01*
X149767534Y-127836443D01*
X149611009Y-127752778D01*
X149575271Y-127723448D01*
X149473814Y-127640186D01*
X149390552Y-127538729D01*
X149361222Y-127502991D01*
X149277557Y-127346466D01*
X149226037Y-127176627D01*
X149208641Y-127000000D01*
X149226037Y-126823373D01*
X149277557Y-126653534D01*
X149361222Y-126497009D01*
X149390552Y-126461271D01*
X149473814Y-126359814D01*
X149601839Y-126254748D01*
X149611009Y-126247222D01*
X149767534Y-126163557D01*
X149937373Y-126112037D01*
X150003557Y-126105519D01*
X150069740Y-126099000D01*
X150158260Y-126099000D01*
X150224443Y-126105519D01*
X150224443Y-126105519D01*
G37*
G36*
X142604443Y-126105519D02*
G01*
X142670627Y-126112037D01*
X142840466Y-126163557D01*
X142996991Y-126247222D01*
X143006161Y-126254748D01*
X143134186Y-126359814D01*
X143217448Y-126461271D01*
X143246778Y-126497009D01*
X143330443Y-126653534D01*
X143381963Y-126823373D01*
X143399359Y-127000000D01*
X143381963Y-127176627D01*
X143330443Y-127346466D01*
X143246778Y-127502991D01*
X143217448Y-127538729D01*
X143134186Y-127640186D01*
X143032729Y-127723448D01*
X142996991Y-127752778D01*
X142840466Y-127836443D01*
X142670627Y-127887963D01*
X142604442Y-127894482D01*
X142538260Y-127901000D01*
X142449740Y-127901000D01*
X142383558Y-127894482D01*
X142317373Y-127887963D01*
X142147534Y-127836443D01*
X141991009Y-127752778D01*
X141955271Y-127723448D01*
X141853814Y-127640186D01*
X141770552Y-127538729D01*
X141741222Y-127502991D01*
X141657557Y-127346466D01*
X141606037Y-127176627D01*
X141588641Y-127000000D01*
X141606037Y-126823373D01*
X141657557Y-126653534D01*
X141741222Y-126497009D01*
X141770552Y-126461271D01*
X141853814Y-126359814D01*
X141981839Y-126254748D01*
X141991009Y-126247222D01*
X142147534Y-126163557D01*
X142317373Y-126112037D01*
X142383557Y-126105519D01*
X142449740Y-126099000D01*
X142538260Y-126099000D01*
X142604443Y-126105519D01*
X142604443Y-126105519D01*
G37*
G36*
X147684443Y-126105519D02*
G01*
X147750627Y-126112037D01*
X147920466Y-126163557D01*
X148076991Y-126247222D01*
X148086161Y-126254748D01*
X148214186Y-126359814D01*
X148297448Y-126461271D01*
X148326778Y-126497009D01*
X148410443Y-126653534D01*
X148461963Y-126823373D01*
X148479359Y-127000000D01*
X148461963Y-127176627D01*
X148410443Y-127346466D01*
X148326778Y-127502991D01*
X148297448Y-127538729D01*
X148214186Y-127640186D01*
X148112729Y-127723448D01*
X148076991Y-127752778D01*
X147920466Y-127836443D01*
X147750627Y-127887963D01*
X147684442Y-127894482D01*
X147618260Y-127901000D01*
X147529740Y-127901000D01*
X147463558Y-127894482D01*
X147397373Y-127887963D01*
X147227534Y-127836443D01*
X147071009Y-127752778D01*
X147035271Y-127723448D01*
X146933814Y-127640186D01*
X146850552Y-127538729D01*
X146821222Y-127502991D01*
X146737557Y-127346466D01*
X146686037Y-127176627D01*
X146668641Y-127000000D01*
X146686037Y-126823373D01*
X146737557Y-126653534D01*
X146821222Y-126497009D01*
X146850552Y-126461271D01*
X146933814Y-126359814D01*
X147061839Y-126254748D01*
X147071009Y-126247222D01*
X147227534Y-126163557D01*
X147397373Y-126112037D01*
X147463557Y-126105519D01*
X147529740Y-126099000D01*
X147618260Y-126099000D01*
X147684443Y-126105519D01*
X147684443Y-126105519D01*
G37*
G36*
X118249000Y-127139000D02*
G01*
X116447000Y-127139000D01*
X116447000Y-125337000D01*
X118249000Y-125337000D01*
X118249000Y-127139000D01*
X118249000Y-127139000D01*
G37*
G36*
X137520074Y-125066665D02*
G01*
X137557767Y-125078099D01*
X137592503Y-125096666D01*
X137622948Y-125121652D01*
X137647934Y-125152097D01*
X137666501Y-125186833D01*
X137677935Y-125224526D01*
X137682400Y-125269861D01*
X137682400Y-126106539D01*
X137677935Y-126151874D01*
X137666501Y-126189567D01*
X137647934Y-126224303D01*
X137622948Y-126254748D01*
X137592503Y-126279734D01*
X137557767Y-126298301D01*
X137520074Y-126309735D01*
X137474739Y-126314200D01*
X136388061Y-126314200D01*
X136342726Y-126309735D01*
X136305033Y-126298301D01*
X136270297Y-126279734D01*
X136239852Y-126254748D01*
X136214866Y-126224303D01*
X136196299Y-126189567D01*
X136184865Y-126151874D01*
X136180400Y-126106539D01*
X136180400Y-125269861D01*
X136184865Y-125224526D01*
X136196299Y-125186833D01*
X136214866Y-125152097D01*
X136239852Y-125121652D01*
X136270297Y-125096666D01*
X136305033Y-125078099D01*
X136342726Y-125066665D01*
X136388061Y-125062200D01*
X137474739Y-125062200D01*
X137520074Y-125066665D01*
X137520074Y-125066665D01*
G37*
G36*
X132511599Y-123786737D02*
G01*
X132521208Y-123789652D01*
X132530072Y-123794390D01*
X132537812Y-123800742D01*
X132537813Y-123800743D01*
X132537837Y-123800763D01*
X132544240Y-123808573D01*
X132544277Y-123808628D01*
X132552080Y-123818147D01*
X132552111Y-123818122D01*
X132563453Y-123831972D01*
X132582379Y-123847537D01*
X132603977Y-123859111D01*
X132627419Y-123866249D01*
X132651802Y-123868676D01*
X132676191Y-123866300D01*
X132699647Y-123859211D01*
X132721270Y-123847682D01*
X132740228Y-123832157D01*
X132755793Y-123813231D01*
X132757629Y-123810175D01*
X132759018Y-123808486D01*
X132759019Y-123808484D01*
X132765401Y-123800725D01*
X132773173Y-123794360D01*
X132773175Y-123794358D01*
X132781999Y-123789654D01*
X132782038Y-123789633D01*
X132791655Y-123786727D01*
X132791685Y-123786718D01*
X132807713Y-123785148D01*
X133945460Y-123785148D01*
X133961599Y-123786737D01*
X133971208Y-123789652D01*
X133980072Y-123794390D01*
X133987837Y-123800763D01*
X133994210Y-123808528D01*
X133998948Y-123817392D01*
X134001863Y-123827001D01*
X134003452Y-123843140D01*
X134003452Y-125330860D01*
X134001863Y-125346999D01*
X133998948Y-125356608D01*
X133994210Y-125365472D01*
X133987837Y-125373237D01*
X133980072Y-125379610D01*
X133971208Y-125384348D01*
X133961599Y-125387263D01*
X133945460Y-125388852D01*
X132807740Y-125388852D01*
X132791601Y-125387263D01*
X132781992Y-125384348D01*
X132773128Y-125379610D01*
X132765363Y-125373237D01*
X132754716Y-125360263D01*
X132748547Y-125351032D01*
X132731219Y-125333706D01*
X132710844Y-125320093D01*
X132688205Y-125310717D01*
X132664172Y-125305937D01*
X132639668Y-125305938D01*
X132615635Y-125310720D01*
X132592996Y-125320098D01*
X132572622Y-125333713D01*
X132555296Y-125351041D01*
X132548425Y-125360317D01*
X132544240Y-125365427D01*
X132537875Y-125373199D01*
X132530116Y-125379581D01*
X132521261Y-125384326D01*
X132518223Y-125385251D01*
X132511685Y-125387242D01*
X132511682Y-125387242D01*
X132511650Y-125387252D01*
X132501600Y-125388247D01*
X132501535Y-125388247D01*
X132495425Y-125388852D01*
X131507740Y-125388852D01*
X131491601Y-125387263D01*
X131481992Y-125384348D01*
X131473128Y-125379610D01*
X131465363Y-125373237D01*
X131458990Y-125365472D01*
X131454252Y-125356608D01*
X131451337Y-125346999D01*
X131449748Y-125330860D01*
X131449748Y-123843140D01*
X131451337Y-123827001D01*
X131454252Y-123817392D01*
X131458990Y-123808528D01*
X131465363Y-123800763D01*
X131473128Y-123794390D01*
X131481992Y-123789652D01*
X131491601Y-123786737D01*
X131507740Y-123785148D01*
X132495460Y-123785148D01*
X132511599Y-123786737D01*
X132511599Y-123786737D01*
G37*
G36*
X145144442Y-123565518D02*
G01*
X145210627Y-123572037D01*
X145380466Y-123623557D01*
X145536991Y-123707222D01*
X145572729Y-123736552D01*
X145674186Y-123819814D01*
X145757448Y-123921271D01*
X145786778Y-123957009D01*
X145870443Y-124113534D01*
X145921963Y-124283373D01*
X145939359Y-124460000D01*
X145921963Y-124636627D01*
X145870443Y-124806466D01*
X145786778Y-124962991D01*
X145757448Y-124998729D01*
X145674186Y-125100186D01*
X145573078Y-125183162D01*
X145536991Y-125212778D01*
X145380466Y-125296443D01*
X145210627Y-125347963D01*
X145144442Y-125354482D01*
X145078260Y-125361000D01*
X144989740Y-125361000D01*
X144923558Y-125354482D01*
X144857373Y-125347963D01*
X144687534Y-125296443D01*
X144531009Y-125212778D01*
X144494922Y-125183162D01*
X144393814Y-125100186D01*
X144310552Y-124998729D01*
X144281222Y-124962991D01*
X144197557Y-124806466D01*
X144146037Y-124636627D01*
X144128641Y-124460000D01*
X144146037Y-124283373D01*
X144197557Y-124113534D01*
X144281222Y-123957009D01*
X144310552Y-123921271D01*
X144393814Y-123819814D01*
X144495271Y-123736552D01*
X144531009Y-123707222D01*
X144687534Y-123623557D01*
X144857373Y-123572037D01*
X144923558Y-123565518D01*
X144989740Y-123559000D01*
X145078260Y-123559000D01*
X145144442Y-123565518D01*
X145144442Y-123565518D01*
G37*
G36*
X142604442Y-123565518D02*
G01*
X142670627Y-123572037D01*
X142840466Y-123623557D01*
X142996991Y-123707222D01*
X143032729Y-123736552D01*
X143134186Y-123819814D01*
X143217448Y-123921271D01*
X143246778Y-123957009D01*
X143330443Y-124113534D01*
X143381963Y-124283373D01*
X143399359Y-124460000D01*
X143381963Y-124636627D01*
X143330443Y-124806466D01*
X143246778Y-124962991D01*
X143217448Y-124998729D01*
X143134186Y-125100186D01*
X143033078Y-125183162D01*
X142996991Y-125212778D01*
X142840466Y-125296443D01*
X142670627Y-125347963D01*
X142604442Y-125354482D01*
X142538260Y-125361000D01*
X142449740Y-125361000D01*
X142383558Y-125354482D01*
X142317373Y-125347963D01*
X142147534Y-125296443D01*
X141991009Y-125212778D01*
X141954922Y-125183162D01*
X141853814Y-125100186D01*
X141770552Y-124998729D01*
X141741222Y-124962991D01*
X141657557Y-124806466D01*
X141606037Y-124636627D01*
X141588641Y-124460000D01*
X141606037Y-124283373D01*
X141657557Y-124113534D01*
X141741222Y-123957009D01*
X141770552Y-123921271D01*
X141853814Y-123819814D01*
X141955271Y-123736552D01*
X141991009Y-123707222D01*
X142147534Y-123623557D01*
X142317373Y-123572037D01*
X142383558Y-123565518D01*
X142449740Y-123559000D01*
X142538260Y-123559000D01*
X142604442Y-123565518D01*
X142604442Y-123565518D01*
G37*
G36*
X140064442Y-123565518D02*
G01*
X140130627Y-123572037D01*
X140300466Y-123623557D01*
X140456991Y-123707222D01*
X140492729Y-123736552D01*
X140594186Y-123819814D01*
X140677448Y-123921271D01*
X140706778Y-123957009D01*
X140790443Y-124113534D01*
X140841963Y-124283373D01*
X140859359Y-124460000D01*
X140841963Y-124636627D01*
X140790443Y-124806466D01*
X140706778Y-124962991D01*
X140677448Y-124998729D01*
X140594186Y-125100186D01*
X140493078Y-125183162D01*
X140456991Y-125212778D01*
X140300466Y-125296443D01*
X140130627Y-125347963D01*
X140064442Y-125354482D01*
X139998260Y-125361000D01*
X139909740Y-125361000D01*
X139843558Y-125354482D01*
X139777373Y-125347963D01*
X139607534Y-125296443D01*
X139451009Y-125212778D01*
X139414922Y-125183162D01*
X139313814Y-125100186D01*
X139230552Y-124998729D01*
X139201222Y-124962991D01*
X139117557Y-124806466D01*
X139066037Y-124636627D01*
X139048641Y-124460000D01*
X139066037Y-124283373D01*
X139117557Y-124113534D01*
X139201222Y-123957009D01*
X139230552Y-123921271D01*
X139313814Y-123819814D01*
X139415271Y-123736552D01*
X139451009Y-123707222D01*
X139607534Y-123623557D01*
X139777373Y-123572037D01*
X139843558Y-123565518D01*
X139909740Y-123559000D01*
X139998260Y-123559000D01*
X140064442Y-123565518D01*
X140064442Y-123565518D01*
G37*
G36*
X147684442Y-123565518D02*
G01*
X147750627Y-123572037D01*
X147920466Y-123623557D01*
X148076991Y-123707222D01*
X148112729Y-123736552D01*
X148214186Y-123819814D01*
X148297448Y-123921271D01*
X148326778Y-123957009D01*
X148410443Y-124113534D01*
X148461963Y-124283373D01*
X148479359Y-124460000D01*
X148461963Y-124636627D01*
X148410443Y-124806466D01*
X148326778Y-124962991D01*
X148297448Y-124998729D01*
X148214186Y-125100186D01*
X148113078Y-125183162D01*
X148076991Y-125212778D01*
X147920466Y-125296443D01*
X147750627Y-125347963D01*
X147684442Y-125354482D01*
X147618260Y-125361000D01*
X147529740Y-125361000D01*
X147463558Y-125354482D01*
X147397373Y-125347963D01*
X147227534Y-125296443D01*
X147071009Y-125212778D01*
X147034922Y-125183162D01*
X146933814Y-125100186D01*
X146850552Y-124998729D01*
X146821222Y-124962991D01*
X146737557Y-124806466D01*
X146686037Y-124636627D01*
X146668641Y-124460000D01*
X146686037Y-124283373D01*
X146737557Y-124113534D01*
X146821222Y-123957009D01*
X146850552Y-123921271D01*
X146933814Y-123819814D01*
X147035271Y-123736552D01*
X147071009Y-123707222D01*
X147227534Y-123623557D01*
X147397373Y-123572037D01*
X147463558Y-123565518D01*
X147529740Y-123559000D01*
X147618260Y-123559000D01*
X147684442Y-123565518D01*
X147684442Y-123565518D01*
G37*
G36*
X150224442Y-123565518D02*
G01*
X150290627Y-123572037D01*
X150460466Y-123623557D01*
X150616991Y-123707222D01*
X150652729Y-123736552D01*
X150754186Y-123819814D01*
X150837448Y-123921271D01*
X150866778Y-123957009D01*
X150950443Y-124113534D01*
X151001963Y-124283373D01*
X151019359Y-124460000D01*
X151001963Y-124636627D01*
X150950443Y-124806466D01*
X150866778Y-124962991D01*
X150837448Y-124998729D01*
X150754186Y-125100186D01*
X150653078Y-125183162D01*
X150616991Y-125212778D01*
X150460466Y-125296443D01*
X150290627Y-125347963D01*
X150224442Y-125354482D01*
X150158260Y-125361000D01*
X150069740Y-125361000D01*
X150003558Y-125354482D01*
X149937373Y-125347963D01*
X149767534Y-125296443D01*
X149611009Y-125212778D01*
X149574922Y-125183162D01*
X149473814Y-125100186D01*
X149390552Y-124998729D01*
X149361222Y-124962991D01*
X149277557Y-124806466D01*
X149226037Y-124636627D01*
X149208641Y-124460000D01*
X149226037Y-124283373D01*
X149277557Y-124113534D01*
X149361222Y-123957009D01*
X149390552Y-123921271D01*
X149473814Y-123819814D01*
X149575271Y-123736552D01*
X149611009Y-123707222D01*
X149767534Y-123623557D01*
X149937373Y-123572037D01*
X150003558Y-123565518D01*
X150069740Y-123559000D01*
X150158260Y-123559000D01*
X150224442Y-123565518D01*
X150224442Y-123565518D01*
G37*
G36*
X137520074Y-123016665D02*
G01*
X137557767Y-123028099D01*
X137592503Y-123046666D01*
X137622948Y-123071652D01*
X137647934Y-123102097D01*
X137666501Y-123136833D01*
X137677935Y-123174526D01*
X137682400Y-123219861D01*
X137682400Y-124056539D01*
X137677935Y-124101874D01*
X137666501Y-124139567D01*
X137647934Y-124174303D01*
X137622948Y-124204748D01*
X137592503Y-124229734D01*
X137557767Y-124248301D01*
X137520074Y-124259735D01*
X137474739Y-124264200D01*
X136388061Y-124264200D01*
X136342726Y-124259735D01*
X136305033Y-124248301D01*
X136270297Y-124229734D01*
X136239852Y-124204748D01*
X136214866Y-124174303D01*
X136196299Y-124139567D01*
X136184865Y-124101874D01*
X136180400Y-124056539D01*
X136180400Y-123219861D01*
X136184865Y-123174526D01*
X136196299Y-123136833D01*
X136214866Y-123102097D01*
X136239852Y-123071652D01*
X136270297Y-123046666D01*
X136305033Y-123028099D01*
X136342726Y-123016665D01*
X136388061Y-123012200D01*
X137474739Y-123012200D01*
X137520074Y-123016665D01*
X137520074Y-123016665D01*
G37*
M02*
