M48
; DRILL file {KiCad 5.1.2-f72e74a~84~ubuntu18.04.1} date Sa 06 Jul 2019 11:59:22 CEST
; FORMAT={-:-/ absolute / inch / decimal}
; #@! TF.CreationDate,2019-07-06T11:59:22+02:00
; #@! TF.GenerationSoftware,Kicad,Pcbnew,5.1.2-f72e74a~84~ubuntu18.04.1
; #@! TF.FileFunction,Plated,1,2,PTH
FMAT,2
INCH
T1C0.0157
T2C0.0236
T3C0.0300
T4C0.0394
%
G90
G05
T1
X4.646Y-5.302
X4.748Y-5.396
X5.3Y-5.219
X5.318Y-5.389
X5.3311Y-5.3141
X5.353Y-5.283
X5.374Y-5.372
X5.376Y-5.332
X5.381Y-5.022
X5.406Y-5.315
X5.449Y-5.093
X5.45Y-5.1357
X5.475Y-5.539
X5.478Y-5.569
X5.497Y-5.072
X5.5136Y-5.2514
X5.5336Y-5.2715
X5.637Y-5.347
X5.834Y-5.475
X5.8599Y-5.3527
X5.86Y-5.325
X5.9197Y-5.538
T2
X4.52Y-4.89
X4.52Y-4.96
X4.52Y-5.02
X4.52Y-5.08
X4.52Y-5.15
X4.56Y-5.15
X4.61Y-4.88
X4.62Y-5.15
X4.68Y-4.88
X4.69Y-5.15
X4.696Y-5.737
X4.699Y-5.656
X4.71Y-5.45
X4.712Y-5.61
X4.72Y-5.05
X4.72Y-5.11
X4.756Y-5.61
X4.757Y-5.564
X4.77Y-5.05
X4.77Y-5.11
X4.798Y-5.608
X4.8Y-5.565
X4.82Y-5.05
X4.82Y-5.11
X4.843Y-5.614
X4.845Y-5.567
X4.86Y-5.05
X4.86Y-5.11
X4.898Y-4.976
X5.01Y-5.44
X5.061Y-5.622
X5.063Y-5.581
X5.108Y-5.58
X5.108Y-5.625
X5.14Y-5.08
X5.151Y-5.626
X5.153Y-5.582
X5.19Y-5.11
X5.198Y-5.582
X5.198Y-5.627
X5.22Y-5.01
X5.341Y-4.843
X5.362Y-5.489
X5.391Y-5.461
X5.393Y-5.108
X5.416Y-5.432
X5.461Y-5.473
X5.52Y-5.608
X5.524Y-5.402
X5.525Y-5.36
X5.563Y-5.225
X5.566Y-5.361
X5.568Y-5.442
X5.569Y-5.608
X5.5976Y-5.11
X5.603Y-5.406
X5.605Y-5.223
X5.613Y-5.608
X5.62Y-5.443
X5.654Y-5.404
X5.659Y-5.443
X5.677Y-5.336
X5.713Y-5.29
X5.717Y-5.346
X5.718Y-5.392
X5.746Y-5.224
X5.778Y-5.483
X5.823Y-5.198
X5.829Y-5.59
X5.862Y-5.288
X5.88Y-5.1
X5.88Y-5.16
X5.89Y-5.23
X5.94Y-5.1
X5.94Y-5.16
X6.02Y-4.9
X6.03Y-4.99
X6.03Y-5.07
X6.03Y-5.16
X6.03Y-5.24
T3
X4.5Y-5.4
X4.5Y-5.5
X4.5Y-5.6
X4.5Y-5.7
X4.6Y-5.4
X4.6Y-5.5
X4.6Y-5.6
X4.6Y-5.7
T4
X5.97Y-5.287
X5.97Y-5.387
X5.97Y-5.487
X4.8Y-5.7
X4.9Y-5.7
X5.0Y-5.7
X5.1Y-5.7
X5.2Y-5.7
X5.3Y-5.7
X5.4Y-5.7
X5.5Y-5.7
X5.6Y-5.7
X5.7Y-5.7
X5.8Y-5.7
X5.9Y-5.7
X6.0Y-5.7
X6.1Y-5.7
X5.51Y-4.9
X5.51Y-5.0
X5.61Y-4.9
X5.61Y-5.0
X5.71Y-4.9
X5.71Y-5.0
X5.81Y-4.9
X5.81Y-5.0
X5.91Y-4.9
X5.91Y-5.0
X4.62Y-4.97
X4.62Y-5.07
T0
M30
