G04 #@! TF.GenerationSoftware,KiCad,Pcbnew,5.1.2-f72e74a~84~ubuntu18.04.1*
G04 #@! TF.CreationDate,2019-07-06T11:59:09+02:00*
G04 #@! TF.ProjectId,loponode,6c6f706f-6e6f-4646-952e-6b696361645f,rev?*
G04 #@! TF.SameCoordinates,Original*
G04 #@! TF.FileFunction,Copper,L2,Bot*
G04 #@! TF.FilePolarity,Positive*
%FSLAX46Y46*%
G04 Gerber Fmt 4.6, Leading zero omitted, Abs format (unit mm)*
G04 Created by KiCad (PCBNEW 5.1.2-f72e74a~84~ubuntu18.04.1) date 2019-07-06 11:59:09*
%MOMM*%
%LPD*%
G04 APERTURE LIST*
%ADD10R,1.700000X1.700000*%
%ADD11O,1.700000X1.700000*%
%ADD12R,3.300000X1.540000*%
%ADD13C,0.100000*%
%ADD14C,1.150000*%
%ADD15C,0.300000*%
%ADD16C,1.524000*%
%ADD17R,1.524000X1.524000*%
%ADD18C,0.800000*%
%ADD19C,0.600000*%
%ADD20C,0.400000*%
%ADD21C,0.200000*%
%ADD22C,0.254000*%
G04 APERTURE END LIST*
D10*
X139954000Y-127000000D03*
D11*
X139954000Y-124460000D03*
X142494000Y-127000000D03*
X142494000Y-124460000D03*
X145034000Y-127000000D03*
X145034000Y-124460000D03*
X147574000Y-127000000D03*
X147574000Y-124460000D03*
X150114000Y-127000000D03*
X150114000Y-124460000D03*
D12*
X130979400Y-139165800D03*
X123579400Y-139165800D03*
X123579400Y-136525800D03*
X130979400Y-136525800D03*
D10*
X121920000Y-144780000D03*
D11*
X124460000Y-144780000D03*
X127000000Y-144780000D03*
X129540000Y-144780000D03*
X132080000Y-144780000D03*
X134620000Y-144780000D03*
X137160000Y-144780000D03*
X139700000Y-144780000D03*
X142240000Y-144780000D03*
X144780000Y-144780000D03*
X147320000Y-144780000D03*
X149860000Y-144780000D03*
X152400000Y-144780000D03*
X154940000Y-144780000D03*
D13*
G36*
X135958105Y-129109604D02*
G01*
X135982373Y-129113204D01*
X136006172Y-129119165D01*
X136029271Y-129127430D01*
X136051450Y-129137920D01*
X136072493Y-129150532D01*
X136092199Y-129165147D01*
X136110377Y-129181623D01*
X136126853Y-129199801D01*
X136141468Y-129219507D01*
X136154080Y-129240550D01*
X136164570Y-129262729D01*
X136172835Y-129285828D01*
X136178796Y-129309627D01*
X136182396Y-129333895D01*
X136183600Y-129358399D01*
X136183600Y-130008401D01*
X136182396Y-130032905D01*
X136178796Y-130057173D01*
X136172835Y-130080972D01*
X136164570Y-130104071D01*
X136154080Y-130126250D01*
X136141468Y-130147293D01*
X136126853Y-130166999D01*
X136110377Y-130185177D01*
X136092199Y-130201653D01*
X136072493Y-130216268D01*
X136051450Y-130228880D01*
X136029271Y-130239370D01*
X136006172Y-130247635D01*
X135982373Y-130253596D01*
X135958105Y-130257196D01*
X135933601Y-130258400D01*
X135033599Y-130258400D01*
X135009095Y-130257196D01*
X134984827Y-130253596D01*
X134961028Y-130247635D01*
X134937929Y-130239370D01*
X134915750Y-130228880D01*
X134894707Y-130216268D01*
X134875001Y-130201653D01*
X134856823Y-130185177D01*
X134840347Y-130166999D01*
X134825732Y-130147293D01*
X134813120Y-130126250D01*
X134802630Y-130104071D01*
X134794365Y-130080972D01*
X134788404Y-130057173D01*
X134784804Y-130032905D01*
X134783600Y-130008401D01*
X134783600Y-129358399D01*
X134784804Y-129333895D01*
X134788404Y-129309627D01*
X134794365Y-129285828D01*
X134802630Y-129262729D01*
X134813120Y-129240550D01*
X134825732Y-129219507D01*
X134840347Y-129199801D01*
X134856823Y-129181623D01*
X134875001Y-129165147D01*
X134894707Y-129150532D01*
X134915750Y-129137920D01*
X134937929Y-129127430D01*
X134961028Y-129119165D01*
X134984827Y-129113204D01*
X135009095Y-129109604D01*
X135033599Y-129108400D01*
X135933601Y-129108400D01*
X135958105Y-129109604D01*
X135958105Y-129109604D01*
G37*
D14*
X135483600Y-129683400D03*
D13*
G36*
X135958105Y-131159604D02*
G01*
X135982373Y-131163204D01*
X136006172Y-131169165D01*
X136029271Y-131177430D01*
X136051450Y-131187920D01*
X136072493Y-131200532D01*
X136092199Y-131215147D01*
X136110377Y-131231623D01*
X136126853Y-131249801D01*
X136141468Y-131269507D01*
X136154080Y-131290550D01*
X136164570Y-131312729D01*
X136172835Y-131335828D01*
X136178796Y-131359627D01*
X136182396Y-131383895D01*
X136183600Y-131408399D01*
X136183600Y-132058401D01*
X136182396Y-132082905D01*
X136178796Y-132107173D01*
X136172835Y-132130972D01*
X136164570Y-132154071D01*
X136154080Y-132176250D01*
X136141468Y-132197293D01*
X136126853Y-132216999D01*
X136110377Y-132235177D01*
X136092199Y-132251653D01*
X136072493Y-132266268D01*
X136051450Y-132278880D01*
X136029271Y-132289370D01*
X136006172Y-132297635D01*
X135982373Y-132303596D01*
X135958105Y-132307196D01*
X135933601Y-132308400D01*
X135033599Y-132308400D01*
X135009095Y-132307196D01*
X134984827Y-132303596D01*
X134961028Y-132297635D01*
X134937929Y-132289370D01*
X134915750Y-132278880D01*
X134894707Y-132266268D01*
X134875001Y-132251653D01*
X134856823Y-132235177D01*
X134840347Y-132216999D01*
X134825732Y-132197293D01*
X134813120Y-132176250D01*
X134802630Y-132154071D01*
X134794365Y-132130972D01*
X134788404Y-132107173D01*
X134784804Y-132082905D01*
X134783600Y-132058401D01*
X134783600Y-131408399D01*
X134784804Y-131383895D01*
X134788404Y-131359627D01*
X134794365Y-131335828D01*
X134802630Y-131312729D01*
X134813120Y-131290550D01*
X134825732Y-131269507D01*
X134840347Y-131249801D01*
X134856823Y-131231623D01*
X134875001Y-131215147D01*
X134894707Y-131200532D01*
X134915750Y-131187920D01*
X134937929Y-131177430D01*
X134961028Y-131169165D01*
X134984827Y-131163204D01*
X135009095Y-131159604D01*
X135033599Y-131158400D01*
X135933601Y-131158400D01*
X135958105Y-131159604D01*
X135958105Y-131159604D01*
G37*
D14*
X135483600Y-131733400D03*
D13*
G36*
X141546105Y-129118604D02*
G01*
X141570373Y-129122204D01*
X141594172Y-129128165D01*
X141617271Y-129136430D01*
X141639450Y-129146920D01*
X141660493Y-129159532D01*
X141680199Y-129174147D01*
X141698377Y-129190623D01*
X141714853Y-129208801D01*
X141729468Y-129228507D01*
X141742080Y-129249550D01*
X141752570Y-129271729D01*
X141760835Y-129294828D01*
X141766796Y-129318627D01*
X141770396Y-129342895D01*
X141771600Y-129367399D01*
X141771600Y-130017401D01*
X141770396Y-130041905D01*
X141766796Y-130066173D01*
X141760835Y-130089972D01*
X141752570Y-130113071D01*
X141742080Y-130135250D01*
X141729468Y-130156293D01*
X141714853Y-130175999D01*
X141698377Y-130194177D01*
X141680199Y-130210653D01*
X141660493Y-130225268D01*
X141639450Y-130237880D01*
X141617271Y-130248370D01*
X141594172Y-130256635D01*
X141570373Y-130262596D01*
X141546105Y-130266196D01*
X141521601Y-130267400D01*
X140621599Y-130267400D01*
X140597095Y-130266196D01*
X140572827Y-130262596D01*
X140549028Y-130256635D01*
X140525929Y-130248370D01*
X140503750Y-130237880D01*
X140482707Y-130225268D01*
X140463001Y-130210653D01*
X140444823Y-130194177D01*
X140428347Y-130175999D01*
X140413732Y-130156293D01*
X140401120Y-130135250D01*
X140390630Y-130113071D01*
X140382365Y-130089972D01*
X140376404Y-130066173D01*
X140372804Y-130041905D01*
X140371600Y-130017401D01*
X140371600Y-129367399D01*
X140372804Y-129342895D01*
X140376404Y-129318627D01*
X140382365Y-129294828D01*
X140390630Y-129271729D01*
X140401120Y-129249550D01*
X140413732Y-129228507D01*
X140428347Y-129208801D01*
X140444823Y-129190623D01*
X140463001Y-129174147D01*
X140482707Y-129159532D01*
X140503750Y-129146920D01*
X140525929Y-129136430D01*
X140549028Y-129128165D01*
X140572827Y-129122204D01*
X140597095Y-129118604D01*
X140621599Y-129117400D01*
X141521601Y-129117400D01*
X141546105Y-129118604D01*
X141546105Y-129118604D01*
G37*
D14*
X141071600Y-129692400D03*
D13*
G36*
X141546105Y-131168604D02*
G01*
X141570373Y-131172204D01*
X141594172Y-131178165D01*
X141617271Y-131186430D01*
X141639450Y-131196920D01*
X141660493Y-131209532D01*
X141680199Y-131224147D01*
X141698377Y-131240623D01*
X141714853Y-131258801D01*
X141729468Y-131278507D01*
X141742080Y-131299550D01*
X141752570Y-131321729D01*
X141760835Y-131344828D01*
X141766796Y-131368627D01*
X141770396Y-131392895D01*
X141771600Y-131417399D01*
X141771600Y-132067401D01*
X141770396Y-132091905D01*
X141766796Y-132116173D01*
X141760835Y-132139972D01*
X141752570Y-132163071D01*
X141742080Y-132185250D01*
X141729468Y-132206293D01*
X141714853Y-132225999D01*
X141698377Y-132244177D01*
X141680199Y-132260653D01*
X141660493Y-132275268D01*
X141639450Y-132287880D01*
X141617271Y-132298370D01*
X141594172Y-132306635D01*
X141570373Y-132312596D01*
X141546105Y-132316196D01*
X141521601Y-132317400D01*
X140621599Y-132317400D01*
X140597095Y-132316196D01*
X140572827Y-132312596D01*
X140549028Y-132306635D01*
X140525929Y-132298370D01*
X140503750Y-132287880D01*
X140482707Y-132275268D01*
X140463001Y-132260653D01*
X140444823Y-132244177D01*
X140428347Y-132225999D01*
X140413732Y-132206293D01*
X140401120Y-132185250D01*
X140390630Y-132163071D01*
X140382365Y-132139972D01*
X140376404Y-132116173D01*
X140372804Y-132091905D01*
X140371600Y-132067401D01*
X140371600Y-131417399D01*
X140372804Y-131392895D01*
X140376404Y-131368627D01*
X140382365Y-131344828D01*
X140390630Y-131321729D01*
X140401120Y-131299550D01*
X140413732Y-131278507D01*
X140428347Y-131258801D01*
X140444823Y-131240623D01*
X140463001Y-131224147D01*
X140482707Y-131209532D01*
X140503750Y-131196920D01*
X140525929Y-131186430D01*
X140549028Y-131178165D01*
X140572827Y-131172204D01*
X140597095Y-131168604D01*
X140621599Y-131167400D01*
X141521601Y-131167400D01*
X141546105Y-131168604D01*
X141546105Y-131168604D01*
G37*
D14*
X141071600Y-131742400D03*
D13*
G36*
X147286505Y-139888204D02*
G01*
X147310773Y-139891804D01*
X147334572Y-139897765D01*
X147357671Y-139906030D01*
X147379850Y-139916520D01*
X147400893Y-139929132D01*
X147420599Y-139943747D01*
X147438777Y-139960223D01*
X147455253Y-139978401D01*
X147469868Y-139998107D01*
X147482480Y-140019150D01*
X147492970Y-140041329D01*
X147501235Y-140064428D01*
X147507196Y-140088227D01*
X147510796Y-140112495D01*
X147512000Y-140136999D01*
X147512000Y-140787001D01*
X147510796Y-140811505D01*
X147507196Y-140835773D01*
X147501235Y-140859572D01*
X147492970Y-140882671D01*
X147482480Y-140904850D01*
X147469868Y-140925893D01*
X147455253Y-140945599D01*
X147438777Y-140963777D01*
X147420599Y-140980253D01*
X147400893Y-140994868D01*
X147379850Y-141007480D01*
X147357671Y-141017970D01*
X147334572Y-141026235D01*
X147310773Y-141032196D01*
X147286505Y-141035796D01*
X147262001Y-141037000D01*
X146361999Y-141037000D01*
X146337495Y-141035796D01*
X146313227Y-141032196D01*
X146289428Y-141026235D01*
X146266329Y-141017970D01*
X146244150Y-141007480D01*
X146223107Y-140994868D01*
X146203401Y-140980253D01*
X146185223Y-140963777D01*
X146168747Y-140945599D01*
X146154132Y-140925893D01*
X146141520Y-140904850D01*
X146131030Y-140882671D01*
X146122765Y-140859572D01*
X146116804Y-140835773D01*
X146113204Y-140811505D01*
X146112000Y-140787001D01*
X146112000Y-140136999D01*
X146113204Y-140112495D01*
X146116804Y-140088227D01*
X146122765Y-140064428D01*
X146131030Y-140041329D01*
X146141520Y-140019150D01*
X146154132Y-139998107D01*
X146168747Y-139978401D01*
X146185223Y-139960223D01*
X146203401Y-139943747D01*
X146223107Y-139929132D01*
X146244150Y-139916520D01*
X146266329Y-139906030D01*
X146289428Y-139897765D01*
X146313227Y-139891804D01*
X146337495Y-139888204D01*
X146361999Y-139887000D01*
X147262001Y-139887000D01*
X147286505Y-139888204D01*
X147286505Y-139888204D01*
G37*
D14*
X146812000Y-140462000D03*
D13*
G36*
X147286505Y-141938204D02*
G01*
X147310773Y-141941804D01*
X147334572Y-141947765D01*
X147357671Y-141956030D01*
X147379850Y-141966520D01*
X147400893Y-141979132D01*
X147420599Y-141993747D01*
X147438777Y-142010223D01*
X147455253Y-142028401D01*
X147469868Y-142048107D01*
X147482480Y-142069150D01*
X147492970Y-142091329D01*
X147501235Y-142114428D01*
X147507196Y-142138227D01*
X147510796Y-142162495D01*
X147512000Y-142186999D01*
X147512000Y-142837001D01*
X147510796Y-142861505D01*
X147507196Y-142885773D01*
X147501235Y-142909572D01*
X147492970Y-142932671D01*
X147482480Y-142954850D01*
X147469868Y-142975893D01*
X147455253Y-142995599D01*
X147438777Y-143013777D01*
X147420599Y-143030253D01*
X147400893Y-143044868D01*
X147379850Y-143057480D01*
X147357671Y-143067970D01*
X147334572Y-143076235D01*
X147310773Y-143082196D01*
X147286505Y-143085796D01*
X147262001Y-143087000D01*
X146361999Y-143087000D01*
X146337495Y-143085796D01*
X146313227Y-143082196D01*
X146289428Y-143076235D01*
X146266329Y-143067970D01*
X146244150Y-143057480D01*
X146223107Y-143044868D01*
X146203401Y-143030253D01*
X146185223Y-143013777D01*
X146168747Y-142995599D01*
X146154132Y-142975893D01*
X146141520Y-142954850D01*
X146131030Y-142932671D01*
X146122765Y-142909572D01*
X146116804Y-142885773D01*
X146113204Y-142861505D01*
X146112000Y-142837001D01*
X146112000Y-142186999D01*
X146113204Y-142162495D01*
X146116804Y-142138227D01*
X146122765Y-142114428D01*
X146131030Y-142091329D01*
X146141520Y-142069150D01*
X146154132Y-142048107D01*
X146168747Y-142028401D01*
X146185223Y-142010223D01*
X146203401Y-141993747D01*
X146223107Y-141979132D01*
X146244150Y-141966520D01*
X146266329Y-141956030D01*
X146289428Y-141947765D01*
X146313227Y-141941804D01*
X146337495Y-141938204D01*
X146361999Y-141937000D01*
X147262001Y-141937000D01*
X147286505Y-141938204D01*
X147286505Y-141938204D01*
G37*
D14*
X146812000Y-142512000D03*
D13*
G36*
X147134105Y-129118604D02*
G01*
X147158373Y-129122204D01*
X147182172Y-129128165D01*
X147205271Y-129136430D01*
X147227450Y-129146920D01*
X147248493Y-129159532D01*
X147268199Y-129174147D01*
X147286377Y-129190623D01*
X147302853Y-129208801D01*
X147317468Y-129228507D01*
X147330080Y-129249550D01*
X147340570Y-129271729D01*
X147348835Y-129294828D01*
X147354796Y-129318627D01*
X147358396Y-129342895D01*
X147359600Y-129367399D01*
X147359600Y-130017401D01*
X147358396Y-130041905D01*
X147354796Y-130066173D01*
X147348835Y-130089972D01*
X147340570Y-130113071D01*
X147330080Y-130135250D01*
X147317468Y-130156293D01*
X147302853Y-130175999D01*
X147286377Y-130194177D01*
X147268199Y-130210653D01*
X147248493Y-130225268D01*
X147227450Y-130237880D01*
X147205271Y-130248370D01*
X147182172Y-130256635D01*
X147158373Y-130262596D01*
X147134105Y-130266196D01*
X147109601Y-130267400D01*
X146209599Y-130267400D01*
X146185095Y-130266196D01*
X146160827Y-130262596D01*
X146137028Y-130256635D01*
X146113929Y-130248370D01*
X146091750Y-130237880D01*
X146070707Y-130225268D01*
X146051001Y-130210653D01*
X146032823Y-130194177D01*
X146016347Y-130175999D01*
X146001732Y-130156293D01*
X145989120Y-130135250D01*
X145978630Y-130113071D01*
X145970365Y-130089972D01*
X145964404Y-130066173D01*
X145960804Y-130041905D01*
X145959600Y-130017401D01*
X145959600Y-129367399D01*
X145960804Y-129342895D01*
X145964404Y-129318627D01*
X145970365Y-129294828D01*
X145978630Y-129271729D01*
X145989120Y-129249550D01*
X146001732Y-129228507D01*
X146016347Y-129208801D01*
X146032823Y-129190623D01*
X146051001Y-129174147D01*
X146070707Y-129159532D01*
X146091750Y-129146920D01*
X146113929Y-129136430D01*
X146137028Y-129128165D01*
X146160827Y-129122204D01*
X146185095Y-129118604D01*
X146209599Y-129117400D01*
X147109601Y-129117400D01*
X147134105Y-129118604D01*
X147134105Y-129118604D01*
G37*
D14*
X146659600Y-129692400D03*
D13*
G36*
X147134105Y-131168604D02*
G01*
X147158373Y-131172204D01*
X147182172Y-131178165D01*
X147205271Y-131186430D01*
X147227450Y-131196920D01*
X147248493Y-131209532D01*
X147268199Y-131224147D01*
X147286377Y-131240623D01*
X147302853Y-131258801D01*
X147317468Y-131278507D01*
X147330080Y-131299550D01*
X147340570Y-131321729D01*
X147348835Y-131344828D01*
X147354796Y-131368627D01*
X147358396Y-131392895D01*
X147359600Y-131417399D01*
X147359600Y-132067401D01*
X147358396Y-132091905D01*
X147354796Y-132116173D01*
X147348835Y-132139972D01*
X147340570Y-132163071D01*
X147330080Y-132185250D01*
X147317468Y-132206293D01*
X147302853Y-132225999D01*
X147286377Y-132244177D01*
X147268199Y-132260653D01*
X147248493Y-132275268D01*
X147227450Y-132287880D01*
X147205271Y-132298370D01*
X147182172Y-132306635D01*
X147158373Y-132312596D01*
X147134105Y-132316196D01*
X147109601Y-132317400D01*
X146209599Y-132317400D01*
X146185095Y-132316196D01*
X146160827Y-132312596D01*
X146137028Y-132306635D01*
X146113929Y-132298370D01*
X146091750Y-132287880D01*
X146070707Y-132275268D01*
X146051001Y-132260653D01*
X146032823Y-132244177D01*
X146016347Y-132225999D01*
X146001732Y-132206293D01*
X145989120Y-132185250D01*
X145978630Y-132163071D01*
X145970365Y-132139972D01*
X145964404Y-132116173D01*
X145960804Y-132091905D01*
X145959600Y-132067401D01*
X145959600Y-131417399D01*
X145960804Y-131392895D01*
X145964404Y-131368627D01*
X145970365Y-131344828D01*
X145978630Y-131321729D01*
X145989120Y-131299550D01*
X146001732Y-131278507D01*
X146016347Y-131258801D01*
X146032823Y-131240623D01*
X146051001Y-131224147D01*
X146070707Y-131209532D01*
X146091750Y-131196920D01*
X146113929Y-131186430D01*
X146137028Y-131178165D01*
X146160827Y-131172204D01*
X146185095Y-131168604D01*
X146209599Y-131167400D01*
X147109601Y-131167400D01*
X147134105Y-131168604D01*
X147134105Y-131168604D01*
G37*
D14*
X146659600Y-131742400D03*
D13*
G36*
X144848105Y-141945604D02*
G01*
X144872373Y-141949204D01*
X144896172Y-141955165D01*
X144919271Y-141963430D01*
X144941450Y-141973920D01*
X144962493Y-141986532D01*
X144982199Y-142001147D01*
X145000377Y-142017623D01*
X145016853Y-142035801D01*
X145031468Y-142055507D01*
X145044080Y-142076550D01*
X145054570Y-142098729D01*
X145062835Y-142121828D01*
X145068796Y-142145627D01*
X145072396Y-142169895D01*
X145073600Y-142194399D01*
X145073600Y-142844401D01*
X145072396Y-142868905D01*
X145068796Y-142893173D01*
X145062835Y-142916972D01*
X145054570Y-142940071D01*
X145044080Y-142962250D01*
X145031468Y-142983293D01*
X145016853Y-143002999D01*
X145000377Y-143021177D01*
X144982199Y-143037653D01*
X144962493Y-143052268D01*
X144941450Y-143064880D01*
X144919271Y-143075370D01*
X144896172Y-143083635D01*
X144872373Y-143089596D01*
X144848105Y-143093196D01*
X144823601Y-143094400D01*
X143923599Y-143094400D01*
X143899095Y-143093196D01*
X143874827Y-143089596D01*
X143851028Y-143083635D01*
X143827929Y-143075370D01*
X143805750Y-143064880D01*
X143784707Y-143052268D01*
X143765001Y-143037653D01*
X143746823Y-143021177D01*
X143730347Y-143002999D01*
X143715732Y-142983293D01*
X143703120Y-142962250D01*
X143692630Y-142940071D01*
X143684365Y-142916972D01*
X143678404Y-142893173D01*
X143674804Y-142868905D01*
X143673600Y-142844401D01*
X143673600Y-142194399D01*
X143674804Y-142169895D01*
X143678404Y-142145627D01*
X143684365Y-142121828D01*
X143692630Y-142098729D01*
X143703120Y-142076550D01*
X143715732Y-142055507D01*
X143730347Y-142035801D01*
X143746823Y-142017623D01*
X143765001Y-142001147D01*
X143784707Y-141986532D01*
X143805750Y-141973920D01*
X143827929Y-141963430D01*
X143851028Y-141955165D01*
X143874827Y-141949204D01*
X143899095Y-141945604D01*
X143923599Y-141944400D01*
X144823601Y-141944400D01*
X144848105Y-141945604D01*
X144848105Y-141945604D01*
G37*
D14*
X144373600Y-142519400D03*
D13*
G36*
X144848105Y-139895604D02*
G01*
X144872373Y-139899204D01*
X144896172Y-139905165D01*
X144919271Y-139913430D01*
X144941450Y-139923920D01*
X144962493Y-139936532D01*
X144982199Y-139951147D01*
X145000377Y-139967623D01*
X145016853Y-139985801D01*
X145031468Y-140005507D01*
X145044080Y-140026550D01*
X145054570Y-140048729D01*
X145062835Y-140071828D01*
X145068796Y-140095627D01*
X145072396Y-140119895D01*
X145073600Y-140144399D01*
X145073600Y-140794401D01*
X145072396Y-140818905D01*
X145068796Y-140843173D01*
X145062835Y-140866972D01*
X145054570Y-140890071D01*
X145044080Y-140912250D01*
X145031468Y-140933293D01*
X145016853Y-140952999D01*
X145000377Y-140971177D01*
X144982199Y-140987653D01*
X144962493Y-141002268D01*
X144941450Y-141014880D01*
X144919271Y-141025370D01*
X144896172Y-141033635D01*
X144872373Y-141039596D01*
X144848105Y-141043196D01*
X144823601Y-141044400D01*
X143923599Y-141044400D01*
X143899095Y-141043196D01*
X143874827Y-141039596D01*
X143851028Y-141033635D01*
X143827929Y-141025370D01*
X143805750Y-141014880D01*
X143784707Y-141002268D01*
X143765001Y-140987653D01*
X143746823Y-140971177D01*
X143730347Y-140952999D01*
X143715732Y-140933293D01*
X143703120Y-140912250D01*
X143692630Y-140890071D01*
X143684365Y-140866972D01*
X143678404Y-140843173D01*
X143674804Y-140818905D01*
X143673600Y-140794401D01*
X143673600Y-140144399D01*
X143674804Y-140119895D01*
X143678404Y-140095627D01*
X143684365Y-140071828D01*
X143692630Y-140048729D01*
X143703120Y-140026550D01*
X143715732Y-140005507D01*
X143730347Y-139985801D01*
X143746823Y-139967623D01*
X143765001Y-139951147D01*
X143784707Y-139936532D01*
X143805750Y-139923920D01*
X143827929Y-139913430D01*
X143851028Y-139905165D01*
X143874827Y-139899204D01*
X143899095Y-139895604D01*
X143923599Y-139894400D01*
X144823601Y-139894400D01*
X144848105Y-139895604D01*
X144848105Y-139895604D01*
G37*
D14*
X144373600Y-140469400D03*
D13*
G36*
X144340105Y-131168604D02*
G01*
X144364373Y-131172204D01*
X144388172Y-131178165D01*
X144411271Y-131186430D01*
X144433450Y-131196920D01*
X144454493Y-131209532D01*
X144474199Y-131224147D01*
X144492377Y-131240623D01*
X144508853Y-131258801D01*
X144523468Y-131278507D01*
X144536080Y-131299550D01*
X144546570Y-131321729D01*
X144554835Y-131344828D01*
X144560796Y-131368627D01*
X144564396Y-131392895D01*
X144565600Y-131417399D01*
X144565600Y-132067401D01*
X144564396Y-132091905D01*
X144560796Y-132116173D01*
X144554835Y-132139972D01*
X144546570Y-132163071D01*
X144536080Y-132185250D01*
X144523468Y-132206293D01*
X144508853Y-132225999D01*
X144492377Y-132244177D01*
X144474199Y-132260653D01*
X144454493Y-132275268D01*
X144433450Y-132287880D01*
X144411271Y-132298370D01*
X144388172Y-132306635D01*
X144364373Y-132312596D01*
X144340105Y-132316196D01*
X144315601Y-132317400D01*
X143415599Y-132317400D01*
X143391095Y-132316196D01*
X143366827Y-132312596D01*
X143343028Y-132306635D01*
X143319929Y-132298370D01*
X143297750Y-132287880D01*
X143276707Y-132275268D01*
X143257001Y-132260653D01*
X143238823Y-132244177D01*
X143222347Y-132225999D01*
X143207732Y-132206293D01*
X143195120Y-132185250D01*
X143184630Y-132163071D01*
X143176365Y-132139972D01*
X143170404Y-132116173D01*
X143166804Y-132091905D01*
X143165600Y-132067401D01*
X143165600Y-131417399D01*
X143166804Y-131392895D01*
X143170404Y-131368627D01*
X143176365Y-131344828D01*
X143184630Y-131321729D01*
X143195120Y-131299550D01*
X143207732Y-131278507D01*
X143222347Y-131258801D01*
X143238823Y-131240623D01*
X143257001Y-131224147D01*
X143276707Y-131209532D01*
X143297750Y-131196920D01*
X143319929Y-131186430D01*
X143343028Y-131178165D01*
X143366827Y-131172204D01*
X143391095Y-131168604D01*
X143415599Y-131167400D01*
X144315601Y-131167400D01*
X144340105Y-131168604D01*
X144340105Y-131168604D01*
G37*
D14*
X143865600Y-131742400D03*
D13*
G36*
X144340105Y-129118604D02*
G01*
X144364373Y-129122204D01*
X144388172Y-129128165D01*
X144411271Y-129136430D01*
X144433450Y-129146920D01*
X144454493Y-129159532D01*
X144474199Y-129174147D01*
X144492377Y-129190623D01*
X144508853Y-129208801D01*
X144523468Y-129228507D01*
X144536080Y-129249550D01*
X144546570Y-129271729D01*
X144554835Y-129294828D01*
X144560796Y-129318627D01*
X144564396Y-129342895D01*
X144565600Y-129367399D01*
X144565600Y-130017401D01*
X144564396Y-130041905D01*
X144560796Y-130066173D01*
X144554835Y-130089972D01*
X144546570Y-130113071D01*
X144536080Y-130135250D01*
X144523468Y-130156293D01*
X144508853Y-130175999D01*
X144492377Y-130194177D01*
X144474199Y-130210653D01*
X144454493Y-130225268D01*
X144433450Y-130237880D01*
X144411271Y-130248370D01*
X144388172Y-130256635D01*
X144364373Y-130262596D01*
X144340105Y-130266196D01*
X144315601Y-130267400D01*
X143415599Y-130267400D01*
X143391095Y-130266196D01*
X143366827Y-130262596D01*
X143343028Y-130256635D01*
X143319929Y-130248370D01*
X143297750Y-130237880D01*
X143276707Y-130225268D01*
X143257001Y-130210653D01*
X143238823Y-130194177D01*
X143222347Y-130175999D01*
X143207732Y-130156293D01*
X143195120Y-130135250D01*
X143184630Y-130113071D01*
X143176365Y-130089972D01*
X143170404Y-130066173D01*
X143166804Y-130041905D01*
X143165600Y-130017401D01*
X143165600Y-129367399D01*
X143166804Y-129342895D01*
X143170404Y-129318627D01*
X143176365Y-129294828D01*
X143184630Y-129271729D01*
X143195120Y-129249550D01*
X143207732Y-129228507D01*
X143222347Y-129208801D01*
X143238823Y-129190623D01*
X143257001Y-129174147D01*
X143276707Y-129159532D01*
X143297750Y-129146920D01*
X143319929Y-129136430D01*
X143343028Y-129128165D01*
X143366827Y-129122204D01*
X143391095Y-129118604D01*
X143415599Y-129117400D01*
X144315601Y-129117400D01*
X144340105Y-129118604D01*
X144340105Y-129118604D01*
G37*
D14*
X143865600Y-129692400D03*
D13*
G36*
X130404905Y-132448004D02*
G01*
X130429173Y-132451604D01*
X130452972Y-132457565D01*
X130476071Y-132465830D01*
X130498250Y-132476320D01*
X130519293Y-132488932D01*
X130538999Y-132503547D01*
X130557177Y-132520023D01*
X130573653Y-132538201D01*
X130588268Y-132557907D01*
X130600880Y-132578950D01*
X130611370Y-132601129D01*
X130619635Y-132624228D01*
X130625596Y-132648027D01*
X130629196Y-132672295D01*
X130630400Y-132696799D01*
X130630400Y-133596801D01*
X130629196Y-133621305D01*
X130625596Y-133645573D01*
X130619635Y-133669372D01*
X130611370Y-133692471D01*
X130600880Y-133714650D01*
X130588268Y-133735693D01*
X130573653Y-133755399D01*
X130557177Y-133773577D01*
X130538999Y-133790053D01*
X130519293Y-133804668D01*
X130498250Y-133817280D01*
X130476071Y-133827770D01*
X130452972Y-133836035D01*
X130429173Y-133841996D01*
X130404905Y-133845596D01*
X130380401Y-133846800D01*
X129730399Y-133846800D01*
X129705895Y-133845596D01*
X129681627Y-133841996D01*
X129657828Y-133836035D01*
X129634729Y-133827770D01*
X129612550Y-133817280D01*
X129591507Y-133804668D01*
X129571801Y-133790053D01*
X129553623Y-133773577D01*
X129537147Y-133755399D01*
X129522532Y-133735693D01*
X129509920Y-133714650D01*
X129499430Y-133692471D01*
X129491165Y-133669372D01*
X129485204Y-133645573D01*
X129481604Y-133621305D01*
X129480400Y-133596801D01*
X129480400Y-132696799D01*
X129481604Y-132672295D01*
X129485204Y-132648027D01*
X129491165Y-132624228D01*
X129499430Y-132601129D01*
X129509920Y-132578950D01*
X129522532Y-132557907D01*
X129537147Y-132538201D01*
X129553623Y-132520023D01*
X129571801Y-132503547D01*
X129591507Y-132488932D01*
X129612550Y-132476320D01*
X129634729Y-132465830D01*
X129657828Y-132457565D01*
X129681627Y-132451604D01*
X129705895Y-132448004D01*
X129730399Y-132446800D01*
X130380401Y-132446800D01*
X130404905Y-132448004D01*
X130404905Y-132448004D01*
G37*
D14*
X130055400Y-133146800D03*
D13*
G36*
X132454905Y-132448004D02*
G01*
X132479173Y-132451604D01*
X132502972Y-132457565D01*
X132526071Y-132465830D01*
X132548250Y-132476320D01*
X132569293Y-132488932D01*
X132588999Y-132503547D01*
X132607177Y-132520023D01*
X132623653Y-132538201D01*
X132638268Y-132557907D01*
X132650880Y-132578950D01*
X132661370Y-132601129D01*
X132669635Y-132624228D01*
X132675596Y-132648027D01*
X132679196Y-132672295D01*
X132680400Y-132696799D01*
X132680400Y-133596801D01*
X132679196Y-133621305D01*
X132675596Y-133645573D01*
X132669635Y-133669372D01*
X132661370Y-133692471D01*
X132650880Y-133714650D01*
X132638268Y-133735693D01*
X132623653Y-133755399D01*
X132607177Y-133773577D01*
X132588999Y-133790053D01*
X132569293Y-133804668D01*
X132548250Y-133817280D01*
X132526071Y-133827770D01*
X132502972Y-133836035D01*
X132479173Y-133841996D01*
X132454905Y-133845596D01*
X132430401Y-133846800D01*
X131780399Y-133846800D01*
X131755895Y-133845596D01*
X131731627Y-133841996D01*
X131707828Y-133836035D01*
X131684729Y-133827770D01*
X131662550Y-133817280D01*
X131641507Y-133804668D01*
X131621801Y-133790053D01*
X131603623Y-133773577D01*
X131587147Y-133755399D01*
X131572532Y-133735693D01*
X131559920Y-133714650D01*
X131549430Y-133692471D01*
X131541165Y-133669372D01*
X131535204Y-133645573D01*
X131531604Y-133621305D01*
X131530400Y-133596801D01*
X131530400Y-132696799D01*
X131531604Y-132672295D01*
X131535204Y-132648027D01*
X131541165Y-132624228D01*
X131549430Y-132601129D01*
X131559920Y-132578950D01*
X131572532Y-132557907D01*
X131587147Y-132538201D01*
X131603623Y-132520023D01*
X131621801Y-132503547D01*
X131641507Y-132488932D01*
X131662550Y-132476320D01*
X131684729Y-132465830D01*
X131707828Y-132457565D01*
X131731627Y-132451604D01*
X131755895Y-132448004D01*
X131780399Y-132446800D01*
X132430401Y-132446800D01*
X132454905Y-132448004D01*
X132454905Y-132448004D01*
G37*
D14*
X132105400Y-133146800D03*
D13*
G36*
X125241305Y-132422604D02*
G01*
X125265573Y-132426204D01*
X125289372Y-132432165D01*
X125312471Y-132440430D01*
X125334650Y-132450920D01*
X125355693Y-132463532D01*
X125375399Y-132478147D01*
X125393577Y-132494623D01*
X125410053Y-132512801D01*
X125424668Y-132532507D01*
X125437280Y-132553550D01*
X125447770Y-132575729D01*
X125456035Y-132598828D01*
X125461996Y-132622627D01*
X125465596Y-132646895D01*
X125466800Y-132671399D01*
X125466800Y-133571401D01*
X125465596Y-133595905D01*
X125461996Y-133620173D01*
X125456035Y-133643972D01*
X125447770Y-133667071D01*
X125437280Y-133689250D01*
X125424668Y-133710293D01*
X125410053Y-133729999D01*
X125393577Y-133748177D01*
X125375399Y-133764653D01*
X125355693Y-133779268D01*
X125334650Y-133791880D01*
X125312471Y-133802370D01*
X125289372Y-133810635D01*
X125265573Y-133816596D01*
X125241305Y-133820196D01*
X125216801Y-133821400D01*
X124566799Y-133821400D01*
X124542295Y-133820196D01*
X124518027Y-133816596D01*
X124494228Y-133810635D01*
X124471129Y-133802370D01*
X124448950Y-133791880D01*
X124427907Y-133779268D01*
X124408201Y-133764653D01*
X124390023Y-133748177D01*
X124373547Y-133729999D01*
X124358932Y-133710293D01*
X124346320Y-133689250D01*
X124335830Y-133667071D01*
X124327565Y-133643972D01*
X124321604Y-133620173D01*
X124318004Y-133595905D01*
X124316800Y-133571401D01*
X124316800Y-132671399D01*
X124318004Y-132646895D01*
X124321604Y-132622627D01*
X124327565Y-132598828D01*
X124335830Y-132575729D01*
X124346320Y-132553550D01*
X124358932Y-132532507D01*
X124373547Y-132512801D01*
X124390023Y-132494623D01*
X124408201Y-132478147D01*
X124427907Y-132463532D01*
X124448950Y-132450920D01*
X124471129Y-132440430D01*
X124494228Y-132432165D01*
X124518027Y-132426204D01*
X124542295Y-132422604D01*
X124566799Y-132421400D01*
X125216801Y-132421400D01*
X125241305Y-132422604D01*
X125241305Y-132422604D01*
G37*
D14*
X124891800Y-133121400D03*
D13*
G36*
X123191305Y-132422604D02*
G01*
X123215573Y-132426204D01*
X123239372Y-132432165D01*
X123262471Y-132440430D01*
X123284650Y-132450920D01*
X123305693Y-132463532D01*
X123325399Y-132478147D01*
X123343577Y-132494623D01*
X123360053Y-132512801D01*
X123374668Y-132532507D01*
X123387280Y-132553550D01*
X123397770Y-132575729D01*
X123406035Y-132598828D01*
X123411996Y-132622627D01*
X123415596Y-132646895D01*
X123416800Y-132671399D01*
X123416800Y-133571401D01*
X123415596Y-133595905D01*
X123411996Y-133620173D01*
X123406035Y-133643972D01*
X123397770Y-133667071D01*
X123387280Y-133689250D01*
X123374668Y-133710293D01*
X123360053Y-133729999D01*
X123343577Y-133748177D01*
X123325399Y-133764653D01*
X123305693Y-133779268D01*
X123284650Y-133791880D01*
X123262471Y-133802370D01*
X123239372Y-133810635D01*
X123215573Y-133816596D01*
X123191305Y-133820196D01*
X123166801Y-133821400D01*
X122516799Y-133821400D01*
X122492295Y-133820196D01*
X122468027Y-133816596D01*
X122444228Y-133810635D01*
X122421129Y-133802370D01*
X122398950Y-133791880D01*
X122377907Y-133779268D01*
X122358201Y-133764653D01*
X122340023Y-133748177D01*
X122323547Y-133729999D01*
X122308932Y-133710293D01*
X122296320Y-133689250D01*
X122285830Y-133667071D01*
X122277565Y-133643972D01*
X122271604Y-133620173D01*
X122268004Y-133595905D01*
X122266800Y-133571401D01*
X122266800Y-132671399D01*
X122268004Y-132646895D01*
X122271604Y-132622627D01*
X122277565Y-132598828D01*
X122285830Y-132575729D01*
X122296320Y-132553550D01*
X122308932Y-132532507D01*
X122323547Y-132512801D01*
X122340023Y-132494623D01*
X122358201Y-132478147D01*
X122377907Y-132463532D01*
X122398950Y-132450920D01*
X122421129Y-132440430D01*
X122444228Y-132432165D01*
X122468027Y-132426204D01*
X122492295Y-132422604D01*
X122516799Y-132421400D01*
X123166801Y-132421400D01*
X123191305Y-132422604D01*
X123191305Y-132422604D01*
G37*
D14*
X122841800Y-133121400D03*
D11*
X117348000Y-128778000D03*
D10*
X117348000Y-126238000D03*
X151638000Y-139369800D03*
D11*
X151638000Y-136829800D03*
X151638000Y-134289800D03*
D15*
X133451600Y-124587000D03*
D13*
G36*
X133951600Y-125337000D02*
G01*
X132801600Y-125337000D01*
X133301600Y-124587000D01*
X132801600Y-123837000D01*
X133951600Y-123837000D01*
X133951600Y-125337000D01*
X133951600Y-125337000D01*
G37*
D15*
X132001600Y-124587000D03*
D13*
G36*
X133001600Y-124587000D02*
G01*
X132501600Y-125337000D01*
X131501600Y-125337000D01*
X131501600Y-123837000D01*
X132501600Y-123837000D01*
X133001600Y-124587000D01*
X133001600Y-124587000D01*
G37*
G36*
X137405905Y-123064404D02*
G01*
X137430173Y-123068004D01*
X137453972Y-123073965D01*
X137477071Y-123082230D01*
X137499250Y-123092720D01*
X137520293Y-123105332D01*
X137539999Y-123119947D01*
X137558177Y-123136423D01*
X137574653Y-123154601D01*
X137589268Y-123174307D01*
X137601880Y-123195350D01*
X137612370Y-123217529D01*
X137620635Y-123240628D01*
X137626596Y-123264427D01*
X137630196Y-123288695D01*
X137631400Y-123313199D01*
X137631400Y-123963201D01*
X137630196Y-123987705D01*
X137626596Y-124011973D01*
X137620635Y-124035772D01*
X137612370Y-124058871D01*
X137601880Y-124081050D01*
X137589268Y-124102093D01*
X137574653Y-124121799D01*
X137558177Y-124139977D01*
X137539999Y-124156453D01*
X137520293Y-124171068D01*
X137499250Y-124183680D01*
X137477071Y-124194170D01*
X137453972Y-124202435D01*
X137430173Y-124208396D01*
X137405905Y-124211996D01*
X137381401Y-124213200D01*
X136481399Y-124213200D01*
X136456895Y-124211996D01*
X136432627Y-124208396D01*
X136408828Y-124202435D01*
X136385729Y-124194170D01*
X136363550Y-124183680D01*
X136342507Y-124171068D01*
X136322801Y-124156453D01*
X136304623Y-124139977D01*
X136288147Y-124121799D01*
X136273532Y-124102093D01*
X136260920Y-124081050D01*
X136250430Y-124058871D01*
X136242165Y-124035772D01*
X136236204Y-124011973D01*
X136232604Y-123987705D01*
X136231400Y-123963201D01*
X136231400Y-123313199D01*
X136232604Y-123288695D01*
X136236204Y-123264427D01*
X136242165Y-123240628D01*
X136250430Y-123217529D01*
X136260920Y-123195350D01*
X136273532Y-123174307D01*
X136288147Y-123154601D01*
X136304623Y-123136423D01*
X136322801Y-123119947D01*
X136342507Y-123105332D01*
X136363550Y-123092720D01*
X136385729Y-123082230D01*
X136408828Y-123073965D01*
X136432627Y-123068004D01*
X136456895Y-123064404D01*
X136481399Y-123063200D01*
X137381401Y-123063200D01*
X137405905Y-123064404D01*
X137405905Y-123064404D01*
G37*
D14*
X136931400Y-123638200D03*
D13*
G36*
X137405905Y-125114404D02*
G01*
X137430173Y-125118004D01*
X137453972Y-125123965D01*
X137477071Y-125132230D01*
X137499250Y-125142720D01*
X137520293Y-125155332D01*
X137539999Y-125169947D01*
X137558177Y-125186423D01*
X137574653Y-125204601D01*
X137589268Y-125224307D01*
X137601880Y-125245350D01*
X137612370Y-125267529D01*
X137620635Y-125290628D01*
X137626596Y-125314427D01*
X137630196Y-125338695D01*
X137631400Y-125363199D01*
X137631400Y-126013201D01*
X137630196Y-126037705D01*
X137626596Y-126061973D01*
X137620635Y-126085772D01*
X137612370Y-126108871D01*
X137601880Y-126131050D01*
X137589268Y-126152093D01*
X137574653Y-126171799D01*
X137558177Y-126189977D01*
X137539999Y-126206453D01*
X137520293Y-126221068D01*
X137499250Y-126233680D01*
X137477071Y-126244170D01*
X137453972Y-126252435D01*
X137430173Y-126258396D01*
X137405905Y-126261996D01*
X137381401Y-126263200D01*
X136481399Y-126263200D01*
X136456895Y-126261996D01*
X136432627Y-126258396D01*
X136408828Y-126252435D01*
X136385729Y-126244170D01*
X136363550Y-126233680D01*
X136342507Y-126221068D01*
X136322801Y-126206453D01*
X136304623Y-126189977D01*
X136288147Y-126171799D01*
X136273532Y-126152093D01*
X136260920Y-126131050D01*
X136250430Y-126108871D01*
X136242165Y-126085772D01*
X136236204Y-126061973D01*
X136232604Y-126037705D01*
X136231400Y-126013201D01*
X136231400Y-125363199D01*
X136232604Y-125338695D01*
X136236204Y-125314427D01*
X136242165Y-125290628D01*
X136250430Y-125267529D01*
X136260920Y-125245350D01*
X136273532Y-125224307D01*
X136288147Y-125204601D01*
X136304623Y-125186423D01*
X136322801Y-125169947D01*
X136342507Y-125155332D01*
X136363550Y-125142720D01*
X136385729Y-125132230D01*
X136408828Y-125123965D01*
X136432627Y-125118004D01*
X136456895Y-125114404D01*
X136481399Y-125113200D01*
X137381401Y-125113200D01*
X137405905Y-125114404D01*
X137405905Y-125114404D01*
G37*
D14*
X136931400Y-125688200D03*
D13*
G36*
X135170705Y-141989004D02*
G01*
X135194973Y-141992604D01*
X135218772Y-141998565D01*
X135241871Y-142006830D01*
X135264050Y-142017320D01*
X135285093Y-142029932D01*
X135304799Y-142044547D01*
X135322977Y-142061023D01*
X135339453Y-142079201D01*
X135354068Y-142098907D01*
X135366680Y-142119950D01*
X135377170Y-142142129D01*
X135385435Y-142165228D01*
X135391396Y-142189027D01*
X135394996Y-142213295D01*
X135396200Y-142237799D01*
X135396200Y-142887801D01*
X135394996Y-142912305D01*
X135391396Y-142936573D01*
X135385435Y-142960372D01*
X135377170Y-142983471D01*
X135366680Y-143005650D01*
X135354068Y-143026693D01*
X135339453Y-143046399D01*
X135322977Y-143064577D01*
X135304799Y-143081053D01*
X135285093Y-143095668D01*
X135264050Y-143108280D01*
X135241871Y-143118770D01*
X135218772Y-143127035D01*
X135194973Y-143132996D01*
X135170705Y-143136596D01*
X135146201Y-143137800D01*
X134246199Y-143137800D01*
X134221695Y-143136596D01*
X134197427Y-143132996D01*
X134173628Y-143127035D01*
X134150529Y-143118770D01*
X134128350Y-143108280D01*
X134107307Y-143095668D01*
X134087601Y-143081053D01*
X134069423Y-143064577D01*
X134052947Y-143046399D01*
X134038332Y-143026693D01*
X134025720Y-143005650D01*
X134015230Y-142983471D01*
X134006965Y-142960372D01*
X134001004Y-142936573D01*
X133997404Y-142912305D01*
X133996200Y-142887801D01*
X133996200Y-142237799D01*
X133997404Y-142213295D01*
X134001004Y-142189027D01*
X134006965Y-142165228D01*
X134015230Y-142142129D01*
X134025720Y-142119950D01*
X134038332Y-142098907D01*
X134052947Y-142079201D01*
X134069423Y-142061023D01*
X134087601Y-142044547D01*
X134107307Y-142029932D01*
X134128350Y-142017320D01*
X134150529Y-142006830D01*
X134173628Y-141998565D01*
X134197427Y-141992604D01*
X134221695Y-141989004D01*
X134246199Y-141987800D01*
X135146201Y-141987800D01*
X135170705Y-141989004D01*
X135170705Y-141989004D01*
G37*
D14*
X134696200Y-142562800D03*
D13*
G36*
X135170705Y-139939004D02*
G01*
X135194973Y-139942604D01*
X135218772Y-139948565D01*
X135241871Y-139956830D01*
X135264050Y-139967320D01*
X135285093Y-139979932D01*
X135304799Y-139994547D01*
X135322977Y-140011023D01*
X135339453Y-140029201D01*
X135354068Y-140048907D01*
X135366680Y-140069950D01*
X135377170Y-140092129D01*
X135385435Y-140115228D01*
X135391396Y-140139027D01*
X135394996Y-140163295D01*
X135396200Y-140187799D01*
X135396200Y-140837801D01*
X135394996Y-140862305D01*
X135391396Y-140886573D01*
X135385435Y-140910372D01*
X135377170Y-140933471D01*
X135366680Y-140955650D01*
X135354068Y-140976693D01*
X135339453Y-140996399D01*
X135322977Y-141014577D01*
X135304799Y-141031053D01*
X135285093Y-141045668D01*
X135264050Y-141058280D01*
X135241871Y-141068770D01*
X135218772Y-141077035D01*
X135194973Y-141082996D01*
X135170705Y-141086596D01*
X135146201Y-141087800D01*
X134246199Y-141087800D01*
X134221695Y-141086596D01*
X134197427Y-141082996D01*
X134173628Y-141077035D01*
X134150529Y-141068770D01*
X134128350Y-141058280D01*
X134107307Y-141045668D01*
X134087601Y-141031053D01*
X134069423Y-141014577D01*
X134052947Y-140996399D01*
X134038332Y-140976693D01*
X134025720Y-140955650D01*
X134015230Y-140933471D01*
X134006965Y-140910372D01*
X134001004Y-140886573D01*
X133997404Y-140862305D01*
X133996200Y-140837801D01*
X133996200Y-140187799D01*
X133997404Y-140163295D01*
X134001004Y-140139027D01*
X134006965Y-140115228D01*
X134015230Y-140092129D01*
X134025720Y-140069950D01*
X134038332Y-140048907D01*
X134052947Y-140029201D01*
X134069423Y-140011023D01*
X134087601Y-139994547D01*
X134107307Y-139979932D01*
X134128350Y-139967320D01*
X134150529Y-139956830D01*
X134173628Y-139948565D01*
X134197427Y-139942604D01*
X134221695Y-139939004D01*
X134246199Y-139937800D01*
X135146201Y-139937800D01*
X135170705Y-139939004D01*
X135170705Y-139939004D01*
G37*
D14*
X134696200Y-140512800D03*
D13*
G36*
X137634505Y-139955404D02*
G01*
X137658773Y-139959004D01*
X137682572Y-139964965D01*
X137705671Y-139973230D01*
X137727850Y-139983720D01*
X137748893Y-139996332D01*
X137768599Y-140010947D01*
X137786777Y-140027423D01*
X137803253Y-140045601D01*
X137817868Y-140065307D01*
X137830480Y-140086350D01*
X137840970Y-140108529D01*
X137849235Y-140131628D01*
X137855196Y-140155427D01*
X137858796Y-140179695D01*
X137860000Y-140204199D01*
X137860000Y-140854201D01*
X137858796Y-140878705D01*
X137855196Y-140902973D01*
X137849235Y-140926772D01*
X137840970Y-140949871D01*
X137830480Y-140972050D01*
X137817868Y-140993093D01*
X137803253Y-141012799D01*
X137786777Y-141030977D01*
X137768599Y-141047453D01*
X137748893Y-141062068D01*
X137727850Y-141074680D01*
X137705671Y-141085170D01*
X137682572Y-141093435D01*
X137658773Y-141099396D01*
X137634505Y-141102996D01*
X137610001Y-141104200D01*
X136709999Y-141104200D01*
X136685495Y-141102996D01*
X136661227Y-141099396D01*
X136637428Y-141093435D01*
X136614329Y-141085170D01*
X136592150Y-141074680D01*
X136571107Y-141062068D01*
X136551401Y-141047453D01*
X136533223Y-141030977D01*
X136516747Y-141012799D01*
X136502132Y-140993093D01*
X136489520Y-140972050D01*
X136479030Y-140949871D01*
X136470765Y-140926772D01*
X136464804Y-140902973D01*
X136461204Y-140878705D01*
X136460000Y-140854201D01*
X136460000Y-140204199D01*
X136461204Y-140179695D01*
X136464804Y-140155427D01*
X136470765Y-140131628D01*
X136479030Y-140108529D01*
X136489520Y-140086350D01*
X136502132Y-140065307D01*
X136516747Y-140045601D01*
X136533223Y-140027423D01*
X136551401Y-140010947D01*
X136571107Y-139996332D01*
X136592150Y-139983720D01*
X136614329Y-139973230D01*
X136637428Y-139964965D01*
X136661227Y-139959004D01*
X136685495Y-139955404D01*
X136709999Y-139954200D01*
X137610001Y-139954200D01*
X137634505Y-139955404D01*
X137634505Y-139955404D01*
G37*
D14*
X137160000Y-140529200D03*
D13*
G36*
X137634505Y-142005404D02*
G01*
X137658773Y-142009004D01*
X137682572Y-142014965D01*
X137705671Y-142023230D01*
X137727850Y-142033720D01*
X137748893Y-142046332D01*
X137768599Y-142060947D01*
X137786777Y-142077423D01*
X137803253Y-142095601D01*
X137817868Y-142115307D01*
X137830480Y-142136350D01*
X137840970Y-142158529D01*
X137849235Y-142181628D01*
X137855196Y-142205427D01*
X137858796Y-142229695D01*
X137860000Y-142254199D01*
X137860000Y-142904201D01*
X137858796Y-142928705D01*
X137855196Y-142952973D01*
X137849235Y-142976772D01*
X137840970Y-142999871D01*
X137830480Y-143022050D01*
X137817868Y-143043093D01*
X137803253Y-143062799D01*
X137786777Y-143080977D01*
X137768599Y-143097453D01*
X137748893Y-143112068D01*
X137727850Y-143124680D01*
X137705671Y-143135170D01*
X137682572Y-143143435D01*
X137658773Y-143149396D01*
X137634505Y-143152996D01*
X137610001Y-143154200D01*
X136709999Y-143154200D01*
X136685495Y-143152996D01*
X136661227Y-143149396D01*
X136637428Y-143143435D01*
X136614329Y-143135170D01*
X136592150Y-143124680D01*
X136571107Y-143112068D01*
X136551401Y-143097453D01*
X136533223Y-143080977D01*
X136516747Y-143062799D01*
X136502132Y-143043093D01*
X136489520Y-143022050D01*
X136479030Y-142999871D01*
X136470765Y-142976772D01*
X136464804Y-142952973D01*
X136461204Y-142928705D01*
X136460000Y-142904201D01*
X136460000Y-142254199D01*
X136461204Y-142229695D01*
X136464804Y-142205427D01*
X136470765Y-142181628D01*
X136479030Y-142158529D01*
X136489520Y-142136350D01*
X136502132Y-142115307D01*
X136516747Y-142095601D01*
X136533223Y-142077423D01*
X136551401Y-142060947D01*
X136571107Y-142046332D01*
X136592150Y-142033720D01*
X136614329Y-142023230D01*
X136637428Y-142014965D01*
X136661227Y-142009004D01*
X136685495Y-142005404D01*
X136709999Y-142004200D01*
X137610001Y-142004200D01*
X137634505Y-142005404D01*
X137634505Y-142005404D01*
G37*
D14*
X137160000Y-142579200D03*
D16*
X114300000Y-137160000D03*
X116840000Y-137160000D03*
X114300000Y-139700000D03*
X116840000Y-139700000D03*
X114300000Y-142240000D03*
X116840000Y-142240000D03*
X114300000Y-144780000D03*
D17*
X116840000Y-144780000D03*
D18*
X146761200Y-139268200D03*
X138709400Y-139014200D03*
X147904200Y-132029200D03*
X145948400Y-132689600D03*
X135661400Y-123012200D03*
X141300200Y-132715000D03*
X119634000Y-138430000D03*
X127254000Y-138176000D03*
X119888000Y-128270000D03*
X121158000Y-128270000D03*
X122428000Y-128270000D03*
X123444000Y-128270000D03*
X123444000Y-129794000D03*
X122428000Y-129794000D03*
X121158000Y-129794000D03*
X119888000Y-129794000D03*
X119126000Y-130810000D03*
X117348000Y-130810000D03*
X115824000Y-130810000D03*
X114808000Y-130810000D03*
X114808000Y-129032000D03*
X114808000Y-127508000D03*
X114808000Y-125984000D03*
X114808000Y-124206000D03*
X117094000Y-123952000D03*
X118872000Y-123952000D03*
X130556000Y-129032000D03*
X131826000Y-129794000D03*
X132588000Y-127254000D03*
X153162000Y-133096000D03*
X153162000Y-131064000D03*
X150876000Y-131064000D03*
X150876000Y-129540000D03*
X149352000Y-129540000D03*
X149352000Y-131064000D03*
X149606000Y-132842000D03*
X153162000Y-128778000D03*
X153162000Y-126746000D03*
X152908000Y-124460000D03*
X140309600Y-137210800D03*
X140335000Y-136144000D03*
X141376400Y-136169400D03*
X142316200Y-137312400D03*
X141427200Y-138226800D03*
X142748000Y-138252200D03*
X143738600Y-138252200D03*
X143611600Y-137261600D03*
X145237200Y-136956800D03*
X145211800Y-135788400D03*
X144195800Y-135534400D03*
X145110200Y-134366000D03*
X148894800Y-134315200D03*
X142180000Y-129794000D03*
X142367000Y-132664200D03*
X137566400Y-137972800D03*
X136931400Y-138709400D03*
X136194800Y-139420600D03*
X123012200Y-142595600D03*
X123063000Y-141401800D03*
X121920000Y-141351000D03*
X121869200Y-142443200D03*
X120802400Y-142494000D03*
X120827800Y-141325600D03*
X119684800Y-142494000D03*
X119354600Y-143662400D03*
X119278400Y-145719800D03*
X132029200Y-142925800D03*
X132029200Y-141782800D03*
X130886200Y-141782800D03*
X130835400Y-142900400D03*
X129743200Y-142875000D03*
X129743200Y-141732000D03*
X128600200Y-141757400D03*
X128549400Y-142798800D03*
X142570200Y-142443200D03*
X141452600Y-142443200D03*
X140208000Y-142443200D03*
X136982200Y-129743200D03*
X148056600Y-141986000D03*
D19*
X134620000Y-132562600D03*
X140553909Y-133895017D03*
X140044946Y-133386054D03*
X143179800Y-135813800D03*
X139623800Y-128828800D03*
X148183600Y-139065000D03*
X150360000Y-140665200D03*
X148840448Y-135958555D03*
X148844000Y-135255000D03*
X139065000Y-140690600D03*
X139141200Y-141452600D03*
X138430000Y-130446400D03*
X138404600Y-129362200D03*
X136677400Y-127558800D03*
D18*
X124409200Y-126390400D03*
D19*
X135409446Y-134977646D03*
X136499600Y-136448800D03*
X136550400Y-135432800D03*
X135966200Y-134188200D03*
X137312400Y-135001000D03*
X135077200Y-136880600D03*
X120599200Y-137058400D03*
X118008400Y-134670800D03*
D20*
X141071600Y-131742400D02*
X143865600Y-131742400D01*
X143865600Y-131742400D02*
X146659600Y-131742400D01*
X146761200Y-140411200D02*
X146812000Y-140462000D01*
X146761200Y-139268200D02*
X146761200Y-140411200D01*
X144381000Y-140462000D02*
X144373600Y-140469400D01*
X146812000Y-140462000D02*
X144381000Y-140462000D01*
X144373600Y-140469400D02*
X140164600Y-140469400D01*
X140164600Y-140469400D02*
X138709400Y-139014200D01*
X137143600Y-140512800D02*
X137160000Y-140529200D01*
X134696200Y-140512800D02*
X137143600Y-140512800D01*
X138675000Y-139014200D02*
X137160000Y-140529200D01*
X138709400Y-139014200D02*
X138675000Y-139014200D01*
X146946400Y-132029200D02*
X146659600Y-131742400D01*
X147904200Y-132029200D02*
X146946400Y-132029200D01*
X145948400Y-132453600D02*
X146659600Y-131742400D01*
X145948400Y-132689600D02*
X145948400Y-132453600D01*
X147955000Y-140462000D02*
X146812000Y-140462000D01*
X148996400Y-141503400D02*
X147955000Y-140462000D01*
X153644600Y-141503400D02*
X148996400Y-141503400D01*
X154940000Y-144780000D02*
X154940000Y-142798800D01*
X154940000Y-142798800D02*
X153644600Y-141503400D01*
X147574000Y-127000000D02*
X147574000Y-124460000D01*
X136931400Y-123638200D02*
X136287400Y-123638200D01*
X136287400Y-123638200D02*
X135661400Y-123012200D01*
X141300200Y-131971000D02*
X141071600Y-131742400D01*
X141300200Y-132715000D02*
X141300200Y-131971000D01*
X130099400Y-136525800D02*
X129973200Y-136652000D01*
X130979400Y-136525800D02*
X130099400Y-136525800D01*
X129973200Y-136652000D02*
X128524000Y-136652000D01*
X126010200Y-139165800D02*
X123579400Y-139165800D01*
X128524000Y-136652000D02*
X126010200Y-139165800D01*
X123579400Y-139165800D02*
X120369800Y-139165800D01*
X120369800Y-139165800D02*
X119634000Y-138430000D01*
X119888000Y-128270000D02*
X121158000Y-128270000D01*
X121158000Y-128270000D02*
X122428000Y-128270000D01*
X123444000Y-128270000D02*
X123444000Y-129794000D01*
X122428000Y-129794000D02*
X121158000Y-129794000D01*
X119888000Y-129794000D02*
X119888000Y-130048000D01*
X119888000Y-130048000D02*
X119126000Y-130810000D01*
X117348000Y-130810000D02*
X115824000Y-130810000D01*
X114808000Y-130810000D02*
X114808000Y-129032000D01*
X114808000Y-127508000D02*
X114808000Y-125984000D01*
X114808000Y-124206000D02*
X116840000Y-124206000D01*
X116840000Y-124206000D02*
X117094000Y-123952000D01*
X130556000Y-129032000D02*
X131064000Y-129032000D01*
X131064000Y-129032000D02*
X131826000Y-129794000D01*
X151638000Y-134289800D02*
X151968200Y-134289800D01*
X151968200Y-134289800D02*
X153162000Y-133096000D01*
X153162000Y-131064000D02*
X150876000Y-131064000D01*
X150876000Y-129540000D02*
X149352000Y-129540000D01*
X149352000Y-131064000D02*
X149352000Y-132588000D01*
X149352000Y-132588000D02*
X149606000Y-132842000D01*
X153162000Y-128778000D02*
X153162000Y-126746000D01*
X140309600Y-137210800D02*
X140309600Y-136169400D01*
X140309600Y-136169400D02*
X140335000Y-136144000D01*
X141376400Y-136169400D02*
X141376400Y-136372600D01*
X141376400Y-136372600D02*
X142316200Y-137312400D01*
X142748000Y-138252200D02*
X143738600Y-138252200D01*
X143611600Y-137261600D02*
X144932400Y-137261600D01*
X144932400Y-137261600D02*
X145237200Y-136956800D01*
X145211800Y-135788400D02*
X144449800Y-135788400D01*
X144449800Y-135788400D02*
X144195800Y-135534400D01*
X145110200Y-134366000D02*
X148844000Y-134366000D01*
X148844000Y-134366000D02*
X148894800Y-134315200D01*
X144544515Y-134366000D02*
X143757115Y-133578600D01*
X145110200Y-134366000D02*
X144544515Y-134366000D01*
X143281400Y-133578600D02*
X142367000Y-132664200D01*
X143757115Y-133578600D02*
X143281400Y-133578600D01*
X137566400Y-137972800D02*
X137566400Y-138074400D01*
X137566400Y-138074400D02*
X136931400Y-138709400D01*
X123012200Y-142595600D02*
X123012200Y-141452600D01*
X123012200Y-141452600D02*
X123063000Y-141401800D01*
X121920000Y-141351000D02*
X121920000Y-142392400D01*
X121920000Y-142392400D02*
X121869200Y-142443200D01*
X120802400Y-142494000D02*
X120802400Y-141351000D01*
X120802400Y-141351000D02*
X120827800Y-141325600D01*
X119684800Y-142494000D02*
X119684800Y-143332200D01*
X119684800Y-143332200D02*
X119354600Y-143662400D01*
X132029200Y-142925800D02*
X132029200Y-141782800D01*
X130886200Y-141782800D02*
X130886200Y-142849600D01*
X130886200Y-142849600D02*
X130835400Y-142900400D01*
X130835400Y-142900400D02*
X129768600Y-142900400D01*
X129768600Y-142900400D02*
X129743200Y-142875000D01*
X129743200Y-141732000D02*
X128625600Y-141732000D01*
X128625600Y-141732000D02*
X128600200Y-141757400D01*
X128600200Y-141757400D02*
X128600200Y-142748000D01*
X128600200Y-142748000D02*
X128549400Y-142798800D01*
X144373600Y-142519400D02*
X142646400Y-142519400D01*
X142646400Y-142519400D02*
X142570200Y-142443200D01*
X141452600Y-142443200D02*
X140208000Y-142443200D01*
X146812000Y-142512000D02*
X147530600Y-142512000D01*
X147530600Y-142512000D02*
X148056600Y-141986000D01*
D21*
X134860228Y-131110028D02*
X134234228Y-131110028D01*
X135483600Y-131733400D02*
X134860228Y-131110028D01*
X134234228Y-131110028D02*
X133807200Y-130683000D01*
X133807200Y-130683000D02*
X133807200Y-128879600D01*
X133807200Y-128879600D02*
X134620000Y-128066800D01*
X134620000Y-128066800D02*
X137617200Y-128066800D01*
X138684000Y-127000000D02*
X139954000Y-127000000D01*
X137617200Y-128066800D02*
X138684000Y-127000000D01*
X138243200Y-127000000D02*
X138684000Y-127000000D01*
X136931400Y-125688200D02*
X138243200Y-127000000D01*
X135483600Y-131733400D02*
X135449200Y-131733400D01*
X135449200Y-131733400D02*
X134620000Y-132562600D01*
X132588000Y-133629400D02*
X132105400Y-133146800D01*
X134366000Y-137629200D02*
X134366000Y-133629400D01*
X132829400Y-139165800D02*
X134366000Y-137629200D01*
X130979400Y-139165800D02*
X132829400Y-139165800D01*
X134366000Y-133629400D02*
X132588000Y-133629400D01*
X140553909Y-133895017D02*
X139635417Y-133895017D01*
X139369800Y-133629400D02*
X134366000Y-133629400D01*
X139635417Y-133895017D02*
X139369800Y-133629400D01*
X124891800Y-134243400D02*
X124891800Y-133121400D01*
X123579400Y-136525800D02*
X123579400Y-135555800D01*
X123579400Y-135555800D02*
X124891800Y-134243400D01*
X124891800Y-133121400D02*
X126415800Y-131597400D01*
X126415800Y-131597400D02*
X132715000Y-131597400D01*
X132715000Y-131597400D02*
X133172200Y-132054600D01*
X133172200Y-132054600D02*
X133172200Y-132791200D01*
X133172200Y-132791200D02*
X133172200Y-133273800D01*
X140044946Y-133386053D02*
X140044946Y-133386054D01*
X133172200Y-133273800D02*
X139932693Y-133273800D01*
X139932693Y-133273800D02*
X140044946Y-133386053D01*
X143179800Y-135813800D02*
X139623800Y-132257800D01*
X139623800Y-132257800D02*
X139623800Y-128828800D01*
X148183600Y-139065000D02*
X149783800Y-140665200D01*
X149783800Y-140665200D02*
X150360000Y-140665200D01*
X150241000Y-137359107D02*
X148840448Y-135958555D01*
X150241000Y-139022800D02*
X150241000Y-137359107D01*
X150588000Y-139369800D02*
X150241000Y-139022800D01*
X151638000Y-139369800D02*
X150588000Y-139369800D01*
X150418800Y-136829800D02*
X151638000Y-136829800D01*
X148844000Y-135255000D02*
X150418800Y-136829800D01*
X134696200Y-144703800D02*
X134620000Y-144780000D01*
X134696200Y-142562800D02*
X134696200Y-144703800D01*
X138351390Y-141404210D02*
X138351390Y-141429610D01*
X139065000Y-140690600D02*
X138351390Y-141404210D01*
X138351390Y-141429610D02*
X138226800Y-141554200D01*
X135704800Y-141554200D02*
X134696200Y-142562800D01*
X138226800Y-141554200D02*
X135704800Y-141554200D01*
X137160000Y-142579200D02*
X137160000Y-144780000D01*
X137160000Y-142579200D02*
X138014600Y-142579200D01*
X138014600Y-142579200D02*
X139141200Y-141452600D01*
X138430000Y-130446400D02*
X138430000Y-129387600D01*
X138430000Y-129387600D02*
X138404600Y-129362200D01*
X133705600Y-124587000D02*
X133451600Y-124587000D01*
X136677400Y-127558800D02*
X133705600Y-124587000D01*
D20*
X124974885Y-126390400D02*
X125000285Y-126365000D01*
X124409200Y-126390400D02*
X124974885Y-126390400D01*
X130223600Y-126365000D02*
X132001600Y-124587000D01*
X125000285Y-126365000D02*
X130223600Y-126365000D01*
D21*
X135409446Y-135358646D02*
X136499600Y-136448800D01*
X135409446Y-134977646D02*
X135409446Y-135358646D01*
X136550400Y-135432800D02*
X136550400Y-134772400D01*
X136550400Y-134772400D02*
X135966200Y-134188200D01*
X137312400Y-135425264D02*
X137185400Y-135552264D01*
X137312400Y-135001000D02*
X137312400Y-135425264D01*
X137185400Y-135552264D02*
X137185400Y-136804400D01*
X137185400Y-136804400D02*
X136753600Y-137236200D01*
X136753600Y-137236200D02*
X135432800Y-137236200D01*
X135432800Y-137236200D02*
X135077200Y-136880600D01*
X120599200Y-137058400D02*
X118211600Y-134670800D01*
X118211600Y-134670800D02*
X118008400Y-134670800D01*
D22*
G36*
X134857463Y-122352426D02*
G01*
X134744195Y-122521944D01*
X134666174Y-122710302D01*
X134626400Y-122910261D01*
X134626400Y-123114139D01*
X134666174Y-123314098D01*
X134744195Y-123502456D01*
X134857463Y-123671974D01*
X135001626Y-123816137D01*
X135171144Y-123929405D01*
X135359502Y-124007426D01*
X135504624Y-124036292D01*
X135612833Y-124144502D01*
X135660928Y-124303051D01*
X135742995Y-124456587D01*
X135853438Y-124591162D01*
X135941216Y-124663200D01*
X135853438Y-124735238D01*
X135742995Y-124869813D01*
X135660928Y-125023349D01*
X135610392Y-125189945D01*
X135593328Y-125363199D01*
X135593328Y-125435282D01*
X134589672Y-124431626D01*
X134589672Y-123837000D01*
X134577412Y-123712518D01*
X134541102Y-123592820D01*
X134482137Y-123482506D01*
X134402785Y-123385815D01*
X134306094Y-123306463D01*
X134195780Y-123247498D01*
X134076082Y-123211188D01*
X133951600Y-123198928D01*
X132801600Y-123198928D01*
X132677773Y-123211059D01*
X132651665Y-123218949D01*
X132626082Y-123211188D01*
X132501600Y-123198928D01*
X131501600Y-123198928D01*
X131377118Y-123211188D01*
X131257420Y-123247498D01*
X131147106Y-123306463D01*
X131050415Y-123385815D01*
X130971063Y-123482506D01*
X130912098Y-123592820D01*
X130875788Y-123712518D01*
X130863528Y-123837000D01*
X130863528Y-124544204D01*
X129877733Y-125530000D01*
X125041303Y-125530000D01*
X125000284Y-125525960D01*
X124981233Y-125527836D01*
X124899456Y-125473195D01*
X124711098Y-125395174D01*
X124511139Y-125355400D01*
X124307261Y-125355400D01*
X124107302Y-125395174D01*
X123918944Y-125473195D01*
X123749426Y-125586463D01*
X123605263Y-125730626D01*
X123491995Y-125900144D01*
X123413974Y-126088502D01*
X123374200Y-126288461D01*
X123374200Y-126492339D01*
X123413974Y-126692298D01*
X123491995Y-126880656D01*
X123605263Y-127050174D01*
X123749426Y-127194337D01*
X123918944Y-127307605D01*
X124107302Y-127385626D01*
X124307261Y-127425400D01*
X124511139Y-127425400D01*
X124711098Y-127385626D01*
X124899456Y-127307605D01*
X125023623Y-127224640D01*
X125138574Y-127213318D01*
X125182478Y-127200000D01*
X130182582Y-127200000D01*
X130223600Y-127204040D01*
X130264618Y-127200000D01*
X130264619Y-127200000D01*
X130387289Y-127187918D01*
X130544687Y-127140172D01*
X130689746Y-127062636D01*
X130816891Y-126958291D01*
X130843046Y-126926421D01*
X131794396Y-125975072D01*
X132501600Y-125975072D01*
X132626736Y-125962681D01*
X132651664Y-125955091D01*
X132677118Y-125962812D01*
X132801600Y-125975072D01*
X133951600Y-125975072D01*
X134045025Y-125965871D01*
X135410953Y-127331800D01*
X134656105Y-127331800D01*
X134620000Y-127328244D01*
X134583895Y-127331800D01*
X134475915Y-127342435D01*
X134337367Y-127384463D01*
X134209680Y-127452713D01*
X134097762Y-127544562D01*
X134074746Y-127572607D01*
X133313008Y-128334346D01*
X133284963Y-128357362D01*
X133193114Y-128469280D01*
X133180008Y-128493800D01*
X133124864Y-128596967D01*
X133082835Y-128735515D01*
X133068644Y-128879600D01*
X133072201Y-128915715D01*
X133072200Y-130646895D01*
X133068644Y-130683000D01*
X133078241Y-130780438D01*
X133082835Y-130827084D01*
X133124863Y-130965632D01*
X133141342Y-130996462D01*
X133125320Y-130983313D01*
X132997633Y-130915063D01*
X132859085Y-130873035D01*
X132751105Y-130862400D01*
X132715000Y-130858844D01*
X132678895Y-130862400D01*
X126451894Y-130862400D01*
X126415799Y-130858845D01*
X126379704Y-130862400D01*
X126379695Y-130862400D01*
X126271715Y-130873035D01*
X126133167Y-130915063D01*
X126005480Y-130983313D01*
X125893562Y-131075162D01*
X125870546Y-131103207D01*
X125190425Y-131783328D01*
X124566799Y-131783328D01*
X124393545Y-131800392D01*
X124226949Y-131850928D01*
X124073413Y-131932995D01*
X123938838Y-132043438D01*
X123933458Y-132049994D01*
X123867985Y-131970215D01*
X123771294Y-131890863D01*
X123660980Y-131831898D01*
X123541282Y-131795588D01*
X123416800Y-131783328D01*
X123127550Y-131786400D01*
X122968800Y-131945150D01*
X122968800Y-132994400D01*
X122988800Y-132994400D01*
X122988800Y-133248400D01*
X122968800Y-133248400D01*
X122968800Y-134297650D01*
X123127550Y-134456400D01*
X123416800Y-134459472D01*
X123541282Y-134447212D01*
X123660980Y-134410902D01*
X123712264Y-134383490D01*
X123085208Y-135010546D01*
X123057163Y-135033562D01*
X122988090Y-135117728D01*
X121929400Y-135117728D01*
X121804918Y-135129988D01*
X121685220Y-135166298D01*
X121574906Y-135225263D01*
X121478215Y-135304615D01*
X121398863Y-135401306D01*
X121339898Y-135511620D01*
X121303588Y-135631318D01*
X121291328Y-135755800D01*
X121291328Y-136428238D01*
X121195228Y-136332138D01*
X121042089Y-136229814D01*
X120871929Y-136159332D01*
X120706715Y-136126469D01*
X118857371Y-134277125D01*
X118836986Y-134227911D01*
X118734662Y-134074772D01*
X118604428Y-133944538D01*
X118451289Y-133842214D01*
X118401040Y-133821400D01*
X121628728Y-133821400D01*
X121640988Y-133945882D01*
X121677298Y-134065580D01*
X121736263Y-134175894D01*
X121815615Y-134272585D01*
X121912306Y-134351937D01*
X122022620Y-134410902D01*
X122142318Y-134447212D01*
X122266800Y-134459472D01*
X122556050Y-134456400D01*
X122714800Y-134297650D01*
X122714800Y-133248400D01*
X121790550Y-133248400D01*
X121631800Y-133407150D01*
X121628728Y-133821400D01*
X118401040Y-133821400D01*
X118281129Y-133771732D01*
X118100489Y-133735800D01*
X117916311Y-133735800D01*
X117735671Y-133771732D01*
X117565511Y-133842214D01*
X117412372Y-133944538D01*
X117282138Y-134074772D01*
X117179814Y-134227911D01*
X117109332Y-134398071D01*
X117073400Y-134578711D01*
X117073400Y-134762889D01*
X117109332Y-134943529D01*
X117179814Y-135113689D01*
X117282138Y-135266828D01*
X117412372Y-135397062D01*
X117565511Y-135499386D01*
X117735671Y-135569868D01*
X117916311Y-135605800D01*
X118100489Y-135605800D01*
X118106048Y-135604694D01*
X119667269Y-137165915D01*
X119700132Y-137331129D01*
X119770614Y-137501289D01*
X119872938Y-137654428D01*
X120003172Y-137784662D01*
X120156311Y-137886986D01*
X120326471Y-137957468D01*
X120507111Y-137993400D01*
X120691289Y-137993400D01*
X120871929Y-137957468D01*
X121042089Y-137886986D01*
X121195228Y-137784662D01*
X121325462Y-137654428D01*
X121367469Y-137591560D01*
X121398863Y-137650294D01*
X121478215Y-137746985D01*
X121574906Y-137826337D01*
X121611318Y-137845800D01*
X121574906Y-137865263D01*
X121478215Y-137944615D01*
X121398863Y-138041306D01*
X121339898Y-138151620D01*
X121303588Y-138271318D01*
X121291328Y-138395800D01*
X121294400Y-138880050D01*
X121453150Y-139038800D01*
X123452400Y-139038800D01*
X123452400Y-139018800D01*
X123706400Y-139018800D01*
X123706400Y-139038800D01*
X125705650Y-139038800D01*
X125864400Y-138880050D01*
X125867472Y-138395800D01*
X125855212Y-138271318D01*
X125818902Y-138151620D01*
X125759937Y-138041306D01*
X125680585Y-137944615D01*
X125583894Y-137865263D01*
X125547482Y-137845800D01*
X125583894Y-137826337D01*
X125680585Y-137746985D01*
X125759937Y-137650294D01*
X125818902Y-137539980D01*
X125855212Y-137420282D01*
X125867472Y-137295800D01*
X125867472Y-135755800D01*
X128691328Y-135755800D01*
X128694400Y-136240050D01*
X128853150Y-136398800D01*
X130852400Y-136398800D01*
X130852400Y-135279550D01*
X131106400Y-135279550D01*
X131106400Y-136398800D01*
X133105650Y-136398800D01*
X133264400Y-136240050D01*
X133267472Y-135755800D01*
X133255212Y-135631318D01*
X133218902Y-135511620D01*
X133159937Y-135401306D01*
X133080585Y-135304615D01*
X132983894Y-135225263D01*
X132873580Y-135166298D01*
X132753882Y-135129988D01*
X132629400Y-135117728D01*
X131265150Y-135120800D01*
X131106400Y-135279550D01*
X130852400Y-135279550D01*
X130693650Y-135120800D01*
X129329400Y-135117728D01*
X129204918Y-135129988D01*
X129085220Y-135166298D01*
X128974906Y-135225263D01*
X128878215Y-135304615D01*
X128798863Y-135401306D01*
X128739898Y-135511620D01*
X128703588Y-135631318D01*
X128691328Y-135755800D01*
X125867472Y-135755800D01*
X125855212Y-135631318D01*
X125818902Y-135511620D01*
X125759937Y-135401306D01*
X125680585Y-135304615D01*
X125583894Y-135225263D01*
X125473580Y-135166298D01*
X125353882Y-135129988D01*
X125229400Y-135117728D01*
X125056919Y-135117728D01*
X125385997Y-134788650D01*
X125414037Y-134765638D01*
X125437050Y-134737597D01*
X125437053Y-134737594D01*
X125482355Y-134682393D01*
X125505887Y-134653720D01*
X125574137Y-134526033D01*
X125616165Y-134387485D01*
X125619016Y-134358537D01*
X125710187Y-134309805D01*
X125844762Y-134199362D01*
X125955205Y-134064787D01*
X126037272Y-133911251D01*
X126056822Y-133846800D01*
X128842328Y-133846800D01*
X128854588Y-133971282D01*
X128890898Y-134090980D01*
X128949863Y-134201294D01*
X129029215Y-134297985D01*
X129125906Y-134377337D01*
X129236220Y-134436302D01*
X129355918Y-134472612D01*
X129480400Y-134484872D01*
X129769650Y-134481800D01*
X129928400Y-134323050D01*
X129928400Y-133273800D01*
X129004150Y-133273800D01*
X128845400Y-133432550D01*
X128842328Y-133846800D01*
X126056822Y-133846800D01*
X126087808Y-133744655D01*
X126104872Y-133571401D01*
X126104872Y-132947774D01*
X126720247Y-132332400D01*
X128853595Y-132332400D01*
X128842328Y-132446800D01*
X128845400Y-132861050D01*
X129004150Y-133019800D01*
X129928400Y-133019800D01*
X129928400Y-132999800D01*
X130182400Y-132999800D01*
X130182400Y-133019800D01*
X130202400Y-133019800D01*
X130202400Y-133273800D01*
X130182400Y-133273800D01*
X130182400Y-134323050D01*
X130341150Y-134481800D01*
X130630400Y-134484872D01*
X130754882Y-134472612D01*
X130874580Y-134436302D01*
X130984894Y-134377337D01*
X131081585Y-134297985D01*
X131147058Y-134218206D01*
X131152438Y-134224762D01*
X131287013Y-134335205D01*
X131440549Y-134417272D01*
X131607145Y-134467808D01*
X131780399Y-134484872D01*
X132430401Y-134484872D01*
X132603655Y-134467808D01*
X132770251Y-134417272D01*
X132869167Y-134364400D01*
X133631001Y-134364400D01*
X133631000Y-137324753D01*
X133042442Y-137913312D01*
X132983894Y-137865263D01*
X132947482Y-137845800D01*
X132983894Y-137826337D01*
X133080585Y-137746985D01*
X133159937Y-137650294D01*
X133218902Y-137539980D01*
X133255212Y-137420282D01*
X133267472Y-137295800D01*
X133264400Y-136811550D01*
X133105650Y-136652800D01*
X131106400Y-136652800D01*
X131106400Y-136672800D01*
X130852400Y-136672800D01*
X130852400Y-136652800D01*
X128853150Y-136652800D01*
X128694400Y-136811550D01*
X128691328Y-137295800D01*
X128703588Y-137420282D01*
X128739898Y-137539980D01*
X128798863Y-137650294D01*
X128878215Y-137746985D01*
X128974906Y-137826337D01*
X129011318Y-137845800D01*
X128974906Y-137865263D01*
X128878215Y-137944615D01*
X128798863Y-138041306D01*
X128739898Y-138151620D01*
X128703588Y-138271318D01*
X128691328Y-138395800D01*
X128691328Y-139935800D01*
X128703588Y-140060282D01*
X128739898Y-140179980D01*
X128798863Y-140290294D01*
X128878215Y-140386985D01*
X128974906Y-140466337D01*
X129085220Y-140525302D01*
X129204918Y-140561612D01*
X129329400Y-140573872D01*
X132629400Y-140573872D01*
X132753882Y-140561612D01*
X132873580Y-140525302D01*
X132983894Y-140466337D01*
X133080585Y-140386985D01*
X133159937Y-140290294D01*
X133218902Y-140179980D01*
X133255212Y-140060282D01*
X133267472Y-139935800D01*
X133267472Y-139757111D01*
X133351638Y-139688038D01*
X133374658Y-139659988D01*
X134860197Y-138174450D01*
X134888237Y-138151438D01*
X134911250Y-138123397D01*
X134911253Y-138123394D01*
X134980087Y-138039520D01*
X135048337Y-137911834D01*
X135060795Y-137870767D01*
X135150167Y-137918537D01*
X135288715Y-137960565D01*
X135396695Y-137971200D01*
X135396704Y-137971200D01*
X135432799Y-137974755D01*
X135468894Y-137971200D01*
X136717495Y-137971200D01*
X136753600Y-137974756D01*
X136789705Y-137971200D01*
X136897685Y-137960565D01*
X137036233Y-137918537D01*
X137163920Y-137850287D01*
X137275838Y-137758438D01*
X137298859Y-137730387D01*
X137679587Y-137349659D01*
X137707638Y-137326638D01*
X137799487Y-137214720D01*
X137867737Y-137087033D01*
X137909765Y-136948485D01*
X137920400Y-136840505D01*
X137920400Y-136840496D01*
X137923955Y-136804401D01*
X137920400Y-136768306D01*
X137920400Y-135843001D01*
X137926487Y-135835584D01*
X137994737Y-135707897D01*
X138023887Y-135611803D01*
X138038662Y-135597028D01*
X138140986Y-135443889D01*
X138211468Y-135273729D01*
X138247400Y-135093089D01*
X138247400Y-134908911D01*
X138211468Y-134728271D01*
X138140986Y-134558111D01*
X138038662Y-134404972D01*
X137998090Y-134364400D01*
X139065354Y-134364400D01*
X139090158Y-134389204D01*
X139113179Y-134417255D01*
X139225097Y-134509104D01*
X139352784Y-134577354D01*
X139441330Y-134604214D01*
X139491331Y-134619382D01*
X139505549Y-134620782D01*
X139599312Y-134630017D01*
X139599319Y-134630017D01*
X139635416Y-134633572D01*
X139671513Y-134630017D01*
X139970958Y-134630017D01*
X140111020Y-134723603D01*
X140281180Y-134794085D01*
X140461820Y-134830017D01*
X140645998Y-134830017D01*
X140826638Y-134794085D01*
X140996798Y-134723603D01*
X141028784Y-134702231D01*
X142247869Y-135921315D01*
X142280732Y-136086529D01*
X142351214Y-136256689D01*
X142453538Y-136409828D01*
X142583772Y-136540062D01*
X142736911Y-136642386D01*
X142907071Y-136712868D01*
X143087711Y-136748800D01*
X143271889Y-136748800D01*
X143452529Y-136712868D01*
X143622689Y-136642386D01*
X143775828Y-136540062D01*
X143906062Y-136409828D01*
X144008386Y-136256689D01*
X144078868Y-136086529D01*
X144114800Y-135905889D01*
X144114800Y-135721711D01*
X144078868Y-135541071D01*
X144008386Y-135370911D01*
X143906062Y-135217772D01*
X143775828Y-135087538D01*
X143622689Y-134985214D01*
X143452529Y-134914732D01*
X143287315Y-134881869D01*
X142338356Y-133932910D01*
X150196524Y-133932910D01*
X150317845Y-134162800D01*
X151511000Y-134162800D01*
X151511000Y-132968986D01*
X151765000Y-132968986D01*
X151765000Y-134162800D01*
X152958155Y-134162800D01*
X153079476Y-133932910D01*
X153034825Y-133785701D01*
X152909641Y-133522880D01*
X152735588Y-133289531D01*
X152519355Y-133094622D01*
X152269252Y-132945643D01*
X151994891Y-132848319D01*
X151765000Y-132968986D01*
X151511000Y-132968986D01*
X151281109Y-132848319D01*
X151006748Y-132945643D01*
X150756645Y-133094622D01*
X150540412Y-133289531D01*
X150366359Y-133522880D01*
X150241175Y-133785701D01*
X150196524Y-133932910D01*
X142338356Y-133932910D01*
X141938639Y-133533193D01*
X141959974Y-133518937D01*
X142104137Y-133374774D01*
X142217405Y-133205256D01*
X142295426Y-133016898D01*
X142335200Y-132816939D01*
X142335200Y-132613061D01*
X142328107Y-132577400D01*
X142690829Y-132577400D01*
X142787638Y-132695362D01*
X142922213Y-132805805D01*
X143075749Y-132887872D01*
X143242345Y-132938408D01*
X143415599Y-132955472D01*
X144315601Y-132955472D01*
X144488855Y-132938408D01*
X144655451Y-132887872D01*
X144808987Y-132805805D01*
X144913400Y-132720115D01*
X144913400Y-132791539D01*
X144953174Y-132991498D01*
X145031195Y-133179856D01*
X145144463Y-133349374D01*
X145288626Y-133493537D01*
X145458144Y-133606805D01*
X145646502Y-133684826D01*
X145846461Y-133724600D01*
X146050339Y-133724600D01*
X146250298Y-133684826D01*
X146438656Y-133606805D01*
X146608174Y-133493537D01*
X146752337Y-133349374D01*
X146865605Y-133179856D01*
X146943626Y-132991498D01*
X146950792Y-132955472D01*
X147109601Y-132955472D01*
X147282855Y-132938408D01*
X147364782Y-132913556D01*
X147413944Y-132946405D01*
X147602302Y-133024426D01*
X147802261Y-133064200D01*
X148006139Y-133064200D01*
X148206098Y-133024426D01*
X148394456Y-132946405D01*
X148563974Y-132833137D01*
X148708137Y-132688974D01*
X148821405Y-132519456D01*
X148899426Y-132331098D01*
X148939200Y-132131139D01*
X148939200Y-131927261D01*
X148899426Y-131727302D01*
X148821405Y-131538944D01*
X148708137Y-131369426D01*
X148563974Y-131225263D01*
X148394456Y-131111995D01*
X148206098Y-131033974D01*
X148006139Y-130994200D01*
X147885521Y-130994200D01*
X147848005Y-130924013D01*
X147737562Y-130789438D01*
X147731006Y-130784058D01*
X147810785Y-130718585D01*
X147890137Y-130621894D01*
X147949102Y-130511580D01*
X147985412Y-130391882D01*
X147997672Y-130267400D01*
X147994600Y-129978150D01*
X147835850Y-129819400D01*
X146786600Y-129819400D01*
X146786600Y-129839400D01*
X146532600Y-129839400D01*
X146532600Y-129819400D01*
X145483350Y-129819400D01*
X145324600Y-129978150D01*
X145321528Y-130267400D01*
X145333788Y-130391882D01*
X145370098Y-130511580D01*
X145429063Y-130621894D01*
X145508415Y-130718585D01*
X145588194Y-130784058D01*
X145581638Y-130789438D01*
X145484829Y-130907400D01*
X145040371Y-130907400D01*
X144943562Y-130789438D01*
X144937006Y-130784058D01*
X145016785Y-130718585D01*
X145096137Y-130621894D01*
X145155102Y-130511580D01*
X145191412Y-130391882D01*
X145203672Y-130267400D01*
X145200600Y-129978150D01*
X145041850Y-129819400D01*
X143992600Y-129819400D01*
X143992600Y-129839400D01*
X143738600Y-129839400D01*
X143738600Y-129819400D01*
X142689350Y-129819400D01*
X142530600Y-129978150D01*
X142527528Y-130267400D01*
X142539788Y-130391882D01*
X142576098Y-130511580D01*
X142635063Y-130621894D01*
X142714415Y-130718585D01*
X142794194Y-130784058D01*
X142787638Y-130789438D01*
X142690829Y-130907400D01*
X142246371Y-130907400D01*
X142149562Y-130789438D01*
X142143006Y-130784058D01*
X142222785Y-130718585D01*
X142302137Y-130621894D01*
X142361102Y-130511580D01*
X142397412Y-130391882D01*
X142409672Y-130267400D01*
X142406600Y-129978150D01*
X142247850Y-129819400D01*
X141198600Y-129819400D01*
X141198600Y-129839400D01*
X140944600Y-129839400D01*
X140944600Y-129819400D01*
X140924600Y-129819400D01*
X140924600Y-129565400D01*
X140944600Y-129565400D01*
X140944600Y-128641150D01*
X141198600Y-128641150D01*
X141198600Y-129565400D01*
X142247850Y-129565400D01*
X142406600Y-129406650D01*
X142409672Y-129117400D01*
X142527528Y-129117400D01*
X142530600Y-129406650D01*
X142689350Y-129565400D01*
X143738600Y-129565400D01*
X143738600Y-128641150D01*
X143992600Y-128641150D01*
X143992600Y-129565400D01*
X145041850Y-129565400D01*
X145200600Y-129406650D01*
X145203672Y-129117400D01*
X145321528Y-129117400D01*
X145324600Y-129406650D01*
X145483350Y-129565400D01*
X146532600Y-129565400D01*
X146532600Y-128641150D01*
X146786600Y-128641150D01*
X146786600Y-129565400D01*
X147835850Y-129565400D01*
X147994600Y-129406650D01*
X147997672Y-129117400D01*
X147985412Y-128992918D01*
X147949102Y-128873220D01*
X147890137Y-128762906D01*
X147810785Y-128666215D01*
X147714094Y-128586863D01*
X147603780Y-128527898D01*
X147484082Y-128491588D01*
X147359600Y-128479328D01*
X146945350Y-128482400D01*
X146786600Y-128641150D01*
X146532600Y-128641150D01*
X146373850Y-128482400D01*
X145959600Y-128479328D01*
X145835118Y-128491588D01*
X145715420Y-128527898D01*
X145605106Y-128586863D01*
X145508415Y-128666215D01*
X145429063Y-128762906D01*
X145370098Y-128873220D01*
X145333788Y-128992918D01*
X145321528Y-129117400D01*
X145203672Y-129117400D01*
X145191412Y-128992918D01*
X145155102Y-128873220D01*
X145096137Y-128762906D01*
X145016785Y-128666215D01*
X144920094Y-128586863D01*
X144809780Y-128527898D01*
X144690082Y-128491588D01*
X144565600Y-128479328D01*
X144151350Y-128482400D01*
X143992600Y-128641150D01*
X143738600Y-128641150D01*
X143579850Y-128482400D01*
X143165600Y-128479328D01*
X143041118Y-128491588D01*
X142921420Y-128527898D01*
X142811106Y-128586863D01*
X142714415Y-128666215D01*
X142635063Y-128762906D01*
X142576098Y-128873220D01*
X142539788Y-128992918D01*
X142527528Y-129117400D01*
X142409672Y-129117400D01*
X142397412Y-128992918D01*
X142361102Y-128873220D01*
X142302137Y-128762906D01*
X142222785Y-128666215D01*
X142126094Y-128586863D01*
X142015780Y-128527898D01*
X141896082Y-128491588D01*
X141771600Y-128479328D01*
X141357350Y-128482400D01*
X141198600Y-128641150D01*
X140944600Y-128641150D01*
X140791522Y-128488072D01*
X140804000Y-128488072D01*
X140928482Y-128475812D01*
X141048180Y-128439502D01*
X141158494Y-128380537D01*
X141255185Y-128301185D01*
X141334537Y-128204494D01*
X141393502Y-128094180D01*
X141417966Y-128013534D01*
X141493731Y-128097588D01*
X141727080Y-128271641D01*
X141989901Y-128396825D01*
X142137110Y-128441476D01*
X142367000Y-128320155D01*
X142367000Y-127127000D01*
X142347000Y-127127000D01*
X142347000Y-126873000D01*
X142367000Y-126873000D01*
X142367000Y-124587000D01*
X142347000Y-124587000D01*
X142347000Y-124333000D01*
X142367000Y-124333000D01*
X142367000Y-123139845D01*
X142621000Y-123139845D01*
X142621000Y-124333000D01*
X142641000Y-124333000D01*
X142641000Y-124587000D01*
X142621000Y-124587000D01*
X142621000Y-126873000D01*
X142641000Y-126873000D01*
X142641000Y-127127000D01*
X142621000Y-127127000D01*
X142621000Y-128320155D01*
X142850890Y-128441476D01*
X142998099Y-128396825D01*
X143260920Y-128271641D01*
X143494269Y-128097588D01*
X143689178Y-127881355D01*
X143758799Y-127764477D01*
X143793294Y-127829014D01*
X143978866Y-128055134D01*
X144204986Y-128240706D01*
X144462966Y-128378599D01*
X144742889Y-128463513D01*
X144961050Y-128485000D01*
X145106950Y-128485000D01*
X145325111Y-128463513D01*
X145605034Y-128378599D01*
X145863014Y-128240706D01*
X146089134Y-128055134D01*
X146274706Y-127829014D01*
X146304000Y-127774209D01*
X146333294Y-127829014D01*
X146518866Y-128055134D01*
X146744986Y-128240706D01*
X147002966Y-128378599D01*
X147282889Y-128463513D01*
X147501050Y-128485000D01*
X147646950Y-128485000D01*
X147865111Y-128463513D01*
X148145034Y-128378599D01*
X148403014Y-128240706D01*
X148629134Y-128055134D01*
X148814706Y-127829014D01*
X148844000Y-127774209D01*
X148873294Y-127829014D01*
X149058866Y-128055134D01*
X149284986Y-128240706D01*
X149542966Y-128378599D01*
X149822889Y-128463513D01*
X150041050Y-128485000D01*
X150186950Y-128485000D01*
X150405111Y-128463513D01*
X150685034Y-128378599D01*
X150943014Y-128240706D01*
X151169134Y-128055134D01*
X151354706Y-127829014D01*
X151492599Y-127571034D01*
X151577513Y-127291111D01*
X151606185Y-127000000D01*
X151577513Y-126708889D01*
X151492599Y-126428966D01*
X151354706Y-126170986D01*
X151169134Y-125944866D01*
X150943014Y-125759294D01*
X150888209Y-125730000D01*
X150943014Y-125700706D01*
X151169134Y-125515134D01*
X151354706Y-125289014D01*
X151492599Y-125031034D01*
X151577513Y-124751111D01*
X151606185Y-124460000D01*
X151577513Y-124168889D01*
X151492599Y-123888966D01*
X151354706Y-123630986D01*
X151169134Y-123404866D01*
X150943014Y-123219294D01*
X150685034Y-123081401D01*
X150405111Y-122996487D01*
X150186950Y-122975000D01*
X150041050Y-122975000D01*
X149822889Y-122996487D01*
X149542966Y-123081401D01*
X149284986Y-123219294D01*
X149058866Y-123404866D01*
X148873294Y-123630986D01*
X148844000Y-123685791D01*
X148814706Y-123630986D01*
X148629134Y-123404866D01*
X148403014Y-123219294D01*
X148145034Y-123081401D01*
X147865111Y-122996487D01*
X147646950Y-122975000D01*
X147501050Y-122975000D01*
X147282889Y-122996487D01*
X147002966Y-123081401D01*
X146744986Y-123219294D01*
X146518866Y-123404866D01*
X146333294Y-123630986D01*
X146304000Y-123685791D01*
X146274706Y-123630986D01*
X146089134Y-123404866D01*
X145863014Y-123219294D01*
X145605034Y-123081401D01*
X145325111Y-122996487D01*
X145106950Y-122975000D01*
X144961050Y-122975000D01*
X144742889Y-122996487D01*
X144462966Y-123081401D01*
X144204986Y-123219294D01*
X143978866Y-123404866D01*
X143793294Y-123630986D01*
X143758799Y-123695523D01*
X143689178Y-123578645D01*
X143494269Y-123362412D01*
X143260920Y-123188359D01*
X142998099Y-123063175D01*
X142850890Y-123018524D01*
X142621000Y-123139845D01*
X142367000Y-123139845D01*
X142137110Y-123018524D01*
X141989901Y-123063175D01*
X141727080Y-123188359D01*
X141493731Y-123362412D01*
X141298822Y-123578645D01*
X141229201Y-123695523D01*
X141194706Y-123630986D01*
X141009134Y-123404866D01*
X140783014Y-123219294D01*
X140525034Y-123081401D01*
X140245111Y-122996487D01*
X140026950Y-122975000D01*
X139881050Y-122975000D01*
X139662889Y-122996487D01*
X139382966Y-123081401D01*
X139124986Y-123219294D01*
X138898866Y-123404866D01*
X138713294Y-123630986D01*
X138575401Y-123888966D01*
X138490487Y-124168889D01*
X138461815Y-124460000D01*
X138490487Y-124751111D01*
X138575401Y-125031034D01*
X138713294Y-125289014D01*
X138898866Y-125515134D01*
X138928687Y-125539607D01*
X138859820Y-125560498D01*
X138749506Y-125619463D01*
X138652815Y-125698815D01*
X138573463Y-125795506D01*
X138514498Y-125905820D01*
X138478188Y-126025518D01*
X138465928Y-126150000D01*
X138465928Y-126183281D01*
X138269472Y-125986825D01*
X138269472Y-125363199D01*
X138252408Y-125189945D01*
X138201872Y-125023349D01*
X138119805Y-124869813D01*
X138009362Y-124735238D01*
X137921584Y-124663200D01*
X138009362Y-124591162D01*
X138119805Y-124456587D01*
X138201872Y-124303051D01*
X138252408Y-124136455D01*
X138269472Y-123963201D01*
X138269472Y-123313199D01*
X138252408Y-123139945D01*
X138201872Y-122973349D01*
X138119805Y-122819813D01*
X138009362Y-122685238D01*
X137874787Y-122574795D01*
X137721251Y-122492728D01*
X137554655Y-122442192D01*
X137381401Y-122425128D01*
X136513915Y-122425128D01*
X136465337Y-122352426D01*
X136413911Y-122301000D01*
X155575801Y-122301000D01*
X155575800Y-142257307D01*
X155533291Y-142205509D01*
X155501426Y-142179358D01*
X154264046Y-140941979D01*
X154237891Y-140910109D01*
X154110746Y-140805764D01*
X153965687Y-140728228D01*
X153808289Y-140680482D01*
X153685619Y-140668400D01*
X153685618Y-140668400D01*
X153644600Y-140664360D01*
X153603582Y-140668400D01*
X152941306Y-140668400D01*
X153018537Y-140574294D01*
X153077502Y-140463980D01*
X153113812Y-140344282D01*
X153126072Y-140219800D01*
X153126072Y-138519800D01*
X153113812Y-138395318D01*
X153077502Y-138275620D01*
X153018537Y-138165306D01*
X152939185Y-138068615D01*
X152842494Y-137989263D01*
X152732180Y-137930298D01*
X152663313Y-137909407D01*
X152693134Y-137884934D01*
X152878706Y-137658814D01*
X153016599Y-137400834D01*
X153101513Y-137120911D01*
X153130185Y-136829800D01*
X153101513Y-136538689D01*
X153016599Y-136258766D01*
X152878706Y-136000786D01*
X152693134Y-135774666D01*
X152467014Y-135589094D01*
X152402477Y-135554599D01*
X152519355Y-135484978D01*
X152735588Y-135290069D01*
X152909641Y-135056720D01*
X153034825Y-134793899D01*
X153079476Y-134646690D01*
X152958155Y-134416800D01*
X151765000Y-134416800D01*
X151765000Y-134436800D01*
X151511000Y-134436800D01*
X151511000Y-134416800D01*
X150317845Y-134416800D01*
X150196524Y-134646690D01*
X150241175Y-134793899D01*
X150366359Y-135056720D01*
X150540412Y-135290069D01*
X150756645Y-135484978D01*
X150873523Y-135554599D01*
X150808986Y-135589094D01*
X150582866Y-135774666D01*
X150501841Y-135873395D01*
X149775932Y-135147485D01*
X149743068Y-134982271D01*
X149672586Y-134812111D01*
X149570262Y-134658972D01*
X149440028Y-134528738D01*
X149286889Y-134426414D01*
X149116729Y-134355932D01*
X148936089Y-134320000D01*
X148751911Y-134320000D01*
X148571271Y-134355932D01*
X148401111Y-134426414D01*
X148247972Y-134528738D01*
X148117738Y-134658972D01*
X148015414Y-134812111D01*
X147944932Y-134982271D01*
X147909000Y-135162911D01*
X147909000Y-135347089D01*
X147944932Y-135527729D01*
X147975899Y-135602490D01*
X147941380Y-135685826D01*
X147905448Y-135866466D01*
X147905448Y-136050644D01*
X147941380Y-136231284D01*
X148011862Y-136401444D01*
X148114186Y-136554583D01*
X148244420Y-136684817D01*
X148397559Y-136787141D01*
X148567719Y-136857623D01*
X148732933Y-136890487D01*
X149506001Y-137663555D01*
X149506000Y-138986695D01*
X149502444Y-139022800D01*
X149508784Y-139087167D01*
X149516635Y-139166884D01*
X149558663Y-139305432D01*
X149626913Y-139433119D01*
X149718762Y-139545037D01*
X149746808Y-139568054D01*
X149986589Y-139807835D01*
X149971947Y-139813900D01*
X149115532Y-138957485D01*
X149082668Y-138792271D01*
X149012186Y-138622111D01*
X148909862Y-138468972D01*
X148779628Y-138338738D01*
X148626489Y-138236414D01*
X148456329Y-138165932D01*
X148275689Y-138130000D01*
X148091511Y-138130000D01*
X147910871Y-138165932D01*
X147740711Y-138236414D01*
X147587572Y-138338738D01*
X147457338Y-138468972D01*
X147444659Y-138487948D01*
X147420974Y-138464263D01*
X147251456Y-138350995D01*
X147063098Y-138272974D01*
X146863139Y-138233200D01*
X146659261Y-138233200D01*
X146459302Y-138272974D01*
X146270944Y-138350995D01*
X146101426Y-138464263D01*
X145957263Y-138608426D01*
X145843995Y-138777944D01*
X145765974Y-138966302D01*
X145726200Y-139166261D01*
X145726200Y-139370139D01*
X145751051Y-139495076D01*
X145734038Y-139509038D01*
X145637229Y-139627000D01*
X145542298Y-139627000D01*
X145451562Y-139516438D01*
X145316987Y-139405995D01*
X145163451Y-139323928D01*
X144996855Y-139273392D01*
X144823601Y-139256328D01*
X143923599Y-139256328D01*
X143750345Y-139273392D01*
X143583749Y-139323928D01*
X143430213Y-139405995D01*
X143295638Y-139516438D01*
X143198829Y-139634400D01*
X140510469Y-139634400D01*
X139733493Y-138857425D01*
X139704626Y-138712302D01*
X139626605Y-138523944D01*
X139513337Y-138354426D01*
X139369174Y-138210263D01*
X139199656Y-138096995D01*
X139011298Y-138018974D01*
X138811339Y-137979200D01*
X138607461Y-137979200D01*
X138407502Y-138018974D01*
X138219144Y-138096995D01*
X138049626Y-138210263D01*
X137905463Y-138354426D01*
X137792195Y-138523944D01*
X137714174Y-138712302D01*
X137693849Y-138814482D01*
X137192204Y-139316128D01*
X136709999Y-139316128D01*
X136536745Y-139333192D01*
X136370149Y-139383728D01*
X136216613Y-139465795D01*
X136082038Y-139576238D01*
X135998688Y-139677800D01*
X135870971Y-139677800D01*
X135774162Y-139559838D01*
X135639587Y-139449395D01*
X135486051Y-139367328D01*
X135319455Y-139316792D01*
X135146201Y-139299728D01*
X134246199Y-139299728D01*
X134072945Y-139316792D01*
X133906349Y-139367328D01*
X133752813Y-139449395D01*
X133618238Y-139559838D01*
X133507795Y-139694413D01*
X133425728Y-139847949D01*
X133375192Y-140014545D01*
X133358128Y-140187799D01*
X133358128Y-140837801D01*
X133375192Y-141011055D01*
X133425728Y-141177651D01*
X133507795Y-141331187D01*
X133618238Y-141465762D01*
X133706016Y-141537800D01*
X133618238Y-141609838D01*
X133507795Y-141744413D01*
X133425728Y-141897949D01*
X133375192Y-142064545D01*
X133358128Y-142237799D01*
X133358128Y-142887801D01*
X133375192Y-143061055D01*
X133425728Y-143227651D01*
X133507795Y-143381187D01*
X133618238Y-143515762D01*
X133718949Y-143598413D01*
X133564866Y-143724866D01*
X133379294Y-143950986D01*
X133344799Y-144015523D01*
X133275178Y-143898645D01*
X133080269Y-143682412D01*
X132846920Y-143508359D01*
X132584099Y-143383175D01*
X132436890Y-143338524D01*
X132207000Y-143459845D01*
X132207000Y-144653000D01*
X132227000Y-144653000D01*
X132227000Y-144907000D01*
X132207000Y-144907000D01*
X132207000Y-146100155D01*
X132436890Y-146221476D01*
X132584099Y-146176825D01*
X132846920Y-146051641D01*
X133080269Y-145877588D01*
X133275178Y-145661355D01*
X133344799Y-145544477D01*
X133379294Y-145609014D01*
X133564866Y-145835134D01*
X133790986Y-146020706D01*
X134048966Y-146158599D01*
X134328889Y-146243513D01*
X134547050Y-146265000D01*
X134692950Y-146265000D01*
X134911111Y-146243513D01*
X135191034Y-146158599D01*
X135449014Y-146020706D01*
X135675134Y-145835134D01*
X135860706Y-145609014D01*
X135890000Y-145554209D01*
X135919294Y-145609014D01*
X136104866Y-145835134D01*
X136330986Y-146020706D01*
X136588966Y-146158599D01*
X136868889Y-146243513D01*
X137087050Y-146265000D01*
X137232950Y-146265000D01*
X137451111Y-146243513D01*
X137731034Y-146158599D01*
X137989014Y-146020706D01*
X138215134Y-145835134D01*
X138400706Y-145609014D01*
X138430000Y-145554209D01*
X138459294Y-145609014D01*
X138644866Y-145835134D01*
X138870986Y-146020706D01*
X139128966Y-146158599D01*
X139408889Y-146243513D01*
X139627050Y-146265000D01*
X139772950Y-146265000D01*
X139991111Y-146243513D01*
X140271034Y-146158599D01*
X140529014Y-146020706D01*
X140755134Y-145835134D01*
X140940706Y-145609014D01*
X140970000Y-145554209D01*
X140999294Y-145609014D01*
X141184866Y-145835134D01*
X141410986Y-146020706D01*
X141668966Y-146158599D01*
X141948889Y-146243513D01*
X142167050Y-146265000D01*
X142312950Y-146265000D01*
X142531111Y-146243513D01*
X142811034Y-146158599D01*
X143069014Y-146020706D01*
X143295134Y-145835134D01*
X143480706Y-145609014D01*
X143510000Y-145554209D01*
X143539294Y-145609014D01*
X143724866Y-145835134D01*
X143950986Y-146020706D01*
X144208966Y-146158599D01*
X144488889Y-146243513D01*
X144707050Y-146265000D01*
X144852950Y-146265000D01*
X145071111Y-146243513D01*
X145351034Y-146158599D01*
X145609014Y-146020706D01*
X145835134Y-145835134D01*
X146020706Y-145609014D01*
X146050000Y-145554209D01*
X146079294Y-145609014D01*
X146264866Y-145835134D01*
X146490986Y-146020706D01*
X146748966Y-146158599D01*
X147028889Y-146243513D01*
X147247050Y-146265000D01*
X147392950Y-146265000D01*
X147611111Y-146243513D01*
X147891034Y-146158599D01*
X148149014Y-146020706D01*
X148375134Y-145835134D01*
X148560706Y-145609014D01*
X148590000Y-145554209D01*
X148619294Y-145609014D01*
X148804866Y-145835134D01*
X149030986Y-146020706D01*
X149288966Y-146158599D01*
X149568889Y-146243513D01*
X149787050Y-146265000D01*
X149932950Y-146265000D01*
X150151111Y-146243513D01*
X150431034Y-146158599D01*
X150689014Y-146020706D01*
X150915134Y-145835134D01*
X151100706Y-145609014D01*
X151135201Y-145544477D01*
X151204822Y-145661355D01*
X151399731Y-145877588D01*
X151633080Y-146051641D01*
X151895901Y-146176825D01*
X152043110Y-146221476D01*
X152273000Y-146100155D01*
X152273000Y-144907000D01*
X152253000Y-144907000D01*
X152253000Y-144653000D01*
X152273000Y-144653000D01*
X152273000Y-143459845D01*
X152043110Y-143338524D01*
X151895901Y-143383175D01*
X151633080Y-143508359D01*
X151399731Y-143682412D01*
X151204822Y-143898645D01*
X151135201Y-144015523D01*
X151100706Y-143950986D01*
X150915134Y-143724866D01*
X150689014Y-143539294D01*
X150431034Y-143401401D01*
X150151111Y-143316487D01*
X149932950Y-143295000D01*
X149787050Y-143295000D01*
X149568889Y-143316487D01*
X149288966Y-143401401D01*
X149030986Y-143539294D01*
X148804866Y-143724866D01*
X148619294Y-143950986D01*
X148590000Y-144005791D01*
X148560706Y-143950986D01*
X148375134Y-143724866D01*
X148149014Y-143539294D01*
X148019213Y-143469914D01*
X148042537Y-143441494D01*
X148101502Y-143331180D01*
X148137812Y-143211482D01*
X148150072Y-143087000D01*
X148147000Y-142797750D01*
X147988250Y-142639000D01*
X146939000Y-142639000D01*
X146939000Y-142659000D01*
X146685000Y-142659000D01*
X146685000Y-142639000D01*
X145635750Y-142639000D01*
X145589100Y-142685650D01*
X145549850Y-142646400D01*
X144500600Y-142646400D01*
X144500600Y-142666400D01*
X144246600Y-142666400D01*
X144246600Y-142646400D01*
X143197350Y-142646400D01*
X143038600Y-142805150D01*
X143035528Y-143094400D01*
X143047788Y-143218882D01*
X143084098Y-143338580D01*
X143143063Y-143448894D01*
X143222415Y-143545585D01*
X143319106Y-143624937D01*
X143429420Y-143683902D01*
X143549118Y-143720212D01*
X143673600Y-143732472D01*
X143718900Y-143732136D01*
X143539294Y-143950986D01*
X143510000Y-144005791D01*
X143480706Y-143950986D01*
X143295134Y-143724866D01*
X143069014Y-143539294D01*
X142811034Y-143401401D01*
X142531111Y-143316487D01*
X142312950Y-143295000D01*
X142167050Y-143295000D01*
X141948889Y-143316487D01*
X141668966Y-143401401D01*
X141410986Y-143539294D01*
X141184866Y-143724866D01*
X140999294Y-143950986D01*
X140970000Y-144005791D01*
X140940706Y-143950986D01*
X140755134Y-143724866D01*
X140529014Y-143539294D01*
X140271034Y-143401401D01*
X139991111Y-143316487D01*
X139772950Y-143295000D01*
X139627050Y-143295000D01*
X139408889Y-143316487D01*
X139128966Y-143401401D01*
X138870986Y-143539294D01*
X138644866Y-143724866D01*
X138459294Y-143950986D01*
X138430000Y-144005791D01*
X138400706Y-143950986D01*
X138215134Y-143724866D01*
X138109143Y-143637881D01*
X138237962Y-143532162D01*
X138348405Y-143397587D01*
X138430472Y-143244051D01*
X138452816Y-143170394D01*
X138536838Y-143101438D01*
X138559858Y-143073388D01*
X139248715Y-142384532D01*
X139413929Y-142351668D01*
X139584089Y-142281186D01*
X139737228Y-142178862D01*
X139867462Y-142048628D01*
X139969786Y-141895489D01*
X140040268Y-141725329D01*
X140076200Y-141544689D01*
X140076200Y-141360511D01*
X140063869Y-141298519D01*
X140123581Y-141304400D01*
X140123582Y-141304400D01*
X140164600Y-141308440D01*
X140205618Y-141304400D01*
X143198829Y-141304400D01*
X143295638Y-141422362D01*
X143302194Y-141427742D01*
X143222415Y-141493215D01*
X143143063Y-141589906D01*
X143084098Y-141700220D01*
X143047788Y-141819918D01*
X143035528Y-141944400D01*
X143038600Y-142233650D01*
X143197350Y-142392400D01*
X144246600Y-142392400D01*
X144246600Y-142372400D01*
X144500600Y-142372400D01*
X144500600Y-142392400D01*
X145549850Y-142392400D01*
X145596500Y-142345750D01*
X145635750Y-142385000D01*
X146685000Y-142385000D01*
X146685000Y-142365000D01*
X146939000Y-142365000D01*
X146939000Y-142385000D01*
X147988250Y-142385000D01*
X148147000Y-142226250D01*
X148150072Y-141937000D01*
X148139250Y-141827118D01*
X148376958Y-142064826D01*
X148403109Y-142096691D01*
X148472910Y-142153975D01*
X148530254Y-142201036D01*
X148675313Y-142278572D01*
X148832711Y-142326318D01*
X148996399Y-142342440D01*
X149037418Y-142338400D01*
X153298733Y-142338400D01*
X154105001Y-143144669D01*
X154105001Y-143544206D01*
X153884866Y-143724866D01*
X153699294Y-143950986D01*
X153664799Y-144015523D01*
X153595178Y-143898645D01*
X153400269Y-143682412D01*
X153166920Y-143508359D01*
X152904099Y-143383175D01*
X152756890Y-143338524D01*
X152527000Y-143459845D01*
X152527000Y-144653000D01*
X152547000Y-144653000D01*
X152547000Y-144907000D01*
X152527000Y-144907000D01*
X152527000Y-146100155D01*
X152756890Y-146221476D01*
X152904099Y-146176825D01*
X153166920Y-146051641D01*
X153400269Y-145877588D01*
X153595178Y-145661355D01*
X153664799Y-145544477D01*
X153699294Y-145609014D01*
X153884866Y-145835134D01*
X154110986Y-146020706D01*
X154368966Y-146158599D01*
X154648889Y-146243513D01*
X154867050Y-146265000D01*
X155012950Y-146265000D01*
X155231111Y-146243513D01*
X155511034Y-146158599D01*
X155575800Y-146123981D01*
X155575800Y-146711200D01*
X112521200Y-146711200D01*
X112521200Y-137022408D01*
X112903000Y-137022408D01*
X112903000Y-137297592D01*
X112956686Y-137567490D01*
X113061995Y-137821727D01*
X113214880Y-138050535D01*
X113409465Y-138245120D01*
X113638273Y-138398005D01*
X113715515Y-138430000D01*
X113638273Y-138461995D01*
X113409465Y-138614880D01*
X113214880Y-138809465D01*
X113061995Y-139038273D01*
X112956686Y-139292510D01*
X112903000Y-139562408D01*
X112903000Y-139837592D01*
X112956686Y-140107490D01*
X113061995Y-140361727D01*
X113214880Y-140590535D01*
X113409465Y-140785120D01*
X113638273Y-140938005D01*
X113715515Y-140970000D01*
X113638273Y-141001995D01*
X113409465Y-141154880D01*
X113214880Y-141349465D01*
X113061995Y-141578273D01*
X112956686Y-141832510D01*
X112903000Y-142102408D01*
X112903000Y-142377592D01*
X112956686Y-142647490D01*
X113061995Y-142901727D01*
X113214880Y-143130535D01*
X113409465Y-143325120D01*
X113638273Y-143478005D01*
X113715515Y-143510000D01*
X113638273Y-143541995D01*
X113409465Y-143694880D01*
X113214880Y-143889465D01*
X113061995Y-144118273D01*
X112956686Y-144372510D01*
X112903000Y-144642408D01*
X112903000Y-144917592D01*
X112956686Y-145187490D01*
X113061995Y-145441727D01*
X113214880Y-145670535D01*
X113409465Y-145865120D01*
X113638273Y-146018005D01*
X113892510Y-146123314D01*
X114162408Y-146177000D01*
X114437592Y-146177000D01*
X114707490Y-146123314D01*
X114961727Y-146018005D01*
X115190535Y-145865120D01*
X115385120Y-145670535D01*
X115443920Y-145582535D01*
X115452188Y-145666482D01*
X115488498Y-145786180D01*
X115547463Y-145896494D01*
X115626815Y-145993185D01*
X115723506Y-146072537D01*
X115833820Y-146131502D01*
X115953518Y-146167812D01*
X116078000Y-146180072D01*
X116554250Y-146177000D01*
X116713000Y-146018250D01*
X116713000Y-144907000D01*
X116967000Y-144907000D01*
X116967000Y-146018250D01*
X117125750Y-146177000D01*
X117602000Y-146180072D01*
X117726482Y-146167812D01*
X117846180Y-146131502D01*
X117956494Y-146072537D01*
X118053185Y-145993185D01*
X118132537Y-145896494D01*
X118191502Y-145786180D01*
X118227812Y-145666482D01*
X118231405Y-145630000D01*
X120431928Y-145630000D01*
X120444188Y-145754482D01*
X120480498Y-145874180D01*
X120539463Y-145984494D01*
X120618815Y-146081185D01*
X120715506Y-146160537D01*
X120825820Y-146219502D01*
X120945518Y-146255812D01*
X121070000Y-146268072D01*
X121634250Y-146265000D01*
X121793000Y-146106250D01*
X121793000Y-144907000D01*
X120593750Y-144907000D01*
X120435000Y-145065750D01*
X120431928Y-145630000D01*
X118231405Y-145630000D01*
X118240072Y-145542000D01*
X118237000Y-145065750D01*
X118078250Y-144907000D01*
X116967000Y-144907000D01*
X116713000Y-144907000D01*
X116693000Y-144907000D01*
X116693000Y-144653000D01*
X116713000Y-144653000D01*
X116713000Y-144633000D01*
X116967000Y-144633000D01*
X116967000Y-144653000D01*
X118078250Y-144653000D01*
X118237000Y-144494250D01*
X118240072Y-144018000D01*
X118231406Y-143930000D01*
X120431928Y-143930000D01*
X120435000Y-144494250D01*
X120593750Y-144653000D01*
X121793000Y-144653000D01*
X121793000Y-143453750D01*
X122047000Y-143453750D01*
X122047000Y-144653000D01*
X122067000Y-144653000D01*
X122067000Y-144907000D01*
X122047000Y-144907000D01*
X122047000Y-146106250D01*
X122205750Y-146265000D01*
X122770000Y-146268072D01*
X122894482Y-146255812D01*
X123014180Y-146219502D01*
X123124494Y-146160537D01*
X123221185Y-146081185D01*
X123300537Y-145984494D01*
X123359502Y-145874180D01*
X123380393Y-145805313D01*
X123404866Y-145835134D01*
X123630986Y-146020706D01*
X123888966Y-146158599D01*
X124168889Y-146243513D01*
X124387050Y-146265000D01*
X124532950Y-146265000D01*
X124751111Y-146243513D01*
X125031034Y-146158599D01*
X125289014Y-146020706D01*
X125515134Y-145835134D01*
X125700706Y-145609014D01*
X125730000Y-145554209D01*
X125759294Y-145609014D01*
X125944866Y-145835134D01*
X126170986Y-146020706D01*
X126428966Y-146158599D01*
X126708889Y-146243513D01*
X126927050Y-146265000D01*
X127072950Y-146265000D01*
X127291111Y-146243513D01*
X127571034Y-146158599D01*
X127829014Y-146020706D01*
X128055134Y-145835134D01*
X128240706Y-145609014D01*
X128270000Y-145554209D01*
X128299294Y-145609014D01*
X128484866Y-145835134D01*
X128710986Y-146020706D01*
X128968966Y-146158599D01*
X129248889Y-146243513D01*
X129467050Y-146265000D01*
X129612950Y-146265000D01*
X129831111Y-146243513D01*
X130111034Y-146158599D01*
X130369014Y-146020706D01*
X130595134Y-145835134D01*
X130780706Y-145609014D01*
X130815201Y-145544477D01*
X130884822Y-145661355D01*
X131079731Y-145877588D01*
X131313080Y-146051641D01*
X131575901Y-146176825D01*
X131723110Y-146221476D01*
X131953000Y-146100155D01*
X131953000Y-144907000D01*
X131933000Y-144907000D01*
X131933000Y-144653000D01*
X131953000Y-144653000D01*
X131953000Y-143459845D01*
X131723110Y-143338524D01*
X131575901Y-143383175D01*
X131313080Y-143508359D01*
X131079731Y-143682412D01*
X130884822Y-143898645D01*
X130815201Y-144015523D01*
X130780706Y-143950986D01*
X130595134Y-143724866D01*
X130369014Y-143539294D01*
X130111034Y-143401401D01*
X129831111Y-143316487D01*
X129612950Y-143295000D01*
X129467050Y-143295000D01*
X129248889Y-143316487D01*
X128968966Y-143401401D01*
X128710986Y-143539294D01*
X128484866Y-143724866D01*
X128299294Y-143950986D01*
X128270000Y-144005791D01*
X128240706Y-143950986D01*
X128055134Y-143724866D01*
X127829014Y-143539294D01*
X127571034Y-143401401D01*
X127291111Y-143316487D01*
X127072950Y-143295000D01*
X126927050Y-143295000D01*
X126708889Y-143316487D01*
X126428966Y-143401401D01*
X126170986Y-143539294D01*
X125944866Y-143724866D01*
X125759294Y-143950986D01*
X125730000Y-144005791D01*
X125700706Y-143950986D01*
X125515134Y-143724866D01*
X125289014Y-143539294D01*
X125031034Y-143401401D01*
X124751111Y-143316487D01*
X124532950Y-143295000D01*
X124387050Y-143295000D01*
X124168889Y-143316487D01*
X123888966Y-143401401D01*
X123630986Y-143539294D01*
X123404866Y-143724866D01*
X123380393Y-143754687D01*
X123359502Y-143685820D01*
X123300537Y-143575506D01*
X123221185Y-143478815D01*
X123124494Y-143399463D01*
X123014180Y-143340498D01*
X122894482Y-143304188D01*
X122770000Y-143291928D01*
X122205750Y-143295000D01*
X122047000Y-143453750D01*
X121793000Y-143453750D01*
X121634250Y-143295000D01*
X121070000Y-143291928D01*
X120945518Y-143304188D01*
X120825820Y-143340498D01*
X120715506Y-143399463D01*
X120618815Y-143478815D01*
X120539463Y-143575506D01*
X120480498Y-143685820D01*
X120444188Y-143805518D01*
X120431928Y-143930000D01*
X118231406Y-143930000D01*
X118227812Y-143893518D01*
X118191502Y-143773820D01*
X118132537Y-143663506D01*
X118053185Y-143566815D01*
X117956494Y-143487463D01*
X117846180Y-143428498D01*
X117726482Y-143392188D01*
X117642535Y-143383920D01*
X117730535Y-143325120D01*
X117925120Y-143130535D01*
X118078005Y-142901727D01*
X118183314Y-142647490D01*
X118237000Y-142377592D01*
X118237000Y-142102408D01*
X118183314Y-141832510D01*
X118078005Y-141578273D01*
X117925120Y-141349465D01*
X117730535Y-141154880D01*
X117501727Y-141001995D01*
X117424485Y-140970000D01*
X117501727Y-140938005D01*
X117730535Y-140785120D01*
X117925120Y-140590535D01*
X118078005Y-140361727D01*
X118183314Y-140107490D01*
X118217465Y-139935800D01*
X121291328Y-139935800D01*
X121303588Y-140060282D01*
X121339898Y-140179980D01*
X121398863Y-140290294D01*
X121478215Y-140386985D01*
X121574906Y-140466337D01*
X121685220Y-140525302D01*
X121804918Y-140561612D01*
X121929400Y-140573872D01*
X123293650Y-140570800D01*
X123452400Y-140412050D01*
X123452400Y-139292800D01*
X123706400Y-139292800D01*
X123706400Y-140412050D01*
X123865150Y-140570800D01*
X125229400Y-140573872D01*
X125353882Y-140561612D01*
X125473580Y-140525302D01*
X125583894Y-140466337D01*
X125680585Y-140386985D01*
X125759937Y-140290294D01*
X125818902Y-140179980D01*
X125855212Y-140060282D01*
X125867472Y-139935800D01*
X125864400Y-139451550D01*
X125705650Y-139292800D01*
X123706400Y-139292800D01*
X123452400Y-139292800D01*
X121453150Y-139292800D01*
X121294400Y-139451550D01*
X121291328Y-139935800D01*
X118217465Y-139935800D01*
X118237000Y-139837592D01*
X118237000Y-139562408D01*
X118183314Y-139292510D01*
X118078005Y-139038273D01*
X117925120Y-138809465D01*
X117730535Y-138614880D01*
X117501727Y-138461995D01*
X117424485Y-138430000D01*
X117501727Y-138398005D01*
X117730535Y-138245120D01*
X117925120Y-138050535D01*
X118078005Y-137821727D01*
X118183314Y-137567490D01*
X118237000Y-137297592D01*
X118237000Y-137022408D01*
X118183314Y-136752510D01*
X118078005Y-136498273D01*
X117925120Y-136269465D01*
X117730535Y-136074880D01*
X117501727Y-135921995D01*
X117247490Y-135816686D01*
X116977592Y-135763000D01*
X116702408Y-135763000D01*
X116432510Y-135816686D01*
X116178273Y-135921995D01*
X115949465Y-136074880D01*
X115754880Y-136269465D01*
X115601995Y-136498273D01*
X115570000Y-136575515D01*
X115538005Y-136498273D01*
X115385120Y-136269465D01*
X115190535Y-136074880D01*
X114961727Y-135921995D01*
X114707490Y-135816686D01*
X114437592Y-135763000D01*
X114162408Y-135763000D01*
X113892510Y-135816686D01*
X113638273Y-135921995D01*
X113409465Y-136074880D01*
X113214880Y-136269465D01*
X113061995Y-136498273D01*
X112956686Y-136752510D01*
X112903000Y-137022408D01*
X112521200Y-137022408D01*
X112521200Y-132421400D01*
X121628728Y-132421400D01*
X121631800Y-132835650D01*
X121790550Y-132994400D01*
X122714800Y-132994400D01*
X122714800Y-131945150D01*
X122556050Y-131786400D01*
X122266800Y-131783328D01*
X122142318Y-131795588D01*
X122022620Y-131831898D01*
X121912306Y-131890863D01*
X121815615Y-131970215D01*
X121736263Y-132066906D01*
X121677298Y-132177220D01*
X121640988Y-132296918D01*
X121628728Y-132421400D01*
X112521200Y-132421400D01*
X112521200Y-129134890D01*
X115906524Y-129134890D01*
X115951175Y-129282099D01*
X116076359Y-129544920D01*
X116250412Y-129778269D01*
X116466645Y-129973178D01*
X116716748Y-130122157D01*
X116991109Y-130219481D01*
X117221000Y-130098814D01*
X117221000Y-128905000D01*
X117475000Y-128905000D01*
X117475000Y-130098814D01*
X117704891Y-130219481D01*
X117979252Y-130122157D01*
X118229355Y-129973178D01*
X118445588Y-129778269D01*
X118619641Y-129544920D01*
X118744825Y-129282099D01*
X118789476Y-129134890D01*
X118668155Y-128905000D01*
X117475000Y-128905000D01*
X117221000Y-128905000D01*
X116027845Y-128905000D01*
X115906524Y-129134890D01*
X112521200Y-129134890D01*
X112521200Y-125388000D01*
X115859928Y-125388000D01*
X115859928Y-127088000D01*
X115872188Y-127212482D01*
X115908498Y-127332180D01*
X115967463Y-127442494D01*
X116046815Y-127539185D01*
X116143506Y-127618537D01*
X116253820Y-127677502D01*
X116334466Y-127701966D01*
X116250412Y-127777731D01*
X116076359Y-128011080D01*
X115951175Y-128273901D01*
X115906524Y-128421110D01*
X116027845Y-128651000D01*
X117221000Y-128651000D01*
X117221000Y-128631000D01*
X117475000Y-128631000D01*
X117475000Y-128651000D01*
X118668155Y-128651000D01*
X118789476Y-128421110D01*
X118744825Y-128273901D01*
X118619641Y-128011080D01*
X118445588Y-127777731D01*
X118361534Y-127701966D01*
X118442180Y-127677502D01*
X118552494Y-127618537D01*
X118649185Y-127539185D01*
X118728537Y-127442494D01*
X118787502Y-127332180D01*
X118823812Y-127212482D01*
X118836072Y-127088000D01*
X118836072Y-125388000D01*
X118823812Y-125263518D01*
X118787502Y-125143820D01*
X118728537Y-125033506D01*
X118649185Y-124936815D01*
X118552494Y-124857463D01*
X118442180Y-124798498D01*
X118322482Y-124762188D01*
X118198000Y-124749928D01*
X116498000Y-124749928D01*
X116373518Y-124762188D01*
X116253820Y-124798498D01*
X116143506Y-124857463D01*
X116046815Y-124936815D01*
X115967463Y-125033506D01*
X115908498Y-125143820D01*
X115872188Y-125263518D01*
X115859928Y-125388000D01*
X112521200Y-125388000D01*
X112521200Y-122301000D01*
X134908889Y-122301000D01*
X134857463Y-122352426D01*
X134857463Y-122352426D01*
G37*
X134857463Y-122352426D02*
X134744195Y-122521944D01*
X134666174Y-122710302D01*
X134626400Y-122910261D01*
X134626400Y-123114139D01*
X134666174Y-123314098D01*
X134744195Y-123502456D01*
X134857463Y-123671974D01*
X135001626Y-123816137D01*
X135171144Y-123929405D01*
X135359502Y-124007426D01*
X135504624Y-124036292D01*
X135612833Y-124144502D01*
X135660928Y-124303051D01*
X135742995Y-124456587D01*
X135853438Y-124591162D01*
X135941216Y-124663200D01*
X135853438Y-124735238D01*
X135742995Y-124869813D01*
X135660928Y-125023349D01*
X135610392Y-125189945D01*
X135593328Y-125363199D01*
X135593328Y-125435282D01*
X134589672Y-124431626D01*
X134589672Y-123837000D01*
X134577412Y-123712518D01*
X134541102Y-123592820D01*
X134482137Y-123482506D01*
X134402785Y-123385815D01*
X134306094Y-123306463D01*
X134195780Y-123247498D01*
X134076082Y-123211188D01*
X133951600Y-123198928D01*
X132801600Y-123198928D01*
X132677773Y-123211059D01*
X132651665Y-123218949D01*
X132626082Y-123211188D01*
X132501600Y-123198928D01*
X131501600Y-123198928D01*
X131377118Y-123211188D01*
X131257420Y-123247498D01*
X131147106Y-123306463D01*
X131050415Y-123385815D01*
X130971063Y-123482506D01*
X130912098Y-123592820D01*
X130875788Y-123712518D01*
X130863528Y-123837000D01*
X130863528Y-124544204D01*
X129877733Y-125530000D01*
X125041303Y-125530000D01*
X125000284Y-125525960D01*
X124981233Y-125527836D01*
X124899456Y-125473195D01*
X124711098Y-125395174D01*
X124511139Y-125355400D01*
X124307261Y-125355400D01*
X124107302Y-125395174D01*
X123918944Y-125473195D01*
X123749426Y-125586463D01*
X123605263Y-125730626D01*
X123491995Y-125900144D01*
X123413974Y-126088502D01*
X123374200Y-126288461D01*
X123374200Y-126492339D01*
X123413974Y-126692298D01*
X123491995Y-126880656D01*
X123605263Y-127050174D01*
X123749426Y-127194337D01*
X123918944Y-127307605D01*
X124107302Y-127385626D01*
X124307261Y-127425400D01*
X124511139Y-127425400D01*
X124711098Y-127385626D01*
X124899456Y-127307605D01*
X125023623Y-127224640D01*
X125138574Y-127213318D01*
X125182478Y-127200000D01*
X130182582Y-127200000D01*
X130223600Y-127204040D01*
X130264618Y-127200000D01*
X130264619Y-127200000D01*
X130387289Y-127187918D01*
X130544687Y-127140172D01*
X130689746Y-127062636D01*
X130816891Y-126958291D01*
X130843046Y-126926421D01*
X131794396Y-125975072D01*
X132501600Y-125975072D01*
X132626736Y-125962681D01*
X132651664Y-125955091D01*
X132677118Y-125962812D01*
X132801600Y-125975072D01*
X133951600Y-125975072D01*
X134045025Y-125965871D01*
X135410953Y-127331800D01*
X134656105Y-127331800D01*
X134620000Y-127328244D01*
X134583895Y-127331800D01*
X134475915Y-127342435D01*
X134337367Y-127384463D01*
X134209680Y-127452713D01*
X134097762Y-127544562D01*
X134074746Y-127572607D01*
X133313008Y-128334346D01*
X133284963Y-128357362D01*
X133193114Y-128469280D01*
X133180008Y-128493800D01*
X133124864Y-128596967D01*
X133082835Y-128735515D01*
X133068644Y-128879600D01*
X133072201Y-128915715D01*
X133072200Y-130646895D01*
X133068644Y-130683000D01*
X133078241Y-130780438D01*
X133082835Y-130827084D01*
X133124863Y-130965632D01*
X133141342Y-130996462D01*
X133125320Y-130983313D01*
X132997633Y-130915063D01*
X132859085Y-130873035D01*
X132751105Y-130862400D01*
X132715000Y-130858844D01*
X132678895Y-130862400D01*
X126451894Y-130862400D01*
X126415799Y-130858845D01*
X126379704Y-130862400D01*
X126379695Y-130862400D01*
X126271715Y-130873035D01*
X126133167Y-130915063D01*
X126005480Y-130983313D01*
X125893562Y-131075162D01*
X125870546Y-131103207D01*
X125190425Y-131783328D01*
X124566799Y-131783328D01*
X124393545Y-131800392D01*
X124226949Y-131850928D01*
X124073413Y-131932995D01*
X123938838Y-132043438D01*
X123933458Y-132049994D01*
X123867985Y-131970215D01*
X123771294Y-131890863D01*
X123660980Y-131831898D01*
X123541282Y-131795588D01*
X123416800Y-131783328D01*
X123127550Y-131786400D01*
X122968800Y-131945150D01*
X122968800Y-132994400D01*
X122988800Y-132994400D01*
X122988800Y-133248400D01*
X122968800Y-133248400D01*
X122968800Y-134297650D01*
X123127550Y-134456400D01*
X123416800Y-134459472D01*
X123541282Y-134447212D01*
X123660980Y-134410902D01*
X123712264Y-134383490D01*
X123085208Y-135010546D01*
X123057163Y-135033562D01*
X122988090Y-135117728D01*
X121929400Y-135117728D01*
X121804918Y-135129988D01*
X121685220Y-135166298D01*
X121574906Y-135225263D01*
X121478215Y-135304615D01*
X121398863Y-135401306D01*
X121339898Y-135511620D01*
X121303588Y-135631318D01*
X121291328Y-135755800D01*
X121291328Y-136428238D01*
X121195228Y-136332138D01*
X121042089Y-136229814D01*
X120871929Y-136159332D01*
X120706715Y-136126469D01*
X118857371Y-134277125D01*
X118836986Y-134227911D01*
X118734662Y-134074772D01*
X118604428Y-133944538D01*
X118451289Y-133842214D01*
X118401040Y-133821400D01*
X121628728Y-133821400D01*
X121640988Y-133945882D01*
X121677298Y-134065580D01*
X121736263Y-134175894D01*
X121815615Y-134272585D01*
X121912306Y-134351937D01*
X122022620Y-134410902D01*
X122142318Y-134447212D01*
X122266800Y-134459472D01*
X122556050Y-134456400D01*
X122714800Y-134297650D01*
X122714800Y-133248400D01*
X121790550Y-133248400D01*
X121631800Y-133407150D01*
X121628728Y-133821400D01*
X118401040Y-133821400D01*
X118281129Y-133771732D01*
X118100489Y-133735800D01*
X117916311Y-133735800D01*
X117735671Y-133771732D01*
X117565511Y-133842214D01*
X117412372Y-133944538D01*
X117282138Y-134074772D01*
X117179814Y-134227911D01*
X117109332Y-134398071D01*
X117073400Y-134578711D01*
X117073400Y-134762889D01*
X117109332Y-134943529D01*
X117179814Y-135113689D01*
X117282138Y-135266828D01*
X117412372Y-135397062D01*
X117565511Y-135499386D01*
X117735671Y-135569868D01*
X117916311Y-135605800D01*
X118100489Y-135605800D01*
X118106048Y-135604694D01*
X119667269Y-137165915D01*
X119700132Y-137331129D01*
X119770614Y-137501289D01*
X119872938Y-137654428D01*
X120003172Y-137784662D01*
X120156311Y-137886986D01*
X120326471Y-137957468D01*
X120507111Y-137993400D01*
X120691289Y-137993400D01*
X120871929Y-137957468D01*
X121042089Y-137886986D01*
X121195228Y-137784662D01*
X121325462Y-137654428D01*
X121367469Y-137591560D01*
X121398863Y-137650294D01*
X121478215Y-137746985D01*
X121574906Y-137826337D01*
X121611318Y-137845800D01*
X121574906Y-137865263D01*
X121478215Y-137944615D01*
X121398863Y-138041306D01*
X121339898Y-138151620D01*
X121303588Y-138271318D01*
X121291328Y-138395800D01*
X121294400Y-138880050D01*
X121453150Y-139038800D01*
X123452400Y-139038800D01*
X123452400Y-139018800D01*
X123706400Y-139018800D01*
X123706400Y-139038800D01*
X125705650Y-139038800D01*
X125864400Y-138880050D01*
X125867472Y-138395800D01*
X125855212Y-138271318D01*
X125818902Y-138151620D01*
X125759937Y-138041306D01*
X125680585Y-137944615D01*
X125583894Y-137865263D01*
X125547482Y-137845800D01*
X125583894Y-137826337D01*
X125680585Y-137746985D01*
X125759937Y-137650294D01*
X125818902Y-137539980D01*
X125855212Y-137420282D01*
X125867472Y-137295800D01*
X125867472Y-135755800D01*
X128691328Y-135755800D01*
X128694400Y-136240050D01*
X128853150Y-136398800D01*
X130852400Y-136398800D01*
X130852400Y-135279550D01*
X131106400Y-135279550D01*
X131106400Y-136398800D01*
X133105650Y-136398800D01*
X133264400Y-136240050D01*
X133267472Y-135755800D01*
X133255212Y-135631318D01*
X133218902Y-135511620D01*
X133159937Y-135401306D01*
X133080585Y-135304615D01*
X132983894Y-135225263D01*
X132873580Y-135166298D01*
X132753882Y-135129988D01*
X132629400Y-135117728D01*
X131265150Y-135120800D01*
X131106400Y-135279550D01*
X130852400Y-135279550D01*
X130693650Y-135120800D01*
X129329400Y-135117728D01*
X129204918Y-135129988D01*
X129085220Y-135166298D01*
X128974906Y-135225263D01*
X128878215Y-135304615D01*
X128798863Y-135401306D01*
X128739898Y-135511620D01*
X128703588Y-135631318D01*
X128691328Y-135755800D01*
X125867472Y-135755800D01*
X125855212Y-135631318D01*
X125818902Y-135511620D01*
X125759937Y-135401306D01*
X125680585Y-135304615D01*
X125583894Y-135225263D01*
X125473580Y-135166298D01*
X125353882Y-135129988D01*
X125229400Y-135117728D01*
X125056919Y-135117728D01*
X125385997Y-134788650D01*
X125414037Y-134765638D01*
X125437050Y-134737597D01*
X125437053Y-134737594D01*
X125482355Y-134682393D01*
X125505887Y-134653720D01*
X125574137Y-134526033D01*
X125616165Y-134387485D01*
X125619016Y-134358537D01*
X125710187Y-134309805D01*
X125844762Y-134199362D01*
X125955205Y-134064787D01*
X126037272Y-133911251D01*
X126056822Y-133846800D01*
X128842328Y-133846800D01*
X128854588Y-133971282D01*
X128890898Y-134090980D01*
X128949863Y-134201294D01*
X129029215Y-134297985D01*
X129125906Y-134377337D01*
X129236220Y-134436302D01*
X129355918Y-134472612D01*
X129480400Y-134484872D01*
X129769650Y-134481800D01*
X129928400Y-134323050D01*
X129928400Y-133273800D01*
X129004150Y-133273800D01*
X128845400Y-133432550D01*
X128842328Y-133846800D01*
X126056822Y-133846800D01*
X126087808Y-133744655D01*
X126104872Y-133571401D01*
X126104872Y-132947774D01*
X126720247Y-132332400D01*
X128853595Y-132332400D01*
X128842328Y-132446800D01*
X128845400Y-132861050D01*
X129004150Y-133019800D01*
X129928400Y-133019800D01*
X129928400Y-132999800D01*
X130182400Y-132999800D01*
X130182400Y-133019800D01*
X130202400Y-133019800D01*
X130202400Y-133273800D01*
X130182400Y-133273800D01*
X130182400Y-134323050D01*
X130341150Y-134481800D01*
X130630400Y-134484872D01*
X130754882Y-134472612D01*
X130874580Y-134436302D01*
X130984894Y-134377337D01*
X131081585Y-134297985D01*
X131147058Y-134218206D01*
X131152438Y-134224762D01*
X131287013Y-134335205D01*
X131440549Y-134417272D01*
X131607145Y-134467808D01*
X131780399Y-134484872D01*
X132430401Y-134484872D01*
X132603655Y-134467808D01*
X132770251Y-134417272D01*
X132869167Y-134364400D01*
X133631001Y-134364400D01*
X133631000Y-137324753D01*
X133042442Y-137913312D01*
X132983894Y-137865263D01*
X132947482Y-137845800D01*
X132983894Y-137826337D01*
X133080585Y-137746985D01*
X133159937Y-137650294D01*
X133218902Y-137539980D01*
X133255212Y-137420282D01*
X133267472Y-137295800D01*
X133264400Y-136811550D01*
X133105650Y-136652800D01*
X131106400Y-136652800D01*
X131106400Y-136672800D01*
X130852400Y-136672800D01*
X130852400Y-136652800D01*
X128853150Y-136652800D01*
X128694400Y-136811550D01*
X128691328Y-137295800D01*
X128703588Y-137420282D01*
X128739898Y-137539980D01*
X128798863Y-137650294D01*
X128878215Y-137746985D01*
X128974906Y-137826337D01*
X129011318Y-137845800D01*
X128974906Y-137865263D01*
X128878215Y-137944615D01*
X128798863Y-138041306D01*
X128739898Y-138151620D01*
X128703588Y-138271318D01*
X128691328Y-138395800D01*
X128691328Y-139935800D01*
X128703588Y-140060282D01*
X128739898Y-140179980D01*
X128798863Y-140290294D01*
X128878215Y-140386985D01*
X128974906Y-140466337D01*
X129085220Y-140525302D01*
X129204918Y-140561612D01*
X129329400Y-140573872D01*
X132629400Y-140573872D01*
X132753882Y-140561612D01*
X132873580Y-140525302D01*
X132983894Y-140466337D01*
X133080585Y-140386985D01*
X133159937Y-140290294D01*
X133218902Y-140179980D01*
X133255212Y-140060282D01*
X133267472Y-139935800D01*
X133267472Y-139757111D01*
X133351638Y-139688038D01*
X133374658Y-139659988D01*
X134860197Y-138174450D01*
X134888237Y-138151438D01*
X134911250Y-138123397D01*
X134911253Y-138123394D01*
X134980087Y-138039520D01*
X135048337Y-137911834D01*
X135060795Y-137870767D01*
X135150167Y-137918537D01*
X135288715Y-137960565D01*
X135396695Y-137971200D01*
X135396704Y-137971200D01*
X135432799Y-137974755D01*
X135468894Y-137971200D01*
X136717495Y-137971200D01*
X136753600Y-137974756D01*
X136789705Y-137971200D01*
X136897685Y-137960565D01*
X137036233Y-137918537D01*
X137163920Y-137850287D01*
X137275838Y-137758438D01*
X137298859Y-137730387D01*
X137679587Y-137349659D01*
X137707638Y-137326638D01*
X137799487Y-137214720D01*
X137867737Y-137087033D01*
X137909765Y-136948485D01*
X137920400Y-136840505D01*
X137920400Y-136840496D01*
X137923955Y-136804401D01*
X137920400Y-136768306D01*
X137920400Y-135843001D01*
X137926487Y-135835584D01*
X137994737Y-135707897D01*
X138023887Y-135611803D01*
X138038662Y-135597028D01*
X138140986Y-135443889D01*
X138211468Y-135273729D01*
X138247400Y-135093089D01*
X138247400Y-134908911D01*
X138211468Y-134728271D01*
X138140986Y-134558111D01*
X138038662Y-134404972D01*
X137998090Y-134364400D01*
X139065354Y-134364400D01*
X139090158Y-134389204D01*
X139113179Y-134417255D01*
X139225097Y-134509104D01*
X139352784Y-134577354D01*
X139441330Y-134604214D01*
X139491331Y-134619382D01*
X139505549Y-134620782D01*
X139599312Y-134630017D01*
X139599319Y-134630017D01*
X139635416Y-134633572D01*
X139671513Y-134630017D01*
X139970958Y-134630017D01*
X140111020Y-134723603D01*
X140281180Y-134794085D01*
X140461820Y-134830017D01*
X140645998Y-134830017D01*
X140826638Y-134794085D01*
X140996798Y-134723603D01*
X141028784Y-134702231D01*
X142247869Y-135921315D01*
X142280732Y-136086529D01*
X142351214Y-136256689D01*
X142453538Y-136409828D01*
X142583772Y-136540062D01*
X142736911Y-136642386D01*
X142907071Y-136712868D01*
X143087711Y-136748800D01*
X143271889Y-136748800D01*
X143452529Y-136712868D01*
X143622689Y-136642386D01*
X143775828Y-136540062D01*
X143906062Y-136409828D01*
X144008386Y-136256689D01*
X144078868Y-136086529D01*
X144114800Y-135905889D01*
X144114800Y-135721711D01*
X144078868Y-135541071D01*
X144008386Y-135370911D01*
X143906062Y-135217772D01*
X143775828Y-135087538D01*
X143622689Y-134985214D01*
X143452529Y-134914732D01*
X143287315Y-134881869D01*
X142338356Y-133932910D01*
X150196524Y-133932910D01*
X150317845Y-134162800D01*
X151511000Y-134162800D01*
X151511000Y-132968986D01*
X151765000Y-132968986D01*
X151765000Y-134162800D01*
X152958155Y-134162800D01*
X153079476Y-133932910D01*
X153034825Y-133785701D01*
X152909641Y-133522880D01*
X152735588Y-133289531D01*
X152519355Y-133094622D01*
X152269252Y-132945643D01*
X151994891Y-132848319D01*
X151765000Y-132968986D01*
X151511000Y-132968986D01*
X151281109Y-132848319D01*
X151006748Y-132945643D01*
X150756645Y-133094622D01*
X150540412Y-133289531D01*
X150366359Y-133522880D01*
X150241175Y-133785701D01*
X150196524Y-133932910D01*
X142338356Y-133932910D01*
X141938639Y-133533193D01*
X141959974Y-133518937D01*
X142104137Y-133374774D01*
X142217405Y-133205256D01*
X142295426Y-133016898D01*
X142335200Y-132816939D01*
X142335200Y-132613061D01*
X142328107Y-132577400D01*
X142690829Y-132577400D01*
X142787638Y-132695362D01*
X142922213Y-132805805D01*
X143075749Y-132887872D01*
X143242345Y-132938408D01*
X143415599Y-132955472D01*
X144315601Y-132955472D01*
X144488855Y-132938408D01*
X144655451Y-132887872D01*
X144808987Y-132805805D01*
X144913400Y-132720115D01*
X144913400Y-132791539D01*
X144953174Y-132991498D01*
X145031195Y-133179856D01*
X145144463Y-133349374D01*
X145288626Y-133493537D01*
X145458144Y-133606805D01*
X145646502Y-133684826D01*
X145846461Y-133724600D01*
X146050339Y-133724600D01*
X146250298Y-133684826D01*
X146438656Y-133606805D01*
X146608174Y-133493537D01*
X146752337Y-133349374D01*
X146865605Y-133179856D01*
X146943626Y-132991498D01*
X146950792Y-132955472D01*
X147109601Y-132955472D01*
X147282855Y-132938408D01*
X147364782Y-132913556D01*
X147413944Y-132946405D01*
X147602302Y-133024426D01*
X147802261Y-133064200D01*
X148006139Y-133064200D01*
X148206098Y-133024426D01*
X148394456Y-132946405D01*
X148563974Y-132833137D01*
X148708137Y-132688974D01*
X148821405Y-132519456D01*
X148899426Y-132331098D01*
X148939200Y-132131139D01*
X148939200Y-131927261D01*
X148899426Y-131727302D01*
X148821405Y-131538944D01*
X148708137Y-131369426D01*
X148563974Y-131225263D01*
X148394456Y-131111995D01*
X148206098Y-131033974D01*
X148006139Y-130994200D01*
X147885521Y-130994200D01*
X147848005Y-130924013D01*
X147737562Y-130789438D01*
X147731006Y-130784058D01*
X147810785Y-130718585D01*
X147890137Y-130621894D01*
X147949102Y-130511580D01*
X147985412Y-130391882D01*
X147997672Y-130267400D01*
X147994600Y-129978150D01*
X147835850Y-129819400D01*
X146786600Y-129819400D01*
X146786600Y-129839400D01*
X146532600Y-129839400D01*
X146532600Y-129819400D01*
X145483350Y-129819400D01*
X145324600Y-129978150D01*
X145321528Y-130267400D01*
X145333788Y-130391882D01*
X145370098Y-130511580D01*
X145429063Y-130621894D01*
X145508415Y-130718585D01*
X145588194Y-130784058D01*
X145581638Y-130789438D01*
X145484829Y-130907400D01*
X145040371Y-130907400D01*
X144943562Y-130789438D01*
X144937006Y-130784058D01*
X145016785Y-130718585D01*
X145096137Y-130621894D01*
X145155102Y-130511580D01*
X145191412Y-130391882D01*
X145203672Y-130267400D01*
X145200600Y-129978150D01*
X145041850Y-129819400D01*
X143992600Y-129819400D01*
X143992600Y-129839400D01*
X143738600Y-129839400D01*
X143738600Y-129819400D01*
X142689350Y-129819400D01*
X142530600Y-129978150D01*
X142527528Y-130267400D01*
X142539788Y-130391882D01*
X142576098Y-130511580D01*
X142635063Y-130621894D01*
X142714415Y-130718585D01*
X142794194Y-130784058D01*
X142787638Y-130789438D01*
X142690829Y-130907400D01*
X142246371Y-130907400D01*
X142149562Y-130789438D01*
X142143006Y-130784058D01*
X142222785Y-130718585D01*
X142302137Y-130621894D01*
X142361102Y-130511580D01*
X142397412Y-130391882D01*
X142409672Y-130267400D01*
X142406600Y-129978150D01*
X142247850Y-129819400D01*
X141198600Y-129819400D01*
X141198600Y-129839400D01*
X140944600Y-129839400D01*
X140944600Y-129819400D01*
X140924600Y-129819400D01*
X140924600Y-129565400D01*
X140944600Y-129565400D01*
X140944600Y-128641150D01*
X141198600Y-128641150D01*
X141198600Y-129565400D01*
X142247850Y-129565400D01*
X142406600Y-129406650D01*
X142409672Y-129117400D01*
X142527528Y-129117400D01*
X142530600Y-129406650D01*
X142689350Y-129565400D01*
X143738600Y-129565400D01*
X143738600Y-128641150D01*
X143992600Y-128641150D01*
X143992600Y-129565400D01*
X145041850Y-129565400D01*
X145200600Y-129406650D01*
X145203672Y-129117400D01*
X145321528Y-129117400D01*
X145324600Y-129406650D01*
X145483350Y-129565400D01*
X146532600Y-129565400D01*
X146532600Y-128641150D01*
X146786600Y-128641150D01*
X146786600Y-129565400D01*
X147835850Y-129565400D01*
X147994600Y-129406650D01*
X147997672Y-129117400D01*
X147985412Y-128992918D01*
X147949102Y-128873220D01*
X147890137Y-128762906D01*
X147810785Y-128666215D01*
X147714094Y-128586863D01*
X147603780Y-128527898D01*
X147484082Y-128491588D01*
X147359600Y-128479328D01*
X146945350Y-128482400D01*
X146786600Y-128641150D01*
X146532600Y-128641150D01*
X146373850Y-128482400D01*
X145959600Y-128479328D01*
X145835118Y-128491588D01*
X145715420Y-128527898D01*
X145605106Y-128586863D01*
X145508415Y-128666215D01*
X145429063Y-128762906D01*
X145370098Y-128873220D01*
X145333788Y-128992918D01*
X145321528Y-129117400D01*
X145203672Y-129117400D01*
X145191412Y-128992918D01*
X145155102Y-128873220D01*
X145096137Y-128762906D01*
X145016785Y-128666215D01*
X144920094Y-128586863D01*
X144809780Y-128527898D01*
X144690082Y-128491588D01*
X144565600Y-128479328D01*
X144151350Y-128482400D01*
X143992600Y-128641150D01*
X143738600Y-128641150D01*
X143579850Y-128482400D01*
X143165600Y-128479328D01*
X143041118Y-128491588D01*
X142921420Y-128527898D01*
X142811106Y-128586863D01*
X142714415Y-128666215D01*
X142635063Y-128762906D01*
X142576098Y-128873220D01*
X142539788Y-128992918D01*
X142527528Y-129117400D01*
X142409672Y-129117400D01*
X142397412Y-128992918D01*
X142361102Y-128873220D01*
X142302137Y-128762906D01*
X142222785Y-128666215D01*
X142126094Y-128586863D01*
X142015780Y-128527898D01*
X141896082Y-128491588D01*
X141771600Y-128479328D01*
X141357350Y-128482400D01*
X141198600Y-128641150D01*
X140944600Y-128641150D01*
X140791522Y-128488072D01*
X140804000Y-128488072D01*
X140928482Y-128475812D01*
X141048180Y-128439502D01*
X141158494Y-128380537D01*
X141255185Y-128301185D01*
X141334537Y-128204494D01*
X141393502Y-128094180D01*
X141417966Y-128013534D01*
X141493731Y-128097588D01*
X141727080Y-128271641D01*
X141989901Y-128396825D01*
X142137110Y-128441476D01*
X142367000Y-128320155D01*
X142367000Y-127127000D01*
X142347000Y-127127000D01*
X142347000Y-126873000D01*
X142367000Y-126873000D01*
X142367000Y-124587000D01*
X142347000Y-124587000D01*
X142347000Y-124333000D01*
X142367000Y-124333000D01*
X142367000Y-123139845D01*
X142621000Y-123139845D01*
X142621000Y-124333000D01*
X142641000Y-124333000D01*
X142641000Y-124587000D01*
X142621000Y-124587000D01*
X142621000Y-126873000D01*
X142641000Y-126873000D01*
X142641000Y-127127000D01*
X142621000Y-127127000D01*
X142621000Y-128320155D01*
X142850890Y-128441476D01*
X142998099Y-128396825D01*
X143260920Y-128271641D01*
X143494269Y-128097588D01*
X143689178Y-127881355D01*
X143758799Y-127764477D01*
X143793294Y-127829014D01*
X143978866Y-128055134D01*
X144204986Y-128240706D01*
X144462966Y-128378599D01*
X144742889Y-128463513D01*
X144961050Y-128485000D01*
X145106950Y-128485000D01*
X145325111Y-128463513D01*
X145605034Y-128378599D01*
X145863014Y-128240706D01*
X146089134Y-128055134D01*
X146274706Y-127829014D01*
X146304000Y-127774209D01*
X146333294Y-127829014D01*
X146518866Y-128055134D01*
X146744986Y-128240706D01*
X147002966Y-128378599D01*
X147282889Y-128463513D01*
X147501050Y-128485000D01*
X147646950Y-128485000D01*
X147865111Y-128463513D01*
X148145034Y-128378599D01*
X148403014Y-128240706D01*
X148629134Y-128055134D01*
X148814706Y-127829014D01*
X148844000Y-127774209D01*
X148873294Y-127829014D01*
X149058866Y-128055134D01*
X149284986Y-128240706D01*
X149542966Y-128378599D01*
X149822889Y-128463513D01*
X150041050Y-128485000D01*
X150186950Y-128485000D01*
X150405111Y-128463513D01*
X150685034Y-128378599D01*
X150943014Y-128240706D01*
X151169134Y-128055134D01*
X151354706Y-127829014D01*
X151492599Y-127571034D01*
X151577513Y-127291111D01*
X151606185Y-127000000D01*
X151577513Y-126708889D01*
X151492599Y-126428966D01*
X151354706Y-126170986D01*
X151169134Y-125944866D01*
X150943014Y-125759294D01*
X150888209Y-125730000D01*
X150943014Y-125700706D01*
X151169134Y-125515134D01*
X151354706Y-125289014D01*
X151492599Y-125031034D01*
X151577513Y-124751111D01*
X151606185Y-124460000D01*
X151577513Y-124168889D01*
X151492599Y-123888966D01*
X151354706Y-123630986D01*
X151169134Y-123404866D01*
X150943014Y-123219294D01*
X150685034Y-123081401D01*
X150405111Y-122996487D01*
X150186950Y-122975000D01*
X150041050Y-122975000D01*
X149822889Y-122996487D01*
X149542966Y-123081401D01*
X149284986Y-123219294D01*
X149058866Y-123404866D01*
X148873294Y-123630986D01*
X148844000Y-123685791D01*
X148814706Y-123630986D01*
X148629134Y-123404866D01*
X148403014Y-123219294D01*
X148145034Y-123081401D01*
X147865111Y-122996487D01*
X147646950Y-122975000D01*
X147501050Y-122975000D01*
X147282889Y-122996487D01*
X147002966Y-123081401D01*
X146744986Y-123219294D01*
X146518866Y-123404866D01*
X146333294Y-123630986D01*
X146304000Y-123685791D01*
X146274706Y-123630986D01*
X146089134Y-123404866D01*
X145863014Y-123219294D01*
X145605034Y-123081401D01*
X145325111Y-122996487D01*
X145106950Y-122975000D01*
X144961050Y-122975000D01*
X144742889Y-122996487D01*
X144462966Y-123081401D01*
X144204986Y-123219294D01*
X143978866Y-123404866D01*
X143793294Y-123630986D01*
X143758799Y-123695523D01*
X143689178Y-123578645D01*
X143494269Y-123362412D01*
X143260920Y-123188359D01*
X142998099Y-123063175D01*
X142850890Y-123018524D01*
X142621000Y-123139845D01*
X142367000Y-123139845D01*
X142137110Y-123018524D01*
X141989901Y-123063175D01*
X141727080Y-123188359D01*
X141493731Y-123362412D01*
X141298822Y-123578645D01*
X141229201Y-123695523D01*
X141194706Y-123630986D01*
X141009134Y-123404866D01*
X140783014Y-123219294D01*
X140525034Y-123081401D01*
X140245111Y-122996487D01*
X140026950Y-122975000D01*
X139881050Y-122975000D01*
X139662889Y-122996487D01*
X139382966Y-123081401D01*
X139124986Y-123219294D01*
X138898866Y-123404866D01*
X138713294Y-123630986D01*
X138575401Y-123888966D01*
X138490487Y-124168889D01*
X138461815Y-124460000D01*
X138490487Y-124751111D01*
X138575401Y-125031034D01*
X138713294Y-125289014D01*
X138898866Y-125515134D01*
X138928687Y-125539607D01*
X138859820Y-125560498D01*
X138749506Y-125619463D01*
X138652815Y-125698815D01*
X138573463Y-125795506D01*
X138514498Y-125905820D01*
X138478188Y-126025518D01*
X138465928Y-126150000D01*
X138465928Y-126183281D01*
X138269472Y-125986825D01*
X138269472Y-125363199D01*
X138252408Y-125189945D01*
X138201872Y-125023349D01*
X138119805Y-124869813D01*
X138009362Y-124735238D01*
X137921584Y-124663200D01*
X138009362Y-124591162D01*
X138119805Y-124456587D01*
X138201872Y-124303051D01*
X138252408Y-124136455D01*
X138269472Y-123963201D01*
X138269472Y-123313199D01*
X138252408Y-123139945D01*
X138201872Y-122973349D01*
X138119805Y-122819813D01*
X138009362Y-122685238D01*
X137874787Y-122574795D01*
X137721251Y-122492728D01*
X137554655Y-122442192D01*
X137381401Y-122425128D01*
X136513915Y-122425128D01*
X136465337Y-122352426D01*
X136413911Y-122301000D01*
X155575801Y-122301000D01*
X155575800Y-142257307D01*
X155533291Y-142205509D01*
X155501426Y-142179358D01*
X154264046Y-140941979D01*
X154237891Y-140910109D01*
X154110746Y-140805764D01*
X153965687Y-140728228D01*
X153808289Y-140680482D01*
X153685619Y-140668400D01*
X153685618Y-140668400D01*
X153644600Y-140664360D01*
X153603582Y-140668400D01*
X152941306Y-140668400D01*
X153018537Y-140574294D01*
X153077502Y-140463980D01*
X153113812Y-140344282D01*
X153126072Y-140219800D01*
X153126072Y-138519800D01*
X153113812Y-138395318D01*
X153077502Y-138275620D01*
X153018537Y-138165306D01*
X152939185Y-138068615D01*
X152842494Y-137989263D01*
X152732180Y-137930298D01*
X152663313Y-137909407D01*
X152693134Y-137884934D01*
X152878706Y-137658814D01*
X153016599Y-137400834D01*
X153101513Y-137120911D01*
X153130185Y-136829800D01*
X153101513Y-136538689D01*
X153016599Y-136258766D01*
X152878706Y-136000786D01*
X152693134Y-135774666D01*
X152467014Y-135589094D01*
X152402477Y-135554599D01*
X152519355Y-135484978D01*
X152735588Y-135290069D01*
X152909641Y-135056720D01*
X153034825Y-134793899D01*
X153079476Y-134646690D01*
X152958155Y-134416800D01*
X151765000Y-134416800D01*
X151765000Y-134436800D01*
X151511000Y-134436800D01*
X151511000Y-134416800D01*
X150317845Y-134416800D01*
X150196524Y-134646690D01*
X150241175Y-134793899D01*
X150366359Y-135056720D01*
X150540412Y-135290069D01*
X150756645Y-135484978D01*
X150873523Y-135554599D01*
X150808986Y-135589094D01*
X150582866Y-135774666D01*
X150501841Y-135873395D01*
X149775932Y-135147485D01*
X149743068Y-134982271D01*
X149672586Y-134812111D01*
X149570262Y-134658972D01*
X149440028Y-134528738D01*
X149286889Y-134426414D01*
X149116729Y-134355932D01*
X148936089Y-134320000D01*
X148751911Y-134320000D01*
X148571271Y-134355932D01*
X148401111Y-134426414D01*
X148247972Y-134528738D01*
X148117738Y-134658972D01*
X148015414Y-134812111D01*
X147944932Y-134982271D01*
X147909000Y-135162911D01*
X147909000Y-135347089D01*
X147944932Y-135527729D01*
X147975899Y-135602490D01*
X147941380Y-135685826D01*
X147905448Y-135866466D01*
X147905448Y-136050644D01*
X147941380Y-136231284D01*
X148011862Y-136401444D01*
X148114186Y-136554583D01*
X148244420Y-136684817D01*
X148397559Y-136787141D01*
X148567719Y-136857623D01*
X148732933Y-136890487D01*
X149506001Y-137663555D01*
X149506000Y-138986695D01*
X149502444Y-139022800D01*
X149508784Y-139087167D01*
X149516635Y-139166884D01*
X149558663Y-139305432D01*
X149626913Y-139433119D01*
X149718762Y-139545037D01*
X149746808Y-139568054D01*
X149986589Y-139807835D01*
X149971947Y-139813900D01*
X149115532Y-138957485D01*
X149082668Y-138792271D01*
X149012186Y-138622111D01*
X148909862Y-138468972D01*
X148779628Y-138338738D01*
X148626489Y-138236414D01*
X148456329Y-138165932D01*
X148275689Y-138130000D01*
X148091511Y-138130000D01*
X147910871Y-138165932D01*
X147740711Y-138236414D01*
X147587572Y-138338738D01*
X147457338Y-138468972D01*
X147444659Y-138487948D01*
X147420974Y-138464263D01*
X147251456Y-138350995D01*
X147063098Y-138272974D01*
X146863139Y-138233200D01*
X146659261Y-138233200D01*
X146459302Y-138272974D01*
X146270944Y-138350995D01*
X146101426Y-138464263D01*
X145957263Y-138608426D01*
X145843995Y-138777944D01*
X145765974Y-138966302D01*
X145726200Y-139166261D01*
X145726200Y-139370139D01*
X145751051Y-139495076D01*
X145734038Y-139509038D01*
X145637229Y-139627000D01*
X145542298Y-139627000D01*
X145451562Y-139516438D01*
X145316987Y-139405995D01*
X145163451Y-139323928D01*
X144996855Y-139273392D01*
X144823601Y-139256328D01*
X143923599Y-139256328D01*
X143750345Y-139273392D01*
X143583749Y-139323928D01*
X143430213Y-139405995D01*
X143295638Y-139516438D01*
X143198829Y-139634400D01*
X140510469Y-139634400D01*
X139733493Y-138857425D01*
X139704626Y-138712302D01*
X139626605Y-138523944D01*
X139513337Y-138354426D01*
X139369174Y-138210263D01*
X139199656Y-138096995D01*
X139011298Y-138018974D01*
X138811339Y-137979200D01*
X138607461Y-137979200D01*
X138407502Y-138018974D01*
X138219144Y-138096995D01*
X138049626Y-138210263D01*
X137905463Y-138354426D01*
X137792195Y-138523944D01*
X137714174Y-138712302D01*
X137693849Y-138814482D01*
X137192204Y-139316128D01*
X136709999Y-139316128D01*
X136536745Y-139333192D01*
X136370149Y-139383728D01*
X136216613Y-139465795D01*
X136082038Y-139576238D01*
X135998688Y-139677800D01*
X135870971Y-139677800D01*
X135774162Y-139559838D01*
X135639587Y-139449395D01*
X135486051Y-139367328D01*
X135319455Y-139316792D01*
X135146201Y-139299728D01*
X134246199Y-139299728D01*
X134072945Y-139316792D01*
X133906349Y-139367328D01*
X133752813Y-139449395D01*
X133618238Y-139559838D01*
X133507795Y-139694413D01*
X133425728Y-139847949D01*
X133375192Y-140014545D01*
X133358128Y-140187799D01*
X133358128Y-140837801D01*
X133375192Y-141011055D01*
X133425728Y-141177651D01*
X133507795Y-141331187D01*
X133618238Y-141465762D01*
X133706016Y-141537800D01*
X133618238Y-141609838D01*
X133507795Y-141744413D01*
X133425728Y-141897949D01*
X133375192Y-142064545D01*
X133358128Y-142237799D01*
X133358128Y-142887801D01*
X133375192Y-143061055D01*
X133425728Y-143227651D01*
X133507795Y-143381187D01*
X133618238Y-143515762D01*
X133718949Y-143598413D01*
X133564866Y-143724866D01*
X133379294Y-143950986D01*
X133344799Y-144015523D01*
X133275178Y-143898645D01*
X133080269Y-143682412D01*
X132846920Y-143508359D01*
X132584099Y-143383175D01*
X132436890Y-143338524D01*
X132207000Y-143459845D01*
X132207000Y-144653000D01*
X132227000Y-144653000D01*
X132227000Y-144907000D01*
X132207000Y-144907000D01*
X132207000Y-146100155D01*
X132436890Y-146221476D01*
X132584099Y-146176825D01*
X132846920Y-146051641D01*
X133080269Y-145877588D01*
X133275178Y-145661355D01*
X133344799Y-145544477D01*
X133379294Y-145609014D01*
X133564866Y-145835134D01*
X133790986Y-146020706D01*
X134048966Y-146158599D01*
X134328889Y-146243513D01*
X134547050Y-146265000D01*
X134692950Y-146265000D01*
X134911111Y-146243513D01*
X135191034Y-146158599D01*
X135449014Y-146020706D01*
X135675134Y-145835134D01*
X135860706Y-145609014D01*
X135890000Y-145554209D01*
X135919294Y-145609014D01*
X136104866Y-145835134D01*
X136330986Y-146020706D01*
X136588966Y-146158599D01*
X136868889Y-146243513D01*
X137087050Y-146265000D01*
X137232950Y-146265000D01*
X137451111Y-146243513D01*
X137731034Y-146158599D01*
X137989014Y-146020706D01*
X138215134Y-145835134D01*
X138400706Y-145609014D01*
X138430000Y-145554209D01*
X138459294Y-145609014D01*
X138644866Y-145835134D01*
X138870986Y-146020706D01*
X139128966Y-146158599D01*
X139408889Y-146243513D01*
X139627050Y-146265000D01*
X139772950Y-146265000D01*
X139991111Y-146243513D01*
X140271034Y-146158599D01*
X140529014Y-146020706D01*
X140755134Y-145835134D01*
X140940706Y-145609014D01*
X140970000Y-145554209D01*
X140999294Y-145609014D01*
X141184866Y-145835134D01*
X141410986Y-146020706D01*
X141668966Y-146158599D01*
X141948889Y-146243513D01*
X142167050Y-146265000D01*
X142312950Y-146265000D01*
X142531111Y-146243513D01*
X142811034Y-146158599D01*
X143069014Y-146020706D01*
X143295134Y-145835134D01*
X143480706Y-145609014D01*
X143510000Y-145554209D01*
X143539294Y-145609014D01*
X143724866Y-145835134D01*
X143950986Y-146020706D01*
X144208966Y-146158599D01*
X144488889Y-146243513D01*
X144707050Y-146265000D01*
X144852950Y-146265000D01*
X145071111Y-146243513D01*
X145351034Y-146158599D01*
X145609014Y-146020706D01*
X145835134Y-145835134D01*
X146020706Y-145609014D01*
X146050000Y-145554209D01*
X146079294Y-145609014D01*
X146264866Y-145835134D01*
X146490986Y-146020706D01*
X146748966Y-146158599D01*
X147028889Y-146243513D01*
X147247050Y-146265000D01*
X147392950Y-146265000D01*
X147611111Y-146243513D01*
X147891034Y-146158599D01*
X148149014Y-146020706D01*
X148375134Y-145835134D01*
X148560706Y-145609014D01*
X148590000Y-145554209D01*
X148619294Y-145609014D01*
X148804866Y-145835134D01*
X149030986Y-146020706D01*
X149288966Y-146158599D01*
X149568889Y-146243513D01*
X149787050Y-146265000D01*
X149932950Y-146265000D01*
X150151111Y-146243513D01*
X150431034Y-146158599D01*
X150689014Y-146020706D01*
X150915134Y-145835134D01*
X151100706Y-145609014D01*
X151135201Y-145544477D01*
X151204822Y-145661355D01*
X151399731Y-145877588D01*
X151633080Y-146051641D01*
X151895901Y-146176825D01*
X152043110Y-146221476D01*
X152273000Y-146100155D01*
X152273000Y-144907000D01*
X152253000Y-144907000D01*
X152253000Y-144653000D01*
X152273000Y-144653000D01*
X152273000Y-143459845D01*
X152043110Y-143338524D01*
X151895901Y-143383175D01*
X151633080Y-143508359D01*
X151399731Y-143682412D01*
X151204822Y-143898645D01*
X151135201Y-144015523D01*
X151100706Y-143950986D01*
X150915134Y-143724866D01*
X150689014Y-143539294D01*
X150431034Y-143401401D01*
X150151111Y-143316487D01*
X149932950Y-143295000D01*
X149787050Y-143295000D01*
X149568889Y-143316487D01*
X149288966Y-143401401D01*
X149030986Y-143539294D01*
X148804866Y-143724866D01*
X148619294Y-143950986D01*
X148590000Y-144005791D01*
X148560706Y-143950986D01*
X148375134Y-143724866D01*
X148149014Y-143539294D01*
X148019213Y-143469914D01*
X148042537Y-143441494D01*
X148101502Y-143331180D01*
X148137812Y-143211482D01*
X148150072Y-143087000D01*
X148147000Y-142797750D01*
X147988250Y-142639000D01*
X146939000Y-142639000D01*
X146939000Y-142659000D01*
X146685000Y-142659000D01*
X146685000Y-142639000D01*
X145635750Y-142639000D01*
X145589100Y-142685650D01*
X145549850Y-142646400D01*
X144500600Y-142646400D01*
X144500600Y-142666400D01*
X144246600Y-142666400D01*
X144246600Y-142646400D01*
X143197350Y-142646400D01*
X143038600Y-142805150D01*
X143035528Y-143094400D01*
X143047788Y-143218882D01*
X143084098Y-143338580D01*
X143143063Y-143448894D01*
X143222415Y-143545585D01*
X143319106Y-143624937D01*
X143429420Y-143683902D01*
X143549118Y-143720212D01*
X143673600Y-143732472D01*
X143718900Y-143732136D01*
X143539294Y-143950986D01*
X143510000Y-144005791D01*
X143480706Y-143950986D01*
X143295134Y-143724866D01*
X143069014Y-143539294D01*
X142811034Y-143401401D01*
X142531111Y-143316487D01*
X142312950Y-143295000D01*
X142167050Y-143295000D01*
X141948889Y-143316487D01*
X141668966Y-143401401D01*
X141410986Y-143539294D01*
X141184866Y-143724866D01*
X140999294Y-143950986D01*
X140970000Y-144005791D01*
X140940706Y-143950986D01*
X140755134Y-143724866D01*
X140529014Y-143539294D01*
X140271034Y-143401401D01*
X139991111Y-143316487D01*
X139772950Y-143295000D01*
X139627050Y-143295000D01*
X139408889Y-143316487D01*
X139128966Y-143401401D01*
X138870986Y-143539294D01*
X138644866Y-143724866D01*
X138459294Y-143950986D01*
X138430000Y-144005791D01*
X138400706Y-143950986D01*
X138215134Y-143724866D01*
X138109143Y-143637881D01*
X138237962Y-143532162D01*
X138348405Y-143397587D01*
X138430472Y-143244051D01*
X138452816Y-143170394D01*
X138536838Y-143101438D01*
X138559858Y-143073388D01*
X139248715Y-142384532D01*
X139413929Y-142351668D01*
X139584089Y-142281186D01*
X139737228Y-142178862D01*
X139867462Y-142048628D01*
X139969786Y-141895489D01*
X140040268Y-141725329D01*
X140076200Y-141544689D01*
X140076200Y-141360511D01*
X140063869Y-141298519D01*
X140123581Y-141304400D01*
X140123582Y-141304400D01*
X140164600Y-141308440D01*
X140205618Y-141304400D01*
X143198829Y-141304400D01*
X143295638Y-141422362D01*
X143302194Y-141427742D01*
X143222415Y-141493215D01*
X143143063Y-141589906D01*
X143084098Y-141700220D01*
X143047788Y-141819918D01*
X143035528Y-141944400D01*
X143038600Y-142233650D01*
X143197350Y-142392400D01*
X144246600Y-142392400D01*
X144246600Y-142372400D01*
X144500600Y-142372400D01*
X144500600Y-142392400D01*
X145549850Y-142392400D01*
X145596500Y-142345750D01*
X145635750Y-142385000D01*
X146685000Y-142385000D01*
X146685000Y-142365000D01*
X146939000Y-142365000D01*
X146939000Y-142385000D01*
X147988250Y-142385000D01*
X148147000Y-142226250D01*
X148150072Y-141937000D01*
X148139250Y-141827118D01*
X148376958Y-142064826D01*
X148403109Y-142096691D01*
X148472910Y-142153975D01*
X148530254Y-142201036D01*
X148675313Y-142278572D01*
X148832711Y-142326318D01*
X148996399Y-142342440D01*
X149037418Y-142338400D01*
X153298733Y-142338400D01*
X154105001Y-143144669D01*
X154105001Y-143544206D01*
X153884866Y-143724866D01*
X153699294Y-143950986D01*
X153664799Y-144015523D01*
X153595178Y-143898645D01*
X153400269Y-143682412D01*
X153166920Y-143508359D01*
X152904099Y-143383175D01*
X152756890Y-143338524D01*
X152527000Y-143459845D01*
X152527000Y-144653000D01*
X152547000Y-144653000D01*
X152547000Y-144907000D01*
X152527000Y-144907000D01*
X152527000Y-146100155D01*
X152756890Y-146221476D01*
X152904099Y-146176825D01*
X153166920Y-146051641D01*
X153400269Y-145877588D01*
X153595178Y-145661355D01*
X153664799Y-145544477D01*
X153699294Y-145609014D01*
X153884866Y-145835134D01*
X154110986Y-146020706D01*
X154368966Y-146158599D01*
X154648889Y-146243513D01*
X154867050Y-146265000D01*
X155012950Y-146265000D01*
X155231111Y-146243513D01*
X155511034Y-146158599D01*
X155575800Y-146123981D01*
X155575800Y-146711200D01*
X112521200Y-146711200D01*
X112521200Y-137022408D01*
X112903000Y-137022408D01*
X112903000Y-137297592D01*
X112956686Y-137567490D01*
X113061995Y-137821727D01*
X113214880Y-138050535D01*
X113409465Y-138245120D01*
X113638273Y-138398005D01*
X113715515Y-138430000D01*
X113638273Y-138461995D01*
X113409465Y-138614880D01*
X113214880Y-138809465D01*
X113061995Y-139038273D01*
X112956686Y-139292510D01*
X112903000Y-139562408D01*
X112903000Y-139837592D01*
X112956686Y-140107490D01*
X113061995Y-140361727D01*
X113214880Y-140590535D01*
X113409465Y-140785120D01*
X113638273Y-140938005D01*
X113715515Y-140970000D01*
X113638273Y-141001995D01*
X113409465Y-141154880D01*
X113214880Y-141349465D01*
X113061995Y-141578273D01*
X112956686Y-141832510D01*
X112903000Y-142102408D01*
X112903000Y-142377592D01*
X112956686Y-142647490D01*
X113061995Y-142901727D01*
X113214880Y-143130535D01*
X113409465Y-143325120D01*
X113638273Y-143478005D01*
X113715515Y-143510000D01*
X113638273Y-143541995D01*
X113409465Y-143694880D01*
X113214880Y-143889465D01*
X113061995Y-144118273D01*
X112956686Y-144372510D01*
X112903000Y-144642408D01*
X112903000Y-144917592D01*
X112956686Y-145187490D01*
X113061995Y-145441727D01*
X113214880Y-145670535D01*
X113409465Y-145865120D01*
X113638273Y-146018005D01*
X113892510Y-146123314D01*
X114162408Y-146177000D01*
X114437592Y-146177000D01*
X114707490Y-146123314D01*
X114961727Y-146018005D01*
X115190535Y-145865120D01*
X115385120Y-145670535D01*
X115443920Y-145582535D01*
X115452188Y-145666482D01*
X115488498Y-145786180D01*
X115547463Y-145896494D01*
X115626815Y-145993185D01*
X115723506Y-146072537D01*
X115833820Y-146131502D01*
X115953518Y-146167812D01*
X116078000Y-146180072D01*
X116554250Y-146177000D01*
X116713000Y-146018250D01*
X116713000Y-144907000D01*
X116967000Y-144907000D01*
X116967000Y-146018250D01*
X117125750Y-146177000D01*
X117602000Y-146180072D01*
X117726482Y-146167812D01*
X117846180Y-146131502D01*
X117956494Y-146072537D01*
X118053185Y-145993185D01*
X118132537Y-145896494D01*
X118191502Y-145786180D01*
X118227812Y-145666482D01*
X118231405Y-145630000D01*
X120431928Y-145630000D01*
X120444188Y-145754482D01*
X120480498Y-145874180D01*
X120539463Y-145984494D01*
X120618815Y-146081185D01*
X120715506Y-146160537D01*
X120825820Y-146219502D01*
X120945518Y-146255812D01*
X121070000Y-146268072D01*
X121634250Y-146265000D01*
X121793000Y-146106250D01*
X121793000Y-144907000D01*
X120593750Y-144907000D01*
X120435000Y-145065750D01*
X120431928Y-145630000D01*
X118231405Y-145630000D01*
X118240072Y-145542000D01*
X118237000Y-145065750D01*
X118078250Y-144907000D01*
X116967000Y-144907000D01*
X116713000Y-144907000D01*
X116693000Y-144907000D01*
X116693000Y-144653000D01*
X116713000Y-144653000D01*
X116713000Y-144633000D01*
X116967000Y-144633000D01*
X116967000Y-144653000D01*
X118078250Y-144653000D01*
X118237000Y-144494250D01*
X118240072Y-144018000D01*
X118231406Y-143930000D01*
X120431928Y-143930000D01*
X120435000Y-144494250D01*
X120593750Y-144653000D01*
X121793000Y-144653000D01*
X121793000Y-143453750D01*
X122047000Y-143453750D01*
X122047000Y-144653000D01*
X122067000Y-144653000D01*
X122067000Y-144907000D01*
X122047000Y-144907000D01*
X122047000Y-146106250D01*
X122205750Y-146265000D01*
X122770000Y-146268072D01*
X122894482Y-146255812D01*
X123014180Y-146219502D01*
X123124494Y-146160537D01*
X123221185Y-146081185D01*
X123300537Y-145984494D01*
X123359502Y-145874180D01*
X123380393Y-145805313D01*
X123404866Y-145835134D01*
X123630986Y-146020706D01*
X123888966Y-146158599D01*
X124168889Y-146243513D01*
X124387050Y-146265000D01*
X124532950Y-146265000D01*
X124751111Y-146243513D01*
X125031034Y-146158599D01*
X125289014Y-146020706D01*
X125515134Y-145835134D01*
X125700706Y-145609014D01*
X125730000Y-145554209D01*
X125759294Y-145609014D01*
X125944866Y-145835134D01*
X126170986Y-146020706D01*
X126428966Y-146158599D01*
X126708889Y-146243513D01*
X126927050Y-146265000D01*
X127072950Y-146265000D01*
X127291111Y-146243513D01*
X127571034Y-146158599D01*
X127829014Y-146020706D01*
X128055134Y-145835134D01*
X128240706Y-145609014D01*
X128270000Y-145554209D01*
X128299294Y-145609014D01*
X128484866Y-145835134D01*
X128710986Y-146020706D01*
X128968966Y-146158599D01*
X129248889Y-146243513D01*
X129467050Y-146265000D01*
X129612950Y-146265000D01*
X129831111Y-146243513D01*
X130111034Y-146158599D01*
X130369014Y-146020706D01*
X130595134Y-145835134D01*
X130780706Y-145609014D01*
X130815201Y-145544477D01*
X130884822Y-145661355D01*
X131079731Y-145877588D01*
X131313080Y-146051641D01*
X131575901Y-146176825D01*
X131723110Y-146221476D01*
X131953000Y-146100155D01*
X131953000Y-144907000D01*
X131933000Y-144907000D01*
X131933000Y-144653000D01*
X131953000Y-144653000D01*
X131953000Y-143459845D01*
X131723110Y-143338524D01*
X131575901Y-143383175D01*
X131313080Y-143508359D01*
X131079731Y-143682412D01*
X130884822Y-143898645D01*
X130815201Y-144015523D01*
X130780706Y-143950986D01*
X130595134Y-143724866D01*
X130369014Y-143539294D01*
X130111034Y-143401401D01*
X129831111Y-143316487D01*
X129612950Y-143295000D01*
X129467050Y-143295000D01*
X129248889Y-143316487D01*
X128968966Y-143401401D01*
X128710986Y-143539294D01*
X128484866Y-143724866D01*
X128299294Y-143950986D01*
X128270000Y-144005791D01*
X128240706Y-143950986D01*
X128055134Y-143724866D01*
X127829014Y-143539294D01*
X127571034Y-143401401D01*
X127291111Y-143316487D01*
X127072950Y-143295000D01*
X126927050Y-143295000D01*
X126708889Y-143316487D01*
X126428966Y-143401401D01*
X126170986Y-143539294D01*
X125944866Y-143724866D01*
X125759294Y-143950986D01*
X125730000Y-144005791D01*
X125700706Y-143950986D01*
X125515134Y-143724866D01*
X125289014Y-143539294D01*
X125031034Y-143401401D01*
X124751111Y-143316487D01*
X124532950Y-143295000D01*
X124387050Y-143295000D01*
X124168889Y-143316487D01*
X123888966Y-143401401D01*
X123630986Y-143539294D01*
X123404866Y-143724866D01*
X123380393Y-143754687D01*
X123359502Y-143685820D01*
X123300537Y-143575506D01*
X123221185Y-143478815D01*
X123124494Y-143399463D01*
X123014180Y-143340498D01*
X122894482Y-143304188D01*
X122770000Y-143291928D01*
X122205750Y-143295000D01*
X122047000Y-143453750D01*
X121793000Y-143453750D01*
X121634250Y-143295000D01*
X121070000Y-143291928D01*
X120945518Y-143304188D01*
X120825820Y-143340498D01*
X120715506Y-143399463D01*
X120618815Y-143478815D01*
X120539463Y-143575506D01*
X120480498Y-143685820D01*
X120444188Y-143805518D01*
X120431928Y-143930000D01*
X118231406Y-143930000D01*
X118227812Y-143893518D01*
X118191502Y-143773820D01*
X118132537Y-143663506D01*
X118053185Y-143566815D01*
X117956494Y-143487463D01*
X117846180Y-143428498D01*
X117726482Y-143392188D01*
X117642535Y-143383920D01*
X117730535Y-143325120D01*
X117925120Y-143130535D01*
X118078005Y-142901727D01*
X118183314Y-142647490D01*
X118237000Y-142377592D01*
X118237000Y-142102408D01*
X118183314Y-141832510D01*
X118078005Y-141578273D01*
X117925120Y-141349465D01*
X117730535Y-141154880D01*
X117501727Y-141001995D01*
X117424485Y-140970000D01*
X117501727Y-140938005D01*
X117730535Y-140785120D01*
X117925120Y-140590535D01*
X118078005Y-140361727D01*
X118183314Y-140107490D01*
X118217465Y-139935800D01*
X121291328Y-139935800D01*
X121303588Y-140060282D01*
X121339898Y-140179980D01*
X121398863Y-140290294D01*
X121478215Y-140386985D01*
X121574906Y-140466337D01*
X121685220Y-140525302D01*
X121804918Y-140561612D01*
X121929400Y-140573872D01*
X123293650Y-140570800D01*
X123452400Y-140412050D01*
X123452400Y-139292800D01*
X123706400Y-139292800D01*
X123706400Y-140412050D01*
X123865150Y-140570800D01*
X125229400Y-140573872D01*
X125353882Y-140561612D01*
X125473580Y-140525302D01*
X125583894Y-140466337D01*
X125680585Y-140386985D01*
X125759937Y-140290294D01*
X125818902Y-140179980D01*
X125855212Y-140060282D01*
X125867472Y-139935800D01*
X125864400Y-139451550D01*
X125705650Y-139292800D01*
X123706400Y-139292800D01*
X123452400Y-139292800D01*
X121453150Y-139292800D01*
X121294400Y-139451550D01*
X121291328Y-139935800D01*
X118217465Y-139935800D01*
X118237000Y-139837592D01*
X118237000Y-139562408D01*
X118183314Y-139292510D01*
X118078005Y-139038273D01*
X117925120Y-138809465D01*
X117730535Y-138614880D01*
X117501727Y-138461995D01*
X117424485Y-138430000D01*
X117501727Y-138398005D01*
X117730535Y-138245120D01*
X117925120Y-138050535D01*
X118078005Y-137821727D01*
X118183314Y-137567490D01*
X118237000Y-137297592D01*
X118237000Y-137022408D01*
X118183314Y-136752510D01*
X118078005Y-136498273D01*
X117925120Y-136269465D01*
X117730535Y-136074880D01*
X117501727Y-135921995D01*
X117247490Y-135816686D01*
X116977592Y-135763000D01*
X116702408Y-135763000D01*
X116432510Y-135816686D01*
X116178273Y-135921995D01*
X115949465Y-136074880D01*
X115754880Y-136269465D01*
X115601995Y-136498273D01*
X115570000Y-136575515D01*
X115538005Y-136498273D01*
X115385120Y-136269465D01*
X115190535Y-136074880D01*
X114961727Y-135921995D01*
X114707490Y-135816686D01*
X114437592Y-135763000D01*
X114162408Y-135763000D01*
X113892510Y-135816686D01*
X113638273Y-135921995D01*
X113409465Y-136074880D01*
X113214880Y-136269465D01*
X113061995Y-136498273D01*
X112956686Y-136752510D01*
X112903000Y-137022408D01*
X112521200Y-137022408D01*
X112521200Y-132421400D01*
X121628728Y-132421400D01*
X121631800Y-132835650D01*
X121790550Y-132994400D01*
X122714800Y-132994400D01*
X122714800Y-131945150D01*
X122556050Y-131786400D01*
X122266800Y-131783328D01*
X122142318Y-131795588D01*
X122022620Y-131831898D01*
X121912306Y-131890863D01*
X121815615Y-131970215D01*
X121736263Y-132066906D01*
X121677298Y-132177220D01*
X121640988Y-132296918D01*
X121628728Y-132421400D01*
X112521200Y-132421400D01*
X112521200Y-129134890D01*
X115906524Y-129134890D01*
X115951175Y-129282099D01*
X116076359Y-129544920D01*
X116250412Y-129778269D01*
X116466645Y-129973178D01*
X116716748Y-130122157D01*
X116991109Y-130219481D01*
X117221000Y-130098814D01*
X117221000Y-128905000D01*
X117475000Y-128905000D01*
X117475000Y-130098814D01*
X117704891Y-130219481D01*
X117979252Y-130122157D01*
X118229355Y-129973178D01*
X118445588Y-129778269D01*
X118619641Y-129544920D01*
X118744825Y-129282099D01*
X118789476Y-129134890D01*
X118668155Y-128905000D01*
X117475000Y-128905000D01*
X117221000Y-128905000D01*
X116027845Y-128905000D01*
X115906524Y-129134890D01*
X112521200Y-129134890D01*
X112521200Y-125388000D01*
X115859928Y-125388000D01*
X115859928Y-127088000D01*
X115872188Y-127212482D01*
X115908498Y-127332180D01*
X115967463Y-127442494D01*
X116046815Y-127539185D01*
X116143506Y-127618537D01*
X116253820Y-127677502D01*
X116334466Y-127701966D01*
X116250412Y-127777731D01*
X116076359Y-128011080D01*
X115951175Y-128273901D01*
X115906524Y-128421110D01*
X116027845Y-128651000D01*
X117221000Y-128651000D01*
X117221000Y-128631000D01*
X117475000Y-128631000D01*
X117475000Y-128651000D01*
X118668155Y-128651000D01*
X118789476Y-128421110D01*
X118744825Y-128273901D01*
X118619641Y-128011080D01*
X118445588Y-127777731D01*
X118361534Y-127701966D01*
X118442180Y-127677502D01*
X118552494Y-127618537D01*
X118649185Y-127539185D01*
X118728537Y-127442494D01*
X118787502Y-127332180D01*
X118823812Y-127212482D01*
X118836072Y-127088000D01*
X118836072Y-125388000D01*
X118823812Y-125263518D01*
X118787502Y-125143820D01*
X118728537Y-125033506D01*
X118649185Y-124936815D01*
X118552494Y-124857463D01*
X118442180Y-124798498D01*
X118322482Y-124762188D01*
X118198000Y-124749928D01*
X116498000Y-124749928D01*
X116373518Y-124762188D01*
X116253820Y-124798498D01*
X116143506Y-124857463D01*
X116046815Y-124936815D01*
X115967463Y-125033506D01*
X115908498Y-125143820D01*
X115872188Y-125263518D01*
X115859928Y-125388000D01*
X112521200Y-125388000D01*
X112521200Y-122301000D01*
X134908889Y-122301000D01*
X134857463Y-122352426D01*
G36*
X137576014Y-128919311D02*
G01*
X137505532Y-129089471D01*
X137469600Y-129270111D01*
X137469600Y-129454289D01*
X137505532Y-129634929D01*
X137576014Y-129805089D01*
X137655005Y-129923307D01*
X137601414Y-130003511D01*
X137530932Y-130173671D01*
X137495000Y-130354311D01*
X137495000Y-130538489D01*
X137530932Y-130719129D01*
X137601414Y-130889289D01*
X137703738Y-131042428D01*
X137833972Y-131172662D01*
X137987111Y-131274986D01*
X138157271Y-131345468D01*
X138337911Y-131381400D01*
X138522089Y-131381400D01*
X138702729Y-131345468D01*
X138872889Y-131274986D01*
X138888800Y-131264354D01*
X138888800Y-132221695D01*
X138885244Y-132257800D01*
X138892463Y-132331098D01*
X138899435Y-132401884D01*
X138940968Y-132538800D01*
X136678947Y-132538800D01*
X136754072Y-132398251D01*
X136804608Y-132231655D01*
X136821672Y-132058401D01*
X136821672Y-131408399D01*
X136804608Y-131235145D01*
X136754072Y-131068549D01*
X136672005Y-130915013D01*
X136561562Y-130780438D01*
X136555006Y-130775058D01*
X136634785Y-130709585D01*
X136714137Y-130612894D01*
X136773102Y-130502580D01*
X136809412Y-130382882D01*
X136821672Y-130258400D01*
X136818600Y-129969150D01*
X136659850Y-129810400D01*
X135610600Y-129810400D01*
X135610600Y-129830400D01*
X135356600Y-129830400D01*
X135356600Y-129810400D01*
X135336600Y-129810400D01*
X135336600Y-129556400D01*
X135356600Y-129556400D01*
X135356600Y-129536400D01*
X135610600Y-129536400D01*
X135610600Y-129556400D01*
X136659850Y-129556400D01*
X136818600Y-129397650D01*
X136821672Y-129108400D01*
X136809412Y-128983918D01*
X136773102Y-128864220D01*
X136739737Y-128801800D01*
X137581095Y-128801800D01*
X137617200Y-128805356D01*
X137653305Y-128801800D01*
X137654619Y-128801671D01*
X137576014Y-128919311D01*
X137576014Y-128919311D01*
G37*
X137576014Y-128919311D02*
X137505532Y-129089471D01*
X137469600Y-129270111D01*
X137469600Y-129454289D01*
X137505532Y-129634929D01*
X137576014Y-129805089D01*
X137655005Y-129923307D01*
X137601414Y-130003511D01*
X137530932Y-130173671D01*
X137495000Y-130354311D01*
X137495000Y-130538489D01*
X137530932Y-130719129D01*
X137601414Y-130889289D01*
X137703738Y-131042428D01*
X137833972Y-131172662D01*
X137987111Y-131274986D01*
X138157271Y-131345468D01*
X138337911Y-131381400D01*
X138522089Y-131381400D01*
X138702729Y-131345468D01*
X138872889Y-131274986D01*
X138888800Y-131264354D01*
X138888800Y-132221695D01*
X138885244Y-132257800D01*
X138892463Y-132331098D01*
X138899435Y-132401884D01*
X138940968Y-132538800D01*
X136678947Y-132538800D01*
X136754072Y-132398251D01*
X136804608Y-132231655D01*
X136821672Y-132058401D01*
X136821672Y-131408399D01*
X136804608Y-131235145D01*
X136754072Y-131068549D01*
X136672005Y-130915013D01*
X136561562Y-130780438D01*
X136555006Y-130775058D01*
X136634785Y-130709585D01*
X136714137Y-130612894D01*
X136773102Y-130502580D01*
X136809412Y-130382882D01*
X136821672Y-130258400D01*
X136818600Y-129969150D01*
X136659850Y-129810400D01*
X135610600Y-129810400D01*
X135610600Y-129830400D01*
X135356600Y-129830400D01*
X135356600Y-129810400D01*
X135336600Y-129810400D01*
X135336600Y-129556400D01*
X135356600Y-129556400D01*
X135356600Y-129536400D01*
X135610600Y-129536400D01*
X135610600Y-129556400D01*
X136659850Y-129556400D01*
X136818600Y-129397650D01*
X136821672Y-129108400D01*
X136809412Y-128983918D01*
X136773102Y-128864220D01*
X136739737Y-128801800D01*
X137581095Y-128801800D01*
X137617200Y-128805356D01*
X137653305Y-128801800D01*
X137654619Y-128801671D01*
X137576014Y-128919311D01*
M02*
